<?xml version="1.0" encoding="UTF-8" standalone="no"?>
<!-- Created with Inkscape (http://www.inkscape.org/) -->

<svg
   width="565mm"
   height="565mm"
   viewBox="0 0 564.99998 564.99999"
   version="1.1"
   id="svg1"
   xml:space="preserve"
   inkscape:version="1.4 (e7c3feb100, 2024-10-09)"
   sodipodi:docname="apache.svg"
   xmlns:inkscape="http://www.inkscape.org/namespaces/inkscape"
   xmlns:sodipodi="http://sodipodi.sourceforge.net/DTD/sodipodi-0.dtd"
   xmlns="http://www.w3.org/2000/svg"
   xmlns:svg="http://www.w3.org/2000/svg"><sodipodi:namedview
     id="namedview1"
     pagecolor="#505050"
     bordercolor="#eeeeee"
     borderopacity="1"
     inkscape:showpageshadow="0"
     inkscape:pageopacity="0"
     inkscape:pagecheckerboard="0"
     inkscape:deskcolor="#505050"
     inkscape:document-units="mm"
     inkscape:zoom="0.27370379"
     inkscape:cx="611.97544"
     inkscape:cy="732.54374"
     inkscape:window-width="1876"
     inkscape:window-height="986"
     inkscape:window-x="0"
     inkscape:window-y="0"
     inkscape:window-maximized="1"
     inkscape:current-layer="layer1"
     showguides="true"><sodipodi:guide
       position="-440.99004,567.10326"
       orientation="1,0"
       id="guide25"
       inkscape:locked="false" /></sodipodi:namedview><defs
     id="defs1" /><g
     inkscape:label="Layer 1"
     inkscape:groupmode="layer"
     id="layer1"
     transform="translate(32.724253,141.1538)"><g
       id="g19"
       transform="translate(126.4994,-5.5505802)"><path
         style="fill:#f49524"
         d="m 242.47396,9.3750479 c 0.15576,-0.2910417 0.34273,-0.5291667 0.41549,-0.5291667 0.0728,0 0.005,0.238125 -0.15091,0.5291667 -0.15576,0.2910416 -0.34273,0.5291667 -0.41549,0.5291667 -0.0728,0 -0.005,-0.2381251 0.15091,-0.5291667 z m 1.32291,-2.1166667 c 0.15577,-0.2910417 0.34274,-0.5291667 0.4155,-0.5291667 0.0728,0 0.005,0.238125 -0.15091,0.5291667 -0.15576,0.2910416 -0.34273,0.5291666 -0.4155,0.5291666 -0.0728,0 -0.005,-0.238125 0.15091,-0.5291666 z m 0.79375,-1.3229167 c 0.15577,-0.2910417 0.34274,-0.5291667 0.4155,-0.5291667 0.0728,0 0.005,0.238125 -0.15091,0.5291667 -0.15576,0.2910416 -0.34273,0.5291666 -0.4155,0.5291666 -0.0728,0 -0.005,-0.238125 0.15091,-0.5291666 z m 1.45521,-2.3812501 c 0.22576,-0.4365625 0.47,-0.79375 0.54276,-0.79375 0.0728,0 -0.0524,0.3571875 -0.27817,0.79375 -0.22576,0.4365625 -0.47,0.79375 -0.54276,0.79375 -0.0728,0 0.0524,-0.3571875 0.27817,-0.79375 z m 0.97936,-1.6536459 c 3.35772,-5.2775292 11.15309,-20.3645435 15.59261,-30.1776745 1.43568,-3.173423 2.61033,-5.81872 2.61033,-5.878436 0,-0.05972 0.88456,-2.246891 1.96569,-4.860389 2.38229,-5.758886 5.40716,-14.603372 6.50149,-19.009819 1.02754,-4.137546 1.88922,-8.320581 1.74391,-8.465886 -0.062,-0.06202 -3.78387,0.489854 -8.27078,1.226388 -17.3865,2.854019 -34.4969,4.992798 -46.78719,5.848339 -6.7838,0.472228 -6.33994,0.357627 -7.49566,1.935342 -0.55286,0.754731 -2.23417,3.277238 -3.73625,5.605572 -1.50207,2.328333 -3.23419,5.00724 -3.84915,5.953125 -1.613,2.48101 -10.28188,16.71449 -12.6901,20.835938 -1.12664,1.928151 -2.09889,3.505729 -2.16054,3.505729 -0.60041,0 16.42326,-27.939161 25.22996,-41.407292 2.45928,-3.760991 8.17061,-12.043158 11.36593,-16.482081 1.49737,-2.080144 2.8471,-4.01491 2.9994,-4.299479 1.95822,-3.658973 -11.15413,13.469404 -19.45357,25.411768 -3.42326,4.925861 -13.05139,19.444793 -14.73835,22.225001 -3.19907,5.27226 -10.83597,17.590291 -10.98387,17.716587 -0.51652,0.441049 8.34818,-14.271107 12.90692,-21.420754 5.36575,-8.415341 8.68847,-13.519538 10.90691,-16.754694 l 2.32684,-3.393236 -7.72584,-14.598431 c -4.24921,-8.029138 -7.80562,-14.691315 -7.90314,-14.804838 -0.14704,-0.171172 -4.39888,5.044961 -14.24521,17.475911 -2.77874,3.508158 -13.19624,17.525944 -16.41088,22.082485 -1.20445,1.707239 -2.31134,3.179116 -2.45975,3.270838 -0.14841,0.09172 0.1759,-0.471674 0.72069,-1.251989 21.80909,-31.237753 46.87682,-61.438533 62.92447,-75.809343 9.07408,-8.12592 13.49087,-10.4724 19.7389,-10.48657 6.41771,-0.0146 12.30461,3.02621 18.65532,9.63604 7.34783,7.64765 10.75098,15.01194 12.70069,27.483826 0.58833,3.763419 0.83039,15.04869 0.41844,19.508357 -1.01957,11.037744 -2.60835,18.815867 -5.74315,28.116644 -3.00832,8.925487 -6.79212,17.751064 -12.81818,29.897917 -4.71872,9.5116343 -11.56128,21.9604171 -12.07069,21.9604171 -0.0797,0 0.0255,-0.2678907 0.2338,-0.5953126 z M 231.19255,-85.213496 c 0.0838,-0.218281 0.0497,-0.396875 -0.0757,-0.396875 -0.12539,0 -0.29651,0.178594 -0.38027,0.396875 -0.0838,0.218281 -0.0497,0.396875 0.0757,0.396875 0.12538,0 0.2965,-0.178594 0.38026,-0.396875 z m -44.81026,70.51146 c 0.29696,-0.582083 0.59945,-1.058333 0.67221,-1.058333 0.0728,0 -0.11067,0.47625 -0.40763,1.058333 -0.29695,0.582083 -0.59945,1.058333 -0.67221,1.058333 -0.0728,0 0.11067,-0.47625 0.40763,-1.058333 z m -3.83646,0 c 0.22576,-0.436562 0.47,-0.79375 0.54276,-0.79375 0.0728,0 -0.0524,0.357188 -0.27818,0.79375 -0.22575,0.436563 -0.46999,0.79375 -0.54275,0.79375 -0.0728,0 0.0524,-0.357187 0.27817,-0.79375 z m 0.92604,-1.5875 c 0.15576,-0.291042 0.34274,-0.529167 0.4155,-0.529167 0.0728,0 0.005,0.238125 -0.15091,0.529167 -0.15576,0.291042 -0.34274,0.529167 -0.4155,0.529167 -0.0728,0 -0.005,-0.238125 0.15091,-0.529167 z m 4.10104,-0.529167 c 0.22576,-0.436562 0.47,-0.79375 0.54276,-0.79375 0.0728,0 -0.0524,0.357188 -0.27817,0.79375 -0.22576,0.436563 -0.47,0.79375 -0.54276,0.79375 -0.0728,0 0.0524,-0.357187 0.27817,-0.79375 z m -3.30729,-0.79375 c 0.15576,-0.291041 0.34274,-0.529166 0.4155,-0.529166 0.0728,0 0.005,0.238125 -0.15091,0.529166 -0.15576,0.291042 -0.34274,0.529167 -0.4155,0.529167 -0.0728,0 -0.005,-0.238125 0.15091,-0.529167 z m 4.36563,-1.058333 c 0.22575,-0.436563 0.46999,-0.79375 0.54275,-0.79375 0.0728,0 -0.0524,0.357187 -0.27817,0.79375 -0.22575,0.436562 -0.46999,0.79375 -0.54275,0.79375 -0.0728,0 0.0524,-0.357188 0.27817,-0.79375 z m 1.05833,-1.852083 c 0.22576,-0.436563 0.47,-0.79375 0.54276,-0.79375 0.0728,0 -0.0524,0.357187 -0.27818,0.79375 -0.22575,0.436562 -0.46999,0.79375 -0.54275,0.79375 -0.0728,0 0.0524,-0.357188 0.27817,-0.79375 z m -34.26354,-16.504062 c 0,-0.05494 0.20836,-0.263302 0.46302,-0.463021 0.41964,-0.329108 0.429,-0.319749 0.0999,0.0999 -0.34564,0.440729 -0.56291,0.580887 -0.56291,0.363126 z m 3.43958,-5.027084 c 0,-0.05494 0.20836,-0.263301 0.46302,-0.463021 0.41965,-0.329107 0.42901,-0.319749 0.0999,0.09989 -0.34565,0.440729 -0.56292,0.580887 -0.56292,0.363126 z m 1.85209,-2.645833 c 0,-0.05494 0.20835,-0.263302 0.46302,-0.463021 0.41964,-0.329107 0.429,-0.319749 0.0999,0.0999 -0.34564,0.440729 -0.56291,0.580887 -0.56291,0.363126 z"
         id="path25" /><path
         style="fill:#a65d95"
         d="m -3.5885492,428.63549 c 0,-0.41583 3.10134856,-10.61437 7.1291835,-23.44377 1.4848208,-4.72942 3.3341382,-10.62302 4.1095943,-13.09687 8.8842474,-28.34246 18.6661124,-58.24312 26.3999574,-80.69792 2.756603,-8.00365 5.070314,-14.80314 5.141581,-15.11 0.08707,-0.37488 -0.0301,-0.62372 -0.357141,-0.75851 -0.91901,-0.37877 -8.240688,-0.48513 -10.74895,-0.15615 -5.890453,0.77259 -14.360685,3.0149 -21.3940249,5.6636 -2.0888496,0.78665 -3.9084547,1.36571 -4.0435669,1.2868 -0.3486306,-0.2036 0.9994308,-1.27833 5.4790148,-4.36811 8.718672,-6.01368 15.148146,-9.29582 20.828103,-10.63243 1.091406,-0.25683 2.133203,-0.5075 2.315104,-0.55705 0.638981,-0.17405 0.32016,-0.55527 -0.726697,-0.86891 -1.88056,-0.56343 -6.686089,-3.12109 -9.798655,-5.21517 -3.876295,-2.6079 -9.252253,-6.90854 -9.252253,-7.40158 0,-0.53664 0.38699,-0.48341 3.059222,0.42076 7.42122,2.51103 13.726704,3.79846 18.693309,3.81673 4.751199,0.0175 4.641067,0.11445 4.055209,-3.57056 -0.563185,-3.5424 -2.051949,-9.77471 -3.094081,-12.95255 -3.138609,-9.57074 -9.263009,-21.33604 -17.835845,-34.26362 -1.082068,-1.63173 -1.967397,-3.11564 -1.967397,-3.29759 0,-0.52025 0.607023,-0.18557 5.021171,2.76834 7.725077,5.16956 13.965816,10.48616 17.077274,14.54844 0.833521,1.08824 1.604099,1.92385 1.712394,1.85692 0.108296,-0.0669 0.279303,-1.10658 0.380014,-2.31032 1.18459,-14.15865 4.340329,-34.4378 7.577631,-48.69474 6.919705,-30.4741 17.640206,-61.57491 32.853711,-95.310555 C 91.340056,68.982974 112.79097,29.373422 131.3969,-0.41453567 137.14743,-9.6211023 148.06726,-26.470233 148.63013,-27.005161 c 0.35084,-0.333427 0.15761,-0.02834 -4.85974,7.672917 -7.39671,11.3533902 -11.53141,17.9596876 -17.6818,28.2514457 C 116.89028,24.311198 114.26555,28.864006 107.14527,41.77786 84.39204,83.044799 70.584573,113.58954 58.283765,149.8688 c -5.09575,15.0291 -11.844979,40.45044 -13.978843,52.65209 -2.725842,15.58663 -4.648193,29.2925 -5.44586,38.8276 -0.121662,1.45431 -0.291419,2.18281 -0.50864,2.18281 -0.179318,0 -1.006128,-0.88792 -1.837354,-1.97316 -2.014099,-2.62958 -6.706927,-7.10505 -10.692948,-10.19767 -3.023317,-2.34569 -10.403033,-7.45216 -10.552963,-7.30223 -0.0369,0.0369 0.864562,1.48663 2.003246,3.22164 12.164548,18.535 18.533521,33.01099 20.420643,46.41392 0.465983,3.30956 0.361415,3.76438 -0.930636,4.04791 -1.645846,0.36115 -7.886737,0.0202 -11.1125,-0.60713 -3.106275,-0.60408 -8.010857,-1.92851 -11.223313,-3.03073 -1.079593,-0.37042 -2.008965,-0.62742 -2.065272,-0.57111 -0.173826,0.17382 5.997935,5.00557 8.772684,6.86795 2.92203,1.96123 7.348489,4.29412 9.873714,5.20376 1.760549,0.63418 2.121005,1.20573 0.926041,1.46834 -6.371745,1.40031 -11.089413,3.34184 -17.264063,7.10492 -2.937422,1.79019 -9.7260847,6.45138 -9.96947,6.84519 -0.1964925,0.31793 -0.5757152,0.43239 5.73848,-1.73199 7.226969,-2.47726 13.552574,-3.92955 19.185721,-4.40484 2.866823,-0.24189 9.607103,0.0887 10.009341,0.49097 0.175789,0.17579 0.168018,0.55392 -0.02323,1.13055 -0.158052,0.47653 -2.541221,7.41486 -5.295932,15.41851 -9.852894,28.62698 -20.680194,62.13307 -36.7216509,113.63854 -0.4758881,1.52797 -0.7683434,2.88026 -0.6499006,3.00508 0.3611261,0.38059 3.3892459,-1.4252 4.8655948,-2.90155 1.859824,-1.85982 2.8455042,-3.8021 3.9889992,-7.8603 5.7362475,-20.35763 25.9602675,-81.83882 40.3560825,-122.68282 5.897531,-16.73255 17.964676,-49.86052 18.938026,-51.99062 0.199487,-0.43656 3.21028,-8.29469 6.690651,-17.4625 C 94.685617,165.33622 121.54427,103.028 145.85692,53.825049 153.54236,38.271567 172.49418,2.4958811 173.04805,2.4958811 c 0.15254,0 0.32101,-0.3140784 -4.47044,8.3343749 -29.45577,53.166967 -66.10998,134.970314 -96.799118,216.032294 -3.333098,8.80401 -6.22368,16.36448 -6.423517,16.80104 -0.96956,2.1181 -13.03067,35.2284 -18.93866,51.99063 -14.132173,40.09599 -30.28045,89.07635 -39.6897294,120.38542 -1.8501148,6.1562 -2.6781989,7.91596 -4.655352,9.89312 -2.12507781,2.12507 -5.6597828,3.81301 -5.6597828,2.70273 z M 65.354219,315.73503 c -3.92974,-6.64232 -8.380295,-11.94777 -12.093102,-14.41604 -0.998982,-0.66412 -1.816331,-1.34084 -1.816331,-1.50383 0,-0.9632 15.837174,-45.88286 18.127245,-51.41508 0.513745,-1.24107 2.667191,-6.98169 4.785436,-12.75691 11.978244,-32.65772 28.494703,-74.4131 41.254263,-104.2952 9.77467,-22.89166 20.71444,-47.288989 29.83779,-66.542713 1.3791,-2.910416 4.3136,-9.101666 6.52111,-13.758333 6.61522,-13.954571 24.78139,-49.344793 25.3292,-49.344793 0.0728,0 -0.4614,1.1013282 -1.18703,2.4473959 -7.43161,13.7858381 -19.04099,36.6690381 -23.79256,46.8973971 -1.62243,3.4925 -4.31091,9.2075 -5.97438,12.7 -11.3791,23.890655 -27.37596,59.980366 -37.91705,85.542746 -9.414767,22.831 -25.082983,63.09799 -33.80676,86.88267 -2.118245,5.77522 -4.271691,11.51583 -4.785436,12.75691 -2.47476,5.97839 -17.886878,49.78053 -17.84714,50.72262 0.0085,0.20238 0.854665,0.90376 1.880285,1.5586 3.444712,2.1994 7.592922,7.13538 11.552371,13.74624 0.854685,1.42701 1.533501,2.3181 1.580396,2.0746 0.160522,-0.83353 -0.77007,-4.88338 -1.788636,-7.78397 -1.270405,-3.61777 -3.775069,-7.91421 -6.333937,-10.86509 -1.033404,-1.19172 -1.878917,-2.35258 -1.878917,-2.57969 0,-0.36183 0.73005,-0.41292 5.900236,-0.41292 9.198527,0 16.386242,-0.7278 23.997681,-2.42991 16.831067,-3.76385 28.339757,-10.81151 37.293697,-22.8378 1.27057,-1.70654 4.24589,-6.71304 4.24589,-7.14446 0,-0.10234 -0.80367,0.51981 -1.78594,1.38257 -4.06872,3.57371 -7.76165,5.31814 -13.33152,6.29742 -2.3264,0.40902 -9.74414,0.81678 -10.38497,0.57087 -0.81873,-0.31417 -0.0929,-0.9267 2.56567,-2.16505 15.89998,-7.40626 26.72684,-16.26117 35.42339,-28.97156 2.37818,-3.47582 7.51691,-12.36382 7.28336,-12.59737 -0.0576,-0.0576 -1.38762,1.02467 -2.9555,2.40514 -10.82809,9.53373 -23.72857,15.5155 -36.51973,16.93367 -4.62853,0.51318 -12.515088,0.51203 -16.939555,-0.002 -4.922012,-0.57235 -5.159375,-0.62812 -5.159375,-1.21219 0,-0.27484 0.06711,-0.49972 0.149127,-0.49972 0.903847,0 7.522671,-1.61655 10.89603,-2.6612 16.793883,-5.20066 34.237773,-15.77563 49.257363,-29.86118 7.20555,-6.75745 15.23315,-17.10474 22.90396,-29.52241 6.90887,-11.18423 13.90602,-25.89504 20.51325,-43.12708 2.83556,-7.39529 7.72632,-21.33069 7.54859,-21.50843 -0.0671,-0.0671 -1.22817,0.35911 -2.58008,0.94719 -3.55262,1.54539 -6.50723,2.53369 -10.68488,3.57403 -6.79964,1.69327 -7.85325,1.55148 -3.74554,-0.50407 13.89754,-6.95452 23.62336,-16.67068 32.56417,-32.531824 0.82551,-1.464474 1.50093,-2.801389 1.50093,-2.970921 0,-0.169532 -1.08324,0.348608 -2.4072,1.151422 -5.60242,3.397161 -12.14962,6.159372 -18.75947,7.914472 -2.49859,0.663446 -4.23333,0.854163 -4.23333,0.465412 0,-0.111836 1.51805,-0.957639 3.37344,-1.879561 10.49665,-5.215667 18.17897,-11.523993 24.04587,-19.745226 3.66078,-5.129813 3.94553,-5.620522 6.9596,-11.993287 3.87692,-8.197122 6.1092,-13.545189 8.13601,-19.49213 1.60665,-4.714139 3.09498,-10.715625 2.6574,-10.715625 -0.0765,0 -0.919,0.473824 -1.87225,1.052942 -4.62624,2.810541 -12.40912,5.611759 -20.95975,7.543844 -4.35364,0.983742 -4.28696,0.560252 0.28678,-1.821339 7.07072,-3.681788 11.42761,-6.762648 16.66353,-11.783162 l 3.175,-3.044384 -2.64584,2.717214 c -4.57532,4.698756 -9.78444,8.485031 -16.6283,12.086362 -1.85631,0.976812 -3.31886,1.832268 -3.25011,1.901012 0.33212,0.33212 8.67765,-1.784182 13.1999,-3.3473 3.80636,-1.315669 7.84614,-3.111847 10.15879,-4.51683 0.95325,-0.579119 1.84007,-1.052943 1.97072,-1.052943 0.80999,0 -0.8812,6.665484 -3.56802,14.062584 -2.90921,8.009398 -8.96674,21.287156 -11.28779,24.742222 -7.43571,11.068606 -14.67984,17.563199 -25.96606,23.279402 -1.64654,0.833934 -2.81512,1.555973 -2.59684,1.604533 0.70422,0.156663 7.0972,-1.7365 10.50744,-3.111584 4.08175,-1.645849 6.77821,-2.983853 10.43277,-5.176816 1.54893,-0.929457 2.88839,-1.689923 2.97656,-1.689923 0.48866,0 -0.0512,1.317868 -1.81387,4.427695 -8.56874,15.117799 -18.39315,25.042249 -31.41295,31.732829 -2.714,1.39466 -1.73885,1.43135 3.2773,0.12333 4.37371,-1.1405 7.29456,-2.14853 10.45018,-3.60652 2.3166,-1.07033 2.46174,-1.09632 2.46174,-0.44074 0,0.69763 -4.80436,14.39734 -7.66985,21.8707 -6.6175,17.25882 -13.81754,32.38705 -20.77748,43.65625 -4.47077,7.23886 -10.41772,15.51367 -15.30716,21.29896 -9.67405,11.44654 -25.17287,23.45572 -39.6342,30.71035 -8.15766,4.09235 -17.220559,7.43332 -23.992062,8.8445 -4.292327,0.89452 -4.303875,1.02606 -0.141893,1.61623 4.519406,0.64086 12.243395,0.76119 16.704295,0.26023 14.1499,-1.58903 26.45178,-7.32231 38.2971,-17.84835 3.9526,-3.51238 4.33671,-3.48538 2.36388,0.16614 -7.27197,13.45977 -13.94179,21.92318 -22.50547,28.55744 -1.87268,1.45077 -3.94065,2.99782 -4.5955,3.43789 -3.5966,2.41703 -10.37394,6.22718 -14.73959,8.28645 -3.78836,1.78696 -3.53475,2.03088 1.69595,1.63118 4.61478,-0.35264 7.87886,-0.99532 10.79469,-2.1254 3.21928,-1.24769 5.19202,-2.54783 8.15052,-5.37163 1.73671,-1.65764 2.72826,-2.43616 2.78405,-2.18593 0.11894,0.53346 -2.289,5.00206 -4.33783,8.05007 -3.51999,5.23661 -7.02683,8.93525 -11.95994,12.61404 -5.91713,4.41261 -11.34782,7.14527 -19.243055,9.68286 -8.63795,2.77631 -16.042265,3.85077 -28.045834,4.06979 -4.511146,0.0823 -8.282829,0.2259 -8.381519,0.31909 -0.09869,0.0932 0.582443,1.06174 1.513629,2.15235 4.387186,5.13827 7.312865,11.90621 8.194734,18.95677 0.101808,0.81396 0.06367,1.42635 -0.09494,1.52438 -0.145813,0.0901 -1.048893,-1.16095 -2.006844,-2.78014 z M 231.89062,24.373508 c 0,-0.04554 0.38696,-0.432488 0.8599,-0.859896 l 0.8599,-0.777106 -0.77711,0.859896 c -0.72437,0.801544 -0.94269,0.981512 -0.94269,0.777106 z m 1.98438,-2.29846 c 0.26339,-0.291042 0.53842,-0.529167 0.61118,-0.529167 0.0728,0 -0.0832,0.238125 -0.3466,0.529167 -0.26339,0.291042 -0.53842,0.529167 -0.61118,0.529167 -0.0728,0 0.0832,-0.238125 0.3466,-0.529167 z m 0.66146,-0.893645 c 0,-0.05494 0.20836,-0.263301 0.46302,-0.463021 0.41964,-0.329107 0.429,-0.319749 0.0999,0.0999 -0.34564,0.440729 -0.56291,0.580887 -0.56291,0.363126 z m 0.79375,-1.058333 c 0,-0.05494 0.20836,-0.263302 0.46302,-0.463021 0.41964,-0.329107 0.429,-0.319749 0.0999,0.0999 -0.34564,0.440729 -0.56291,0.580887 -0.56291,0.363126 z m 0.79375,-1.058333 c 0,-0.05494 0.20836,-0.263302 0.46302,-0.463021 0.41964,-0.329108 0.429,-0.319749 0.0999,0.0999 -0.34564,0.440729 -0.56291,0.580887 -0.56291,0.363126 z M 173.68229,1.1729644 c 0.29696,-0.58208338 0.59945,-1.05833339 0.67221,-1.05833339 0.0728,0 -0.11067,0.47625001 -0.40763,1.05833339 -0.29695,0.5820833 -0.59945,1.0583333 -0.67221,1.0583333 -0.0728,0 0.11067,-0.47625 0.40763,-1.0583333 z m 4.49792,-1.32291673 c 0.44075,-0.87312507 0.86089,-1.58750007 0.93366,-1.58750007 0.0728,0 -0.22833,0.714375 -0.66908,1.58750007 -0.44075,0.87312502 -0.8609,1.58750003 -0.93366,1.58750003 -0.0728,0 0.22832,-0.71437501 0.66908,-1.58750003 z M 175.1375,-1.472869 c 0.3687,-0.7276042 0.7299,-1.3229167 0.80266,-1.3229167 0.0728,0 -0.16937,0.5953125 -0.53808,1.3229167 -0.3687,0.72760415 -0.7299,1.32291667 -0.80266,1.32291667 -0.0728,0 0.16937,-0.59531252 0.53808,-1.32291667 z M 179.9,-3.3249524 c 0.3687,-0.7276042 0.7299,-1.3229167 0.80266,-1.3229167 0.0728,0 -0.16937,0.5953125 -0.53808,1.3229167 -0.3687,0.7276042 -0.7299,1.3229167 -0.80266,1.3229167 -0.0728,0 0.16937,-0.5953125 0.53808,-1.3229167 z m -3.30729,-0.79375 c 0.29695,-0.5820834 0.59945,-1.0583334 0.67221,-1.0583334 0.0728,0 -0.11067,0.47625 -0.40763,1.0583334 -0.29696,0.5820833 -0.59945,1.0583333 -0.67221,1.0583333 -0.0728,0 0.11067,-0.47625 0.40763,-1.0583333 z m 4.7625,-1.8520834 c 0.29695,-0.5820833 0.59945,-1.0583333 0.67221,-1.0583333 0.0728,0 -0.11067,0.47625 -0.40763,1.0583333 -0.29696,0.5820834 -0.59945,1.0583334 -0.67221,1.0583334 -0.0728,0 0.11067,-0.47625 0.40763,-1.0583334 z m -3.57188,-0.2645833 c 0.22576,-0.4365625 0.47,-0.79375 0.54276,-0.79375 0.0728,0 -0.0524,0.3571875 -0.27818,0.79375 -0.22575,0.4365625 -0.46999,0.79375 -0.54275,0.79375 -0.0728,0 0.0524,-0.3571875 0.27817,-0.79375 z m 1.05833,-1.8520834 c 0.22576,-0.4365625 0.47,-0.79375 0.54276,-0.79375 0.0728,0 -0.0524,0.3571875 -0.27817,0.79375 -0.22576,0.4365625 -0.47,0.79375 -0.54276,0.79375 -0.0728,0 0.0524,-0.3571875 0.27817,-0.79375 z m 3.83646,-0.2645833 c 0.29696,-0.5820834 0.59946,-1.0583334 0.67222,-1.0583334 0.0728,0 -0.11068,0.47625 -0.40763,1.0583334 -0.29696,0.5820833 -0.59946,1.0583333 -0.67222,1.0583333 -0.0728,0 0.11068,-0.47625 0.40763,-1.0583333 z m -3.02569,-1.1358902 c 0.0993,-0.2609375 0.2473,-0.4077813 0.32876,-0.3263195 0.0815,0.081462 1.7e-4,0.2949562 -0.18065,0.4744319 -0.26131,0.2593623 -0.2917,0.2289714 -0.14811,-0.1481124 z m 4.08403,-0.716193 c 0.15576,-0.291042 0.34273,-0.529167 0.41549,-0.529167 0.0728,0 0.005,0.238125 -0.15091,0.529167 -0.15576,0.2910415 -0.34273,0.5291665 -0.41549,0.5291665 -0.0728,0 -0.005,-0.238125 0.15091,-0.5291665 z m -32.27917,-21.266562 c 0,-0.05494 0.20836,-0.263302 0.46302,-0.463021 0.41964,-0.329107 0.429,-0.319749 0.0999,0.0999 -0.34564,0.440729 -0.56291,0.580887 -0.56291,0.363126 z"
         id="path24" /><path
         style="fill:#df5f28"
         d="m 189.42687,96.69058 c -0.0927,-0.149981 0.0135,-0.194338 0.24897,-0.103984 0.45837,0.175893 0.54223,0.365537 0.16165,0.365537 -0.13693,0 -0.32171,-0.117699 -0.41062,-0.261553 z m 24.86896,-18.523864 c 0.26339,-0.291042 0.53842,-0.529167 0.61118,-0.529167 0.0728,0 -0.0832,0.238125 -0.34659,0.529167 -0.26339,0.291042 -0.53843,0.529167 -0.61119,0.529167 -0.0728,0 0.0832,-0.238125 0.3466,-0.529167 z M 228.45914,52.36984 c 0,-0.14552 0.11542,-0.443177 0.25648,-0.661458 0.14107,-0.218281 0.25648,-0.277812 0.25648,-0.132292 0,0.145521 -0.11541,0.443178 -0.25648,0.661459 -0.14106,0.218281 -0.25648,0.277812 -0.25648,0.132291 z m 0.52917,-1.322916 c 0,-0.145521 0.11542,-0.443177 0.25648,-0.661459 0.14107,-0.218281 0.25648,-0.277812 0.25648,-0.132291 0,0.145521 -0.11541,0.443177 -0.25648,0.661458 -0.14106,0.218281 -0.25648,0.277813 -0.25648,0.132292 z m 0.52917,-1.322917 c 0,-0.145521 0.11541,-0.443177 0.25648,-0.661458 0.14106,-0.218282 0.25648,-0.277813 0.25648,-0.132292 0,0.145521 -0.11542,0.443177 -0.25648,0.661458 -0.14107,0.218282 -0.25648,0.277813 -0.25648,0.132292 z m 0.65484,-1.5875 c 0.0955,-0.291042 0.76175,-2.24866 1.48045,-4.350262 1.09662,-3.20674 1.76656,-5.636232 2.76299,-10.019924 l 0.13908,-0.611853 -1.26596,0.723559 c -0.69628,0.397957 -1.38503,0.811629 -1.53055,0.91927 -1.05683,0.781736 -11.52021,4.768764 -12.40188,4.725686 -0.16397,-0.008 1.30923,-0.580333 3.27376,-1.271827 4.24137,-1.492915 7.84973,-3.095496 10.24154,-4.548574 0.95701,-0.581401 1.8028,-0.994304 1.87954,-0.917563 0.48185,0.481853 -3.35947,13.702669 -4.49883,15.48378 -0.19302,0.301751 -0.21223,0.270044 -0.0801,-0.132292 z M 154.37581,46.81359 c 0,-0.14552 0.11541,-0.443177 0.25648,-0.661458 0.14106,-0.218281 0.25648,-0.277813 0.25648,-0.132292 0,0.145521 -0.11542,0.443177 -0.25648,0.661459 -0.14107,0.218281 -0.25648,0.277812 -0.25648,0.132291 z m 1.05502,-2.35804 c -0.013,-0.656196 17.25752,-34.167646 21.55627,-41.8273773 1.06169,-1.89177085 4.04541,-7.2495835 6.6305,-11.9062502 6.68432,-12.0408535 16.78559,-29.1125645 21.68259,-36.6447925 0.61496,-0.945885 2.34708,-3.624792 3.84915,-5.953125 1.50208,-2.328334 3.18339,-4.850841 3.73625,-5.605572 1.15572,-1.577715 0.71186,-1.463114 7.49566,-1.935342 12.29029,-0.855541 29.40069,-2.99432 46.78719,-5.848339 4.48691,-0.736534 8.20876,-1.288408 8.27078,-1.226388 0.14531,0.145305 -0.71637,4.32834 -1.74391,8.465886 -1.09433,4.406447 -4.1192,13.250933 -6.50149,19.009819 -1.08113,2.613498 -1.96569,4.800673 -1.96569,4.860389 0,0.397192 -5.75921,12.715745 -8.29092,17.733714 -6.37133,12.6282661 -11.13622,20.910944 -17.73253,30.823959 -4.01855,6.039128 -6.40774,9.132794 -9.62436,12.462205 -4.76006,4.926954 -10.0353,8.736742 -17.42631,12.585315 -2.59445,1.350952 -3.7467,2.080969 -3.51278,2.22554 0.2679,0.165573 0.23432,0.258805 -0.14576,0.404655 -0.33609,0.128969 -0.61053,0.02997 -0.85903,-0.309872 -0.33855,-0.462994 -0.22489,-0.570214 1.55962,-1.471258 1.86009,-0.939211 1.90254,-0.981914 1.26331,-1.270759 -0.3638,-0.164388 -10.12692,-4.218516 -21.69583,-9.009172 l -21.03438,-8.710284 -0.49724,0.978586 c -0.27348,0.538222 -1.35972,2.526399 -2.41388,4.41817 -1.05415,1.89177 -3.2312,6.058958 -4.83789,9.260416 -3.14517,6.267028 -4.54171,8.873214 -4.54932,8.489877 z m -4.20646,-1.856861 c 0.47114,-1.008508 2.03859,-4.104133 3.48322,-6.879167 3.59011,-6.89634 7.64557,-15.22455 7.5467,-15.497745 -0.0705,-0.194722 -11.53849,-14.749912 -20.81558,-26.419119 l -3.01978,-3.7984313 -0.9553,1.4461037 c -0.52542,0.7953571 -1.85286,2.8023074 -2.94987,4.4598897 -1.09702,1.6575822 -2.55542,3.90675465 -3.2409,4.99816092 -0.68548,1.09140628 -1.49632,2.28203128 -1.80187,2.64583338 -0.50541,0.6017578 -0.50078,0.5659375 0.0512,-0.396875 2.21115,-3.85669173 14.20972,-22.6077784 18.87732,-29.5010424 5.62577,-8.308328 12.41277,-18.133879 14.16396,-20.505209 0.96719,-1.309687 2.34243,-3.214687 3.05609,-4.233333 2.29315,-3.273147 13.08498,-17.761406 15.51594,-20.830496 9.84633,-12.43095 14.09817,-17.647083 14.24521,-17.475911 0.0975,0.113523 3.65393,6.7757 7.90314,14.804838 l 7.72584,14.598431 -2.32684,3.393236 c -2.21673,3.232656 -5.52382,8.312713 -10.90721,16.754694 -2.68415,4.209162 -9.85374,15.946336 -12.04063,19.711459 -0.7607,1.309687 -2.82503,4.84296 -4.58739,7.851718 -2.97561,5.0800751 -5.91592,10.3411033 -8.85914,15.8514807 -0.66743,1.2495718 -2.72539,5.0000406 -4.57325,8.3343753 -1.84786,3.334334 -6.39641,11.896489 -10.10787,19.02701 -6.39489,12.285953 -8.30819,15.781049 -6.38302,11.660099 z m 59.71456,-1.125214 c 0.191,-0.07643 0.4192,-0.06703 0.50712,0.02089 0.0879,0.08792 -0.0684,0.150453 -0.34727,0.138964 -0.30822,-0.0127 -0.37092,-0.07539 -0.15985,-0.159852 z m 1.32292,-0.264584 c 0.19099,-0.07643 0.4192,-0.06703 0.50712,0.02089 0.0879,0.08792 -0.0684,0.150453 -0.34727,0.138965 -0.30822,-0.0127 -0.37092,-0.07539 -0.15985,-0.159853 z m 1.05833,-0.264583 c 0.191,-0.07643 0.4192,-0.06703 0.50712,0.02089 0.0879,0.08792 -0.0684,0.150453 -0.34727,0.138964 -0.30822,-0.0127 -0.37092,-0.07539 -0.15985,-0.159852 z m 1.05833,-0.264583 c 0.191,-0.07643 0.4192,-0.06703 0.50712,0.02089 0.0879,0.08792 -0.0683,0.150453 -0.34726,0.138964 -0.30823,-0.0127 -0.37092,-0.07539 -0.15986,-0.159852 z m 1.05834,-0.264584 c 0.19099,-0.07643 0.4192,-0.06703 0.50712,0.02089 0.0879,0.08792 -0.0684,0.150453 -0.34727,0.138965 -0.30822,-0.0127 -0.37092,-0.07539 -0.15985,-0.159853 z m 1.05833,-0.264583 c 0.191,-0.07643 0.4192,-0.06703 0.50712,0.02089 0.0879,0.08792 -0.0683,0.150453 -0.34727,0.138964 -0.30822,-0.0127 -0.37092,-0.07539 -0.15985,-0.159852 z m 1.24024,-0.348426 c 0.29104,-0.125065 0.70776,-0.227391 0.92604,-0.227391 0.25016,0 0.20125,0.08406 -0.13229,0.227391 -0.29105,0.125065 -0.70776,0.227391 -0.92605,0.227391 -0.25015,0 -0.20125,-0.08406 0.1323,-0.227391 z"
         id="path23" /><path
         style="fill:#c92335"
         d="m 137.91056,168.03637 c -14.7995,-11.81117 -27.05146,-21.61816 -27.22657,-21.79331 -0.24813,-0.24818 -0.21667,-0.59848 0.14259,-1.5875 1.04347,-2.87263 4.66085,-11.65877 8.9103,-21.64197 1.92021,-4.51114 4.34923,-10.22614 5.39781,-12.7 3.36007,-7.92722 14.79726,-33.058738 20.77074,-45.640624 1.48541,-3.128698 3.68951,-7.772136 4.89801,-10.31875 3.02896,-6.382786 11.37258,-22.838072 14.01934,-27.648959 1.2009,-2.182813 2.34611,-4.289795 2.54492,-4.682183 l 0.36146,-0.713432 21.03438,8.709714 c 11.56891,4.790342 21.33203,8.844213 21.69583,9.008601 0.63923,0.288845 0.59678,0.331548 -1.26331,1.270759 -1.71902,0.867975 -1.88872,1.020806 -1.5875,1.429629 0.31917,0.433195 0.47925,0.430539 2.98311,-0.0495 7.38074,-1.415035 17.41754,-4.690146 21.23281,-6.928481 0.47294,-0.277465 1.28218,-0.75576 1.79831,-1.062877 l 0.93842,-0.558396 -0.14226,0.624541 c -1.87253,8.22052 -4.79398,16.581009 -8.81654,25.230792 -5.24748,11.283772 -4.64351,10.178724 -8.31505,15.213542 -4.1103,5.636484 -4.51012,6.115603 -7.26634,8.707544 -4.83477,4.546588 -10.01169,8.105787 -16.62727,11.431463 -2.03729,1.024153 -3.80384,1.958566 -3.92566,2.076474 -1.30727,1.265285 7.07093,-0.860478 13.08025,-3.318793 3.67051,-1.501544 7.04886,-3.171013 9.97797,-4.930778 1.20958,-0.726695 2.26493,-1.25557 2.34522,-1.175276 0.18834,0.188339 -2.88005,5.54289 -5.36568,9.363475 -6.73281,10.348795 -14.33586,17.862735 -23.61258,23.335815 -1.69557,1.00035 -4.12465,2.33323 -5.39796,2.96195 -1.27331,0.62873 -2.3151,1.25101 -2.3151,1.38284 0,0.36199 2.2552,-0.008 6.41131,-1.05289 4.23875,-1.06529 7.19017,-2.05379 10.73109,-3.5941 1.35191,-0.58808 2.51295,-1.01432 2.58008,-0.94719 0.3584,0.35841 -8.56645,24.6243 -11.99779,32.62093 -3.00601,7.00541 -10.92689,23.42751 -11.80453,24.47395 -0.18307,0.21829 -0.78832,1.23032 -1.34501,2.24896 -0.55669,1.01865 -1.78069,3.04271 -2.71999,4.49792 -0.93931,1.45521 -1.8909,2.94349 -2.11464,3.30729 -0.6998,1.13787 -2.83098,3.96984 -2.96969,3.94622 -0.0728,-0.0124 -12.24098,-9.68622 -27.04048,-21.4974 z M 84.649995,138.32772 c -5.966354,-14.20357 -10.9491,-26.14986 -11.072768,-26.54731 -0.183413,-0.58947 0.07764,-1.44948 1.416507,-4.66661 3.745596,-9.000165 4.759661,-11.262051 11.910182,-26.565834 1.816359,-3.887433 9.164779,-18.349334 12.368552,-24.341667 3.504402,-6.554622 14.585542,-26.511632 17.335382,-31.220834 5.39286,-9.235437 12.14754,-20.4329686 13.27178,-22.001191 0.58985,-0.8227901 2.24651,-3.32310264 3.68147,-5.5562501 1.43497,-2.2331474 3.11727,-4.8142304 3.73845,-5.73574 l 1.12941,-1.6754719 3.01476,3.7921386 c 9.30995,11.7105843 20.74023,26.2185164 20.81118,26.4146744 0.0851,0.235182 -4.35004,9.333864 -8.25375,16.932673 -8.46992,16.487253 -26.79834,55.35158 -36.80938,78.052082 -3.30503,7.49433 -6.41765,14.50217 -6.91692,15.57298 -0.49927,1.07082 -1.87085,4.22598 -3.04796,7.01146 -1.94968,4.61369 -7.32486,16.91856 -8.800344,20.14577 -0.332662,0.72761 -1.055354,2.42425 -1.605982,3.77032 -0.550629,1.34606 -1.073483,2.44651 -1.161898,2.44543 -0.08841,-0.001 -5.042317,-11.62306 -11.008671,-25.82662 z"
         id="path22" /><path
         style="fill:#6c2c85"
         d="m -3.1474946,428.5412 c -0.1247859,-0.20749 0.035864,-0.74531 4.12939338,-13.82448 C 13.74041,373.95223 27.813008,330.29201 27.877365,331.27356 c 0.01073,0.16361 -0.165582,0.81845 -0.391798,1.45521 -0.226216,0.63676 -0.76103,2.33083 -1.188474,3.7646 l -0.777172,2.60685 0.915788,4.63904 c 0.503684,2.55147 0.9561,4.67935 1.005371,4.72862 0.04927,0.0493 0.604559,-1.39966 1.233975,-3.21985 0.629415,-1.82018 1.18263,-3.27119 1.229366,-3.22445 0.04674,0.0467 -2.10206,6.68845 -4.775102,14.75937 -7.268505,21.94635 -16.7963388,52.02007 -19.3336695,61.02492 -0.5246349,1.8619 -1.3236409,4.07901 -1.775569,4.92692 -1.0554029,1.98013 -3.18066605,4.09887 -5.1809161,5.16499 -1.7011799,0.90672 -1.8066325,0.94076 -1.986659,0.64142 z M 65.74449,315.47063 c -0.633901,-1.07637 -1.908834,-3.08813 -2.833183,-4.47058 -1.099964,-1.64509 -1.357539,-2.14788 -0.745499,-1.4552 0.514324,0.58208 1.602192,2.10013 2.417484,3.37343 0.815292,1.27331 1.582961,2.31511 1.705932,2.31511 0.227157,0 0.110641,-0.97162 -0.31729,-2.64584 -0.300572,-1.17594 -0.285259,-1.91601 0.02379,-1.14986 0.335301,0.83124 1.128681,5.30788 1.00595,5.67607 -0.05755,0.17265 -0.623283,-0.56675 -1.257184,-1.64313 z m -5.853063,-8.63776 -0.641433,-0.72761 0.727605,0.64144 c 0.680055,0.59951 0.848939,0.81377 0.641433,0.81377 -0.04739,0 -0.374816,-0.32742 -0.727605,-0.7276 z m -2.500612,-2.77813 -1.844987,-1.91823 1.918229,1.84499 c 1.055026,1.01474 1.918229,1.87795 1.918229,1.91823 0,0.19407 -0.277846,-0.0633 -1.991471,-1.84499 z m -2.540195,-2.24896 c -0.329107,-0.41964 -0.319749,-0.429 0.0999,-0.0999 0.254661,0.19972 0.463021,0.40808 0.463021,0.46302 0,0.21776 -0.217272,0.0776 -0.562916,-0.36313 z M 5.2749928,300.5597 c 0.4365625,-0.37907 2.8178125,-2.03691 5.2916672,-3.68408 5.585522,-3.71904 10.021892,-6.25872 9.523127,-5.4517 -0.08891,0.14385 -0.305039,0.26155 -0.480295,0.26155 -0.175255,0 -0.926464,0.40933 -1.669353,0.90962 l -1.350708,0.90962 0.265963,1.40548 c 0.14628,0.77302 0.347708,1.49757 0.447617,1.61012 0.09991,0.11254 1.043903,0.0233 2.097762,-0.19844 3.227207,-0.67886 2.732902,-0.41851 -1.028905,0.54193 -1.964531,0.50158 -5.655469,1.63182 -8.202083,2.51165 -5.9548682,2.05735 -5.8792552,2.03906 -4.8947922,1.18425 z m 51.4823482,-4.79524 c 0.0127,-0.30822 0.07539,-0.37092 0.159852,-0.15985 0.07643,0.191 0.06703,0.4192 -0.02089,0.50712 -0.08792,0.0879 -0.150453,-0.0684 -0.138964,-0.34727 z m -34.482869,-0.0209 c 0.181901,-0.0734 0.479558,-0.0734 0.661459,0 0.181901,0.0734 0.03307,0.13345 -0.330729,0.13345 -0.363802,0 -0.512631,-0.0601 -0.33073,-0.13345 z m 1.604037,-0.2701 c 0.190996,-0.0764 0.419199,-0.067 0.507118,0.0209 0.08792,0.0879 -0.06835,0.15045 -0.347266,0.13896 -0.308224,-0.0127 -0.370919,-0.0754 -0.159852,-0.15985 z m 1.443707,-0.2672 c 0.257431,-0.0671 0.614619,-0.0627 0.79375,0.01 0.179132,0.0725 -0.03149,0.12736 -0.468056,0.12197 -0.436562,-0.005 -0.583125,-0.0647 -0.325694,-0.13178 z m 32.542354,-0.007 c 0.402183,-0.0608 0.997495,-0.0592 1.322916,0.004 0.325421,0.0628 -0.0036,0.11256 -0.731242,0.11057 -0.727604,-0.002 -0.993857,-0.0534 -0.591674,-0.11418 z m -39.914716,-17.07421 -0.504028,-0.59531 0.595313,0.50403 c 0.559447,0.47366 0.715762,0.6866 0.504028,0.6866 -0.05021,0 -0.318097,-0.26789 -0.595313,-0.59532 z m -3.225108,-2.48891 c -1.351073,-1.10707 -2.413855,-2.05549 -2.361737,-2.10761 0.05212,-0.0521 1.09801,0.25232 2.324205,0.67654 1.226195,0.42421 2.095587,0.78026 1.931982,0.79121 -0.163605,0.011 -0.807256,-0.15994 -1.430335,-0.37978 -1.944664,-0.68612 -1.770795,-0.40666 1.463215,2.35178 0.436563,0.37237 0.734219,0.67786 0.661459,0.67887 -0.07276,10e-4 -1.237716,-0.90395 -2.588789,-2.01101 z m 8.360013,1.0514 c 0.190996,-0.0764 0.419199,-0.067 0.507118,0.0209 0.08792,0.0879 -0.06835,0.15045 -0.347266,0.13897 -0.308224,-0.0127 -0.370919,-0.0754 -0.159852,-0.15986 z m -5.027084,-1.32291 c 0.190997,-0.0764 0.4192,-0.067 0.507118,0.0209 0.08792,0.0879 -0.06835,0.15046 -0.347265,0.13897 -0.308225,-0.0127 -0.370919,-0.0754 -0.159853,-0.15985 z"
         id="path21" /><path
         style="fill:#a72055"
         d="m 70.619219,247.03703 c 0.09958,-0.25466 1.907504,-5.16599 4.017617,-10.91406 7.522028,-20.49045 15.532544,-41.25402 26.947904,-69.85 7.39935,-18.53571 15.62938,-38.21325 14.57243,-34.84185 -0.0828,0.26402 -0.73126,1.87137 -1.44107,3.57188 -1.75443,4.20308 -3.33359,8.12216 -3.89115,9.65682 -0.44746,1.23163 -0.44607,1.28904 0.0427,1.75409 0.92289,0.87816 54.13788,43.17625 54.21433,43.09242 0.51638,-0.56619 2.32692,-3.10178 3.17604,-4.44794 2.52913,-4.00956 3.37352,-5.29167 3.48508,-5.29167 0.0651,0 0.0289,0.14883 -0.0804,0.33073 -8.36766,13.92266 -16.95978,25.21594 -24.72577,32.49897 -15.01959,14.08555 -32.46348,24.66052 -49.257363,29.86118 -3.373359,1.04465 -9.992183,2.6612 -10.89603,2.6612 -0.08202,0 -0.149127,0.1786 -0.149127,0.39688 0,0.21828 -0.09436,0.39687 -0.209682,0.39687 -0.115325,0 -3.41931,0.35637 -7.342188,0.79194 -8.545257,0.94879 -8.706725,0.95514 -8.463281,0.33254 z M 54.806404,222.16611 C 49.160971,210.85191 44.547299,201.38736 44.5538,201.13376 c 0.0065,-0.25359 0.842608,-4.12312 1.858017,-8.59896 5.770841,-25.43736 13.363185,-49.18723 24.309368,-76.04297 2.565566,-6.29445 7.159581,-16.977207 7.697731,-17.900029 0.507407,-0.870103 0.269353,-0.08233 -0.479449,1.586609 -0.416571,0.92846 -1.618358,3.75867 -2.670637,6.28935 -1.565122,3.76404 -1.872615,4.7317 -1.689993,5.31826 0.445509,1.43093 21.923528,52.36642 22.082205,52.36832 0.08972,0.001 0.786829,-1.51609 1.549127,-3.37148 0.762297,-1.85539 1.470437,-3.4925 1.573643,-3.63802 0.103206,-0.14552 0.522747,-1.07278 0.932313,-2.06057 0.409565,-0.9878 0.786805,-1.75386 0.838305,-1.70236 0.0515,0.0515 -0.45337,1.39174 -1.121936,2.97829 -7.784782,18.47391 -19.763197,48.51767 -27.711313,69.50434 -3.512173,9.27375 -6.445301,16.86395 -6.518062,16.8671 -0.07276,0.003 -4.751282,-9.25134 -10.396715,-20.56553 z M 172.22708,178.70838 c 0.22576,-0.43656 0.47,-0.79375 0.54276,-0.79375 0.0728,0 -0.0524,0.35719 -0.27818,0.79375 -0.22575,0.43657 -0.46999,0.79375 -0.54275,0.79375 -0.0728,0 0.0524,-0.35718 0.27817,-0.79375 z m 1.19063,-2.11666 c 0.29695,-0.58209 0.59945,-1.05834 0.67221,-1.05834 0.0728,0 -0.11067,0.47625 -0.40763,1.05834 -0.29696,0.58208 -0.59945,1.05833 -0.67221,1.05833 -0.0728,0 0.11067,-0.47625 0.40763,-1.05833 z m -72.74167,-23.68021 c 0,-0.14552 0.17015,-0.56224 0.37812,-0.92604 0.20797,-0.3638 0.37813,-0.5424 0.37813,-0.39688 0,0.14552 -0.17016,0.56224 -0.37813,0.92604 -0.20797,0.36381 -0.37812,0.5424 -0.37812,0.39688 z m 0.79375,-1.85208 c 0,-0.14552 0.17015,-0.56224 0.37812,-0.92605 0.20797,-0.3638 0.37813,-0.54239 0.37813,-0.39687 0,0.14552 -0.17016,0.56224 -0.37813,0.92604 -0.20797,0.3638 -0.37812,0.5424 -0.37812,0.39688 z M 78.71905,97.878175 c 0,-0.145521 0.228144,-0.681302 0.506987,-1.190625 0.278842,-0.509323 0.506986,-0.806979 0.506986,-0.661459 0,0.145521 -0.228144,0.681303 -0.506986,1.190625 -0.278843,0.509323 -0.506987,0.80698 -0.506987,0.661459 z"
         id="path20" /><path
         style="fill:#7a267a"
         d="m 27.284382,347.9879 c -0.08078,-0.3342 -0.508748,-2.46415 -0.951042,-4.73321 l -0.804171,-4.12558 0.491227,-1.69526 c 1.750426,-6.04084 8.67353,-26.96489 12.7506,-38.53679 0.789916,-2.24201 1.056643,-3.32415 0.866265,-3.51453 -0.436989,-0.43699 -7.059117,-0.72806 -10.682059,-0.46952 -1.819011,0.12981 -5.149674,0.58495 -7.401473,1.01141 -2.2518,0.42647 -4.170274,0.68897 -4.263277,0.58333 -0.093,-0.10564 -0.288373,-0.82249 -0.434157,-1.593 l -0.265063,-1.40093 1.088756,-0.73563 c 3.563773,-2.4079 8.824308,-4.5139 14.251776,-5.70555 1.193967,-0.26215 0.834273,-0.83385 -0.926041,-1.47188 -1.872259,-0.6786 -6.016702,-2.76835 -8.018869,-4.04335 -2.899616,-1.84651 -8.733502,-6.38902 -8.958559,-6.97551 -0.164768,-0.42937 -0.122876,-0.43446 0.772936,-0.0939 1.559225,0.59282 8.121863,2.21993 10.846679,2.68927 3.394217,0.58465 9.586899,0.89918 11.1125,0.56442 1.292051,-0.28353 1.396619,-0.73835 0.930636,-4.04791 -1.887122,-13.40293 -8.256095,-27.87892 -20.420643,-46.41392 -1.138684,-1.73501 -2.040145,-3.18474 -2.003246,-3.22164 0.14993,-0.14993 7.529646,4.95654 10.552963,7.30223 3.986021,3.09262 8.678849,7.56809 10.692948,10.19767 0.831226,1.08524 1.658036,1.97316 1.837354,1.97316 0.217221,0 0.386978,-0.7285 0.50864,-2.18281 0.576665,-6.8933 2.221878,-19.56613 3.632379,-27.97969 0.890455,-5.31151 1.674917,-10.04424 1.743249,-10.51719 0.06833,-0.47294 0.201449,-0.85989 0.295816,-0.85989 0.172343,0 2.721249,5.03801 14.332506,28.32876 l 6.27459,12.58606 -1.43457,3.81811 c -6.560983,17.46208 -18.659169,51.24912 -25.478446,71.15457 -1.769783,5.16599 -3.684973,10.7024 -4.255979,12.30313 -0.571005,1.60073 -2.245089,6.36323 -3.720186,10.58333 -1.475098,4.2201 -2.712409,7.70823 -2.749582,7.75138 -0.03717,0.0432 -0.133678,-0.19496 -0.214457,-0.52916 z m 37.185103,-35.20191 c -3.583084,-5.44272 -7.21614,-9.51642 -10.355103,-11.61105 -1.104476,-0.73702 -2.042323,-1.37229 -2.084106,-1.41173 -0.304401,-0.28727 15.837252,-46.38919 17.779385,-50.77942 l 0.597849,-1.35145 7.921645,-0.85499 c 5.716344,-0.61697 8.177594,-0.78685 8.841035,-0.6102 3.838701,1.02208 15.18948,1.37267 21.56311,0.66601 12.79116,-1.41817 25.69164,-7.39994 36.51973,-16.93367 1.56788,-1.38047 2.89786,-2.46278 2.9555,-2.40514 0.23355,0.23355 -4.90518,9.12155 -7.28336,12.59737 -8.69655,12.71039 -19.52341,21.5653 -35.42339,28.97156 -2.65853,1.23835 -3.3844,1.85088 -2.56567,2.16505 0.64083,0.24591 8.05857,-0.16185 10.38497,-0.57087 5.56987,-0.97928 9.2628,-2.72371 13.33152,-6.29742 0.98227,-0.86276 1.78594,-1.48491 1.78594,-1.38257 0,0.10234 -0.64507,1.335 -1.43348,2.73923 -4.96232,8.83832 -13.06816,16.3966 -22.85666,21.31268 -11.106615,5.57808 -26.61517,8.67371 -41.591114,8.30191 -5.250602,-0.13035 -5.820833,-0.0951 -5.820833,0.35965 0,0.14147 0.873386,1.2684 1.940859,2.50429 3.376596,3.90935 6.293891,9.6578 7.303991,14.39232 0.170756,0.80037 0.365444,1.7231 0.43264,2.05053 0.232013,1.13051 -0.338969,0.58665 -1.944458,-1.85209 z"
         id="path19" /></g></g></svg>
