<?xml version="1.0" standalone="no"?>
<!DOCTYPE svg PUBLIC "-//W3C//DTD SVG 20010904//EN"
 "http://www.w3.org/TR/2001/REC-SVG-20010904/DTD/svg10.dtd">
<svg version="1.0" xmlns="http://www.w3.org/2000/svg"
 width="348.000000pt" height="348.000000pt" viewBox="0 0 348.000000 348.000000"
 preserveAspectRatio="xMidYMid meet">
<metadata>
Created by potrace 1.16, written by Peter Selinger 2001-2019
</metadata>
<g transform="translate(0.000000,348.000000) scale(0.100000,-0.100000)"
fill="#000000" stroke="none">
<path d="M2580 2988 c0 -6 -3 -8 -6 -5 -6 6 -84 -51 -175 -128 -20 -16 -66
-55 -103 -85 -82 -68 -139 -121 -288 -266 -64 -63 -121 -114 -128 -114 -6 0
-9 -4 -6 -9 7 -11 -18 -33 -27 -25 -3 4 -4 19 -1 34 7 31 -5 42 -50 47 -29 3
-29 3 -11 -17 10 -12 25 -18 32 -16 19 8 16 -11 -4 -24 -13 -8 -15 -13 -5 -17
10 -4 10 -8 1 -19 -6 -8 -16 -14 -21 -14 -6 0 -5 7 2 15 10 12 10 15 0 15 -9
0 -10 3 -1 13 8 11 5 19 -14 37 -20 18 -22 26 -13 37 6 8 21 12 32 9 19 -5 19
-4 -3 15 -28 23 -64 25 -86 3 -9 -9 -19 -14 -22 -11 -6 6 57 63 67 60 3 -1 5
12 6 27 1 24 -2 28 -16 20 -9 -5 -22 -16 -30 -24 -7 -9 -18 -16 -24 -16 -15 0
-61 -48 -69 -72 -4 -10 -13 -18 -20 -18 -8 0 -20 -7 -27 -15 -7 -8 -16 -12
-21 -9 -5 3 -23 -11 -40 -31 -18 -20 -39 -35 -47 -33 -21 4 -192 -170 -185
-188 3 -9 -2 -14 -14 -14 -26 0 -67 -36 -58 -50 7 -11 -88 -110 -106 -110 -5
0 -9 -8 -9 -19 0 -10 -16 -31 -36 -46 -19 -15 -33 -33 -30 -40 5 -14 -23 -45
-41 -45 -6 0 -13 -14 -17 -31 -4 -19 -13 -33 -26 -36 -11 -3 -20 -13 -20 -22
0 -9 -8 -23 -19 -30 -11 -8 -16 -21 -14 -32 4 -14 0 -19 -17 -19 -15 0 -20 -5
-17 -14 9 -22 -16 -66 -36 -66 -14 0 -16 -5 -11 -25 3 -14 2 -25 -3 -25 -5 0
-15 -16 -23 -35 -8 -19 -17 -35 -22 -35 -4 0 -8 -7 -8 -16 0 -9 -5 -12 -12 -8
-8 5 -9 2 -5 -9 3 -9 2 -19 -3 -22 -6 -4 -10 -20 -10 -36 0 -17 -4 -28 -10
-24 -6 3 -7 -1 -4 -9 4 -9 -1 -18 -10 -22 -11 -4 -14 -13 -10 -30 4 -15 2 -24
-5 -24 -32 0 2 -55 49 -80 34 -18 15 -24 -21 -6 -18 9 -43 16 -57 16 -22 0
-24 -3 -18 -30 3 -17 1 -30 -4 -30 -6 0 -10 -16 -10 -35 0 -19 -4 -35 -10 -35
-5 0 -10 -14 -10 -30 0 -30 37 -80 59 -80 15 0 29 -30 24 -50 -3 -10 6 -29 21
-43 14 -14 26 -31 26 -37 0 -15 -20 -12 -26 5 -4 9 -19 15 -41 15 -24 0 -33
-4 -29 -12 3 -7 9 -21 12 -30 4 -10 12 -18 18 -18 16 0 38 -40 39 -74 1 -14 5
-26 10 -26 4 0 7 -7 7 -15 0 -8 -4 -15 -10 -15 -5 0 -10 -9 -10 -20 0 -11 -4
-20 -10 -20 -5 0 -12 -27 -16 -60 -3 -33 -10 -57 -15 -54 -5 3 -9 -13 -9 -36
0 -29 -4 -39 -12 -34 -8 5 -10 -7 -5 -44 3 -29 2 -54 -4 -57 -11 -8 -12 -115
0 -115 5 0 6 -21 3 -46 -5 -45 -5 -46 24 -42 26 3 29 7 32 46 2 23 7 42 13 42
5 0 9 25 9 56 0 39 3 53 11 48 9 -5 10 3 5 30 -4 23 -3 36 4 36 5 0 10 16 10
35 0 19 5 35 10 35 6 0 10 16 10 36 0 19 4 33 9 30 5 -3 12 16 16 44 4 28 11
47 16 44 5 -3 9 4 9 16 0 12 5 18 10 15 6 -3 10 -1 10 4 0 6 11 11 25 11 14 0
25 5 25 10 0 6 12 10 28 10 35 1 74 33 66 54 -3 9 -2 16 4 16 5 0 21 12 35 26
15 15 32 24 39 22 13 -5 130 106 121 115 -9 10 22 47 39 47 11 0 20 11 24 27
9 32 28 55 39 45 5 -4 5 1 1 12 -6 17 24 56 45 56 4 0 5 9 2 20 -3 11 0 20 6
20 6 0 11 6 11 14 0 8 9 21 20 29 11 8 17 17 13 20 -3 4 3 15 14 24 11 10 23
28 27 41 4 12 12 22 17 22 5 0 9 7 9 15 0 8 11 22 25 31 14 9 25 24 25 34 0
10 9 22 21 25 13 4 18 12 15 22 -8 20 11 43 35 43 16 0 18 5 13 25 -5 22 -2
28 25 38 21 8 29 16 26 27 -3 9 4 22 16 30 44 31 69 60 69 78 0 11 9 22 20 25
13 3 18 11 14 20 -3 10 2 21 14 28 11 7 18 18 16 24 -3 6 31 45 75 87 43 42
77 79 74 82 -3 2 10 21 28 41 18 20 42 51 54 69 18 31 69 100 98 136 31 38 65
86 70 101 4 13 1 15 -13 12 -10 -3 -21 -14 -23 -25 -3 -11 -10 -17 -17 -13 -6
3 -20 -4 -31 -17 l-20 -23 5 28 c5 20 2 27 -8 27 -8 0 -16 8 -19 18 -2 9 -4
-1 -4 -23 0 -22 7 -48 15 -57 20 -23 0 -23 -20 0 -11 11 -15 34 -14 68 1 43
-2 50 -16 46 -12 -3 -16 -14 -15 -40 1 -19 -3 -37 -9 -39 -6 -2 -10 16 -10 48
1 33 -4 54 -11 56 -7 3 -13 -2 -13 -9 0 -8 -18 -32 -40 -53 -22 -21 -40 -34
-40 -29 0 6 11 21 25 34 14 13 25 30 25 38 0 16 414 439 472 482 68 50 221
200 204 200 -9 0 -16 -5 -16 -12z"/>
</g>
</svg>
