<?xml version="1.0" encoding="UTF-8"?>
<svg version="1.1" xmlns="http://www.w3.org/2000/svg" width="512" height="512">
<path d="M0 0 C0.88913086 0.47260254 1.77826172 0.94520508 2.69433594 1.43212891 C14.68011693 7.82195377 26.54873185 14.40675982 38.35375977 21.1237793 C46.18530496 25.56910717 54.09419135 29.86014737 62.02392578 34.12719727 C68.85679918 37.81362929 75.62903011 41.59462336 82.375 45.4375 C90.52203855 50.07694148 98.73313871 54.57772132 107 59 C118.25600797 65.02674667 129.41949135 71.19848144 140.49072266 77.55859375 C142.09256821 78.47874321 143.6962329 79.39573789 145.30224609 80.30859375 C162.33870651 90.01050344 173.74191451 101.14732876 180.04805088 120.15978241 C181.05917232 124.23870456 181.28791149 128.01211288 181.27415466 132.1817627 C181.27939134 132.97753644 181.28462802 133.77331019 181.29002339 134.5931983 C181.30495902 137.24512656 181.30572713 139.89686078 181.30639648 142.54882812 C181.31402255 144.45653608 181.32245082 146.36424097 181.33161926 148.27194214 C181.35353302 153.44592947 181.36235953 158.61985769 181.36744571 163.79388618 C181.37109442 167.03184326 181.37733731 170.26978499 181.3844471 173.50773621 C181.40893537 184.819943 181.42199116 196.132104 181.42553711 207.44433594 C181.42916696 217.96152027 181.4590246 228.47841181 181.50094169 238.99550676 C181.53573368 248.04464981 181.55108713 257.09369629 181.55178314 266.14290571 C181.55257323 271.53859473 181.56118726 276.93398564 181.58978081 282.3296051 C181.61611277 287.41215671 181.61808278 292.49416636 181.60212517 297.57675552 C181.60032238 299.43136409 181.6068943 301.2860049 181.62294388 303.14054489 C181.77295507 321.61665974 177.82274857 336.88354884 164.75 350.75 C156.56185503 358.43150236 146.40586438 363.56711461 136.625 368.9375 C135.44823092 369.58700576 134.27164039 370.2368351 133.09521484 370.88696289 C130.63749584 372.24436133 128.17863269 373.59965163 125.71875 374.953125 C122.08126633 376.95459757 118.4465896 378.96112301 114.8125 380.96875 C106.9331543 385.32062526 99.05001234 389.66560447 91.16674805 394.01037598 C86.90256088 396.36059236 82.63860307 398.71122414 78.375 401.0625 C77.47325043 401.55978104 77.47325043 401.55978104 76.55328369 402.06710815 C67.85989085 406.86199883 59.17661465 411.67479483 50.5 416.5 C39.85239043 422.42063688 29.20076343 428.33409093 18.52392578 434.2019043 C17.3245357 434.86114977 16.1251541 435.52041068 14.92578125 436.1796875 C14.34082886 436.5011525 13.75587646 436.82261749 13.15319824 437.15382385 C9.31101915 439.26869222 5.48627205 441.41269104 1.66796875 443.5703125 C0.68481689 444.12050049 -0.29833496 444.67068848 -1.3112793 445.23754883 C-3.1084633 446.24350406 -4.90083992 447.2581292 -6.68676758 448.28393555 C-21.59887996 456.57869573 -37.80959921 457.55946489 -54.28515625 454.14453125 C-64.15114043 451.10485369 -73.20207799 445.88546113 -82.25 441 C-82.85804474 440.67297089 -83.46608948 440.34594177 -84.09255981 440.00900269 C-93.19852193 435.11132882 -102.23195944 430.09583212 -111.21728516 424.97973633 C-118.81929017 420.65341864 -126.46321271 416.40662255 -134.125 412.1875 C-134.73300446 411.85260559 -135.34100891 411.51771118 -135.96743774 411.17266846 C-139.06770941 409.46524873 -142.16846767 407.75871533 -145.26953125 406.05273438 C-151.39036212 402.6852378 -157.50792388 399.31181117 -163.625 395.9375 C-164.22447449 395.60682526 -164.82394897 395.27615051 -165.44158936 394.93545532 C-176.43679811 388.86953515 -187.42346395 382.78839426 -198.390625 376.671875 C-202.86663461 374.17752899 -207.35733945 371.71266197 -211.859375 369.265625 C-213.53241699 368.34837646 -213.53241699 368.34837646 -215.23925781 367.41259766 C-217.3274307 366.26782363 -219.42015257 365.13128501 -221.51855469 364.00537109 C-238.98640492 354.37944551 -250.38704392 341.71773816 -256.04263306 322.44743347 C-257.72157266 314.69768469 -257.29562853 306.64938356 -257.29052734 298.7590332 C-257.29651835 296.90852082 -257.30332521 295.05801092 -257.31088257 293.20750427 C-257.32849306 288.19897901 -257.3332359 283.19052216 -257.33451414 278.18196893 C-257.33593928 275.04685973 -257.34021579 271.91176774 -257.34550858 268.77666283 C-257.36399357 257.82220742 -257.37218124 246.86780057 -257.37060547 235.91333008 C-257.36940499 225.73012875 -257.39049291 215.54713968 -257.4220928 205.36399204 C-257.44831639 196.59847376 -257.45897019 187.83302455 -257.45769465 179.06746739 C-257.45718674 173.84235516 -257.46277483 168.61743165 -257.48405075 163.39235878 C-257.5035355 158.47316859 -257.50348812 153.55434514 -257.48901749 148.63514137 C-257.48694082 146.8397823 -257.49156131 145.04439964 -257.5037384 143.24908066 C-257.62370491 124.32113545 -253.66672897 108.87943391 -240.63671875 94.484375 C-233.08498651 87.36896507 -224.73178282 82.39209455 -215.625 77.5 C-214.34016644 76.80176557 -213.05583315 76.10260991 -211.77197266 75.40258789 C-209.13665006 73.96618297 -206.49958352 72.53306105 -203.86132812 71.10205078 C-198.00927274 67.9224827 -192.19297481 64.67893089 -186.375 61.4375 C-184.14330605 60.19647632 -181.91153519 58.95559093 -179.6796875 57.71484375 C-178.57850586 57.10237793 -177.47732422 56.48991211 -176.34277344 55.85888672 C-169.60320578 52.1110728 -162.86144735 48.36720096 -156.12011719 44.62255859 C-150.51947528 41.51136073 -144.91933207 38.39927293 -139.3203125 35.28515625 C-130.13155839 30.17559719 -120.94253265 25.06671535 -111.734375 19.9921875 C-111.12740784 19.65763046 -110.52044067 19.32307343 -109.89508057 18.9783783 C-106.84270752 17.29625455 -103.78955177 15.61557147 -100.73535156 13.93676758 C-94.80007807 10.67100544 -88.88420214 7.37660772 -83 4.01953125 C-81.88318848 3.38474854 -80.76637695 2.74996582 -79.61572266 2.09594727 C-77.53312373 0.90967859 -75.45432266 -0.28329631 -73.38037109 -1.48461914 C-48.36767218 -15.70949619 -24.59843262 -13.12015314 0 0 Z " fill="#0D1117" transform="translate(294,34)"/>
<path d="M0 0 C0.88913086 0.47260254 1.77826172 0.94520508 2.69433594 1.43212891 C14.68011693 7.82195377 26.54873185 14.40675982 38.35375977 21.1237793 C46.18530496 25.56910717 54.09419135 29.86014737 62.02392578 34.12719727 C68.85679918 37.81362929 75.62903011 41.59462336 82.375 45.4375 C90.52203855 50.07694148 98.73313871 54.57772132 107 59 C118.25600797 65.02674667 129.41949135 71.19848144 140.49072266 77.55859375 C142.09256821 78.47874321 143.6962329 79.39573789 145.30224609 80.30859375 C162.33870651 90.01050344 173.74191451 101.14732876 180.04805088 120.15978241 C181.05917232 124.23870456 181.28791149 128.01211288 181.27415466 132.1817627 C181.27939134 132.97753644 181.28462802 133.77331019 181.29002339 134.5931983 C181.30495902 137.24512656 181.30572713 139.89686078 181.30639648 142.54882812 C181.31402255 144.45653608 181.32245082 146.36424097 181.33161926 148.27194214 C181.35353302 153.44592947 181.36235953 158.61985769 181.36744571 163.79388618 C181.37109442 167.03184326 181.37733731 170.26978499 181.3844471 173.50773621 C181.40893537 184.819943 181.42199116 196.132104 181.42553711 207.44433594 C181.42916696 217.96152027 181.4590246 228.47841181 181.50094169 238.99550676 C181.53573368 248.04464981 181.55108713 257.09369629 181.55178314 266.14290571 C181.55257323 271.53859473 181.56118726 276.93398564 181.58978081 282.3296051 C181.61611277 287.41215671 181.61808278 292.49416636 181.60212517 297.57675552 C181.60032238 299.43136409 181.6068943 301.2860049 181.62294388 303.14054489 C181.77295507 321.61665974 177.82274857 336.88354884 164.75 350.75 C156.56185503 358.43150236 146.40586438 363.56711461 136.625 368.9375 C135.44823092 369.58700576 134.27164039 370.2368351 133.09521484 370.88696289 C130.63749584 372.24436133 128.17863269 373.59965163 125.71875 374.953125 C122.08126633 376.95459757 118.4465896 378.96112301 114.8125 380.96875 C106.9331543 385.32062526 99.05001234 389.66560447 91.16674805 394.01037598 C86.90256088 396.36059236 82.63860307 398.71122414 78.375 401.0625 C77.47325043 401.55978104 77.47325043 401.55978104 76.55328369 402.06710815 C67.85989085 406.86199883 59.17661465 411.67479483 50.5 416.5 C39.85239043 422.42063688 29.20076343 428.33409093 18.52392578 434.2019043 C17.3245357 434.86114977 16.1251541 435.52041068 14.92578125 436.1796875 C14.34082886 436.5011525 13.75587646 436.82261749 13.15319824 437.15382385 C9.31101915 439.26869222 5.48627205 441.41269104 1.66796875 443.5703125 C0.68481689 444.12050049 -0.29833496 444.67068848 -1.3112793 445.23754883 C-3.1084633 446.24350406 -4.90083992 447.2581292 -6.68676758 448.28393555 C-21.59887996 456.57869573 -37.80959921 457.55946489 -54.28515625 454.14453125 C-64.15114043 451.10485369 -73.20207799 445.88546113 -82.25 441 C-82.85804474 440.67297089 -83.46608948 440.34594177 -84.09255981 440.00900269 C-93.19852193 435.11132882 -102.23195944 430.09583212 -111.21728516 424.97973633 C-118.81929017 420.65341864 -126.46321271 416.40662255 -134.125 412.1875 C-134.73300446 411.85260559 -135.34100891 411.51771118 -135.96743774 411.17266846 C-139.06770941 409.46524873 -142.16846767 407.75871533 -145.26953125 406.05273438 C-151.39036212 402.6852378 -157.50792388 399.31181117 -163.625 395.9375 C-164.22447449 395.60682526 -164.82394897 395.27615051 -165.44158936 394.93545532 C-176.43679811 388.86953515 -187.42346395 382.78839426 -198.390625 376.671875 C-202.86663461 374.17752899 -207.35733945 371.71266197 -211.859375 369.265625 C-213.53241699 368.34837646 -213.53241699 368.34837646 -215.23925781 367.41259766 C-217.3274307 366.26782363 -219.42015257 365.13128501 -221.51855469 364.00537109 C-238.98640492 354.37944551 -250.38704392 341.71773816 -256.04263306 322.44743347 C-257.72157266 314.69768469 -257.29562853 306.64938356 -257.29052734 298.7590332 C-257.29651835 296.90852082 -257.30332521 295.05801092 -257.31088257 293.20750427 C-257.32849306 288.19897901 -257.3332359 283.19052216 -257.33451414 278.18196893 C-257.33593928 275.04685973 -257.34021579 271.91176774 -257.34550858 268.77666283 C-257.36399357 257.82220742 -257.37218124 246.86780057 -257.37060547 235.91333008 C-257.36940499 225.73012875 -257.39049291 215.54713968 -257.4220928 205.36399204 C-257.44831639 196.59847376 -257.45897019 187.83302455 -257.45769465 179.06746739 C-257.45718674 173.84235516 -257.46277483 168.61743165 -257.48405075 163.39235878 C-257.5035355 158.47316859 -257.50348812 153.55434514 -257.48901749 148.63514137 C-257.48694082 146.8397823 -257.49156131 145.04439964 -257.5037384 143.24908066 C-257.62370491 124.32113545 -253.66672897 108.87943391 -240.63671875 94.484375 C-233.08498651 87.36896507 -224.73178282 82.39209455 -215.625 77.5 C-214.34016644 76.80176557 -213.05583315 76.10260991 -211.77197266 75.40258789 C-209.13665006 73.96618297 -206.49958352 72.53306105 -203.86132812 71.10205078 C-198.00927274 67.9224827 -192.19297481 64.67893089 -186.375 61.4375 C-184.14330605 60.19647632 -181.91153519 58.95559093 -179.6796875 57.71484375 C-178.57850586 57.10237793 -177.47732422 56.48991211 -176.34277344 55.85888672 C-169.60320578 52.1110728 -162.86144735 48.36720096 -156.12011719 44.62255859 C-150.51947528 41.51136073 -144.91933207 38.39927293 -139.3203125 35.28515625 C-130.13155839 30.17559719 -120.94253265 25.06671535 -111.734375 19.9921875 C-111.12740784 19.65763046 -110.52044067 19.32307343 -109.89508057 18.9783783 C-106.84270752 17.29625455 -103.78955177 15.61557147 -100.73535156 13.93676758 C-94.80007807 10.67100544 -88.88420214 7.37660772 -83 4.01953125 C-81.88318848 3.38474854 -80.76637695 2.74996582 -79.61572266 2.09594727 C-77.53312373 0.90967859 -75.45432266 -0.28329631 -73.38037109 -1.48461914 C-48.36767218 -15.70949619 -24.59843262 -13.12015314 0 0 Z M-95.45654297 23.01660156 C-101.08823336 26.17090312 -106.73195214 29.30357753 -112.375 32.4375 C-113.48270752 33.05310791 -114.59041504 33.66871582 -115.73168945 34.30297852 C-124.58820566 39.22269759 -133.4578905 44.11826902 -142.33044434 49.00897217 C-153.32712302 55.07105554 -164.30829635 61.16068139 -175.28125 67.265625 C-179.88159811 69.82466975 -184.48611308 72.37599323 -189.09375 74.921875 C-195.7400414 78.59519255 -202.37421697 82.28982202 -209 86 C-209.88558594 86.4940332 -210.77117187 86.98806641 -211.68359375 87.49707031 C-226.63017583 95.8735316 -239.13213984 104.50080404 -244.4921875 121.734375 C-245.75643416 127.37486009 -246.14775527 132.93876613 -246.14044189 138.70169067 C-246.14341302 139.44578937 -246.14638414 140.18988807 -246.1494453 140.95653522 C-246.15807092 143.43343745 -246.15963531 145.91029101 -246.16113281 148.38720703 C-246.16576538 150.17008058 -246.17079063 151.95295315 -246.17617798 153.73582458 C-246.18926268 158.56877307 -246.19573937 163.40170769 -246.20018864 168.23467112 C-246.20312602 171.25886501 -246.2072321 174.28305516 -246.21169281 177.30724716 C-246.22535806 186.78301161 -246.23502919 196.25876745 -246.2388947 205.73454106 C-246.24337167 216.64717323 -246.26090694 227.55967991 -246.2898953 238.47227395 C-246.3115627 246.92435558 -246.32160169 255.37640203 -246.32293582 263.82851112 C-246.32398032 268.86859399 -246.32981222 273.90855875 -246.34775543 278.94861221 C-246.36432356 283.69453371 -246.3663495 288.44024941 -246.35761642 293.18618965 C-246.35685068 294.91907747 -246.36112705 296.65197676 -246.37107468 298.3848362 C-246.46200556 315.22490918 -244.53476694 330.12721875 -232.6875 343.0625 C-225.95588717 349.4051752 -218.07472507 353.61754404 -210 358 C-209.06720215 358.50966309 -208.1344043 359.01932617 -207.17333984 359.54443359 C-202.06988637 362.33034441 -196.95663861 365.0974939 -191.8359375 367.8515625 C-184.69867628 371.69363813 -177.61724768 375.63227886 -170.54003906 379.58349609 C-165.3847319 382.4584569 -160.222924 385.32173746 -155.0625 388.1875 C-152.72783338 389.48431888 -150.39318872 390.78117716 -148.05859375 392.078125 C-147.47310257 392.40337662 -146.88761139 392.72862823 -146.28437805 393.06373596 C-142.28402309 395.28617834 -138.2844426 397.51001002 -134.28515625 399.734375 C-125.10812721 404.83743581 -115.93075625 409.93969026 -106.734375 415.0078125 C-106.12749847 415.34236954 -105.52062195 415.67692657 -104.89535522 416.0216217 C-101.84186638 417.70455559 -98.78728449 419.38545898 -95.73095703 421.06323242 C-89.81243688 424.31631903 -83.92050142 427.60574405 -78.0703125 430.98046875 C-76.96252441 431.61525146 -75.85473633 432.25003418 -74.71337891 432.90405273 C-72.65467745 434.08668772 -70.60167136 435.279327 -68.55615234 436.48461914 C-58.85988714 442.03690316 -48.97359827 445.78891378 -37.6875 445.25 C-36.93533203 445.23195313 -36.18316406 445.21390625 -35.40820312 445.1953125 C-33.60487873 445.14936793 -31.80223536 445.07770117 -30 445 C-31.75716525 443.1715295 -33.28255136 441.81887733 -35.4375 440.4375 C-40.6959193 435.43558895 -42.157164 429.19400252 -42.45547092 422.05545807 C-42.53821447 418.04980849 -42.52569254 414.04722997 -42.50170898 410.04101562 C-42.50549723 408.2331246 -42.51100142 406.42523648 -42.51808167 404.61735535 C-42.53198759 399.73094367 -42.52090074 394.84488603 -42.50437045 389.95849419 C-42.49046791 384.83157992 -42.49698594 379.70468513 -42.50050354 374.57775879 C-42.50320155 365.96991303 -42.48976523 357.36220703 -42.46655273 348.75439453 C-42.43994563 338.8193436 -42.43819747 328.88452627 -42.4499411 318.94945192 C-42.4607409 309.37062387 -42.45451453 299.79187987 -42.44038582 290.21305847 C-42.43464512 286.14631653 -42.43469358 282.07963648 -42.43945122 278.01289368 C-42.44424291 273.21929839 -42.43402891 268.42595709 -42.41249657 263.63241005 C-42.4069583 261.87892323 -42.40643601 260.12541185 -42.41144943 258.37192345 C-42.44695613 244.16582965 -41.24621083 232.45263013 -30.90307617 221.85058594 C-24.69735844 216.12183606 -18.25559683 211.87848097 -10.875 207.8125 C-9.14449276 206.83713883 -7.41399735 205.8617555 -5.68441772 204.88475037 C-3.92625438 203.8930951 -2.16536055 202.90641511 -0.40429688 201.91992188 C4.72425494 199.02757166 9.79851302 196.04495742 14.875 193.0625 C24.69159183 187.31961482 34.55725096 181.66466731 44.43701172 176.03149414 C53.37222147 170.93609334 62.28530637 165.80314452 71.19067383 160.65576172 C79.89809502 155.62657234 88.62952912 150.64032642 97.36486816 145.65988159 C104.35433519 141.67341293 111.32528419 137.66043417 118.25 133.5625 C123.69361363 130.34938144 129.14199941 127.1455576 134.625 124 C135.26469727 123.62560791 135.90439453 123.25121582 136.56347656 122.86547852 C143.00292024 119.20145205 149.55478399 117.06016997 157 118 C162.2320078 119.68488387 165.35294941 121.91088267 169 126 C168.27505201 114.88413079 161.91493372 106.44652338 154 99 C147.52368687 93.48357778 140.13918944 89.58938359 132.6875 85.5625 C131.39674838 84.85878235 130.1063908 84.15434152 128.81640625 83.44921875 C126.16828447 82.00198512 123.51885942 80.55718044 120.86865234 79.11376953 C115.05923046 75.94494471 109.28051256 72.72120165 103.5 69.5 C94.17743819 64.31366312 84.84301199 59.1493585 75.5 54 C66.15698442 48.85063952 56.82308246 43.68540577 47.5 38.5 C35.06926709 31.58774945 22.625225 24.70012945 10.16226196 17.84617615 C6.29994702 15.72055822 2.44711875 13.57847583 -1.40234375 11.4296875 C-3.35149242 10.34883194 -5.30070709 9.26809539 -7.25 8.1875 C-8.11214111 7.70192627 -8.97428223 7.21635254 -9.86254883 6.71606445 C-41.46805481 -10.72501732 -67.5544164 7.38385576 -95.45654297 23.01660156 Z " fill="#2B333A" transform="translate(294,34)"/>
<path d="M0 0 C0 4.62 0 9.24 0 14 C1.65 13.34 3.3 12.68 5 12 C7.640625 11.76953125 7.640625 11.76953125 10.25 11.8125 C11.12140625 11.81894531 11.9928125 11.82539063 12.890625 11.83203125 C15 12 15 12 16 13 C15.95019599 18.80216715 14.84229146 23.94703741 12 29 C9.28289061 29.98646647 6.61781765 30.13197191 3.75 30.3125 C-2.45203274 30.9766386 -7.17650168 33.03623258 -11.4375 37.625 C-13.56226063 40.85463615 -14.17526646 42.66367835 -14.25 46.5 C-14.27578125 47.2940625 -14.3015625 48.088125 -14.328125 48.90625 C-14.21984375 49.5971875 -14.1115625 50.288125 -14 51 C-9.67385686 53.88409542 -5.02350905 53.69082209 0.04492188 54.03515625 C5.60856612 54.52702138 10.37573092 55.73880936 15 59 C19.86034007 64.894023 20.49415975 71.62767079 20 79 C18.54212461 91.81018377 11.32765509 102.4776101 2 111 C1.34 111 0.68 111 0 111 C0.15855469 111.556875 0.31710937 112.11375 0.48046875 112.6875 C1.39998421 116.78038084 1.50024034 120.83827824 1 125 C-0.6875 127.4375 -0.6875 127.4375 -3 129 C-3.825 129.5775 -4.65 130.155 -5.5 130.75 C-8 132 -8 132 -12 132 C-12.495 125.565 -12.495 125.565 -13 119 C-14.299375 119.350625 -15.59875 119.70125 -16.9375 120.0625 C-21.9251103 121.19460837 -25.97259583 120.79800066 -31 120 C-32.21343812 116.35968563 -31.6723256 114.68930241 -30.75 111 C-30.49734375 109.948125 -30.2446875 108.89625 -29.984375 107.8125 C-28.51685718 103.61959195 -28.51685718 103.61959195 -26 102 C-23.3984375 101.84765625 -23.3984375 101.84765625 -20.375 102.0625 C-12.85977866 102.24424659 -7.89339528 100.3901961 -2.125 95.625 C2.41601621 90.01550939 3.46159327 86.03929732 3 79 C2.67 78.01 2.34 77.02 2 76 C0.80503906 75.89042969 -0.38992188 75.78085937 -1.62109375 75.66796875 C-21.29669075 73.75374278 -21.29669075 73.75374278 -27.4375 69.1875 C-31.61349689 63.34110435 -31.69050042 56.93156188 -31 50 C-28.85323987 38.81782539 -23.46504203 29.63617333 -15 22 C-14.34 22 -13.68 22 -13 22 C-13.04640625 20.96359375 -13.0928125 19.9271875 -13.140625 18.859375 C-13.17815275 17.48961221 -13.21455184 16.11981818 -13.25 14.75 C-13.28351563 14.06808594 -13.31703125 13.38617188 -13.3515625 12.68359375 C-13.41880726 9.22048846 -13.30631954 7.3912653 -11.140625 4.625 C-5.04807692 0 -5.04807692 0 0 0 Z " fill="#0D1117" transform="translate(322,280)"/>
<path d="M0 0 C0 4.29 0 8.58 0 13 C-0.78536133 13.44802979 -1.57072266 13.89605957 -2.37988281 14.35766602 C-5.35475347 16.05512564 -8.32932549 17.75310642 -11.30371094 19.45141602 C-12.57963736 20.17980803 -13.85567509 20.90800511 -15.13183594 21.63598633 C-16.37162299 22.34325067 -17.6112472 23.05080055 -18.85070801 23.75863647 C-20.08558295 24.46377651 -21.32085348 25.16822424 -22.55651855 25.87197876 C-25.55342448 27.58282771 -28.53600624 29.31219226 -31.49414062 31.08935547 C-33.09805664 32.04865967 -33.09805664 32.04865967 -34.734375 33.02734375 C-35.68022461 33.600896 -36.62607422 34.17444824 -37.60058594 34.76538086 C-40 36 -40 36 -43 36 C-43 31.71 -43 27.42 -43 23 C-32.30865767 16.84925788 -21.60040441 10.7301651 -10.8125 4.75 C-9.53101074 4.03396606 -9.53101074 4.03396606 -8.22363281 3.3034668 C-7.4344043 2.8681665 -6.64517578 2.43286621 -5.83203125 1.984375 C-5.13827393 1.59991211 -4.4445166 1.21544922 -3.72973633 0.81933594 C-2 0 -2 0 0 0 Z " fill="#46AD52" transform="translate(405,360)"/>
</svg>
