<?xml version="1.0" standalone="no"?>
<!DOCTYPE svg PUBLIC "-//W3C//DTD SVG 20010904//EN"
 "http://www.w3.org/TR/2001/REC-SVG-20010904/DTD/svg10.dtd">
<svg version="1.0" xmlns="http://www.w3.org/2000/svg"
 width="256.000000pt" height="256.000000pt" viewBox="0 0 256.000000 256.000000"
 preserveAspectRatio="xMidYMid meet">
<metadata>
Created by potrace 1.16, written by Peter Selinger 2001-2019
</metadata>
<g transform="translate(0.000000,256.000000) scale(0.100000,-0.100000)"
fill="#000000" stroke="none">
<path d="M1690 2549 c101 -13 151 -28 202 -61 143 -91 180 -288 81 -431 -20
-29 -46 -49 -93 -71 l-65 -31 -440 -5 -440 -5 -60 -28 c-57 -26 -135 -90 -135
-110 0 -5 16 5 36 23 21 18 58 42 83 53 44 21 61 22 422 25 359 3 378 2 431
-18 77 -29 131 -79 170 -158 l33 -67 3 -315 c4 -340 -3 -433 -39 -507 -47 -97
-155 -175 -264 -189 -73 -10 -31 -22 81 -23 54 -1 109 -7 137 -17 60 -20 131
-84 165 -148 23 -44 27 -63 27 -136 0 -73 -4 -92 -27 -135 -35 -66 -71 -98
-139 -123 -107 -39 -187 -43 -769 -40 l-555 3 -79 28 c-191 68 -325 202 -393
394 l-28 78 -3 710 c-4 770 -2 808 49 930 70 170 189 285 362 352 34 13 49 21
32 18 -198 -40 -389 -225 -454 -439 -21 -66 -21 -86 -21 -826 0 -740 0 -760
21 -826 31 -103 84 -191 163 -270 79 -79 167 -132 270 -163 66 -21 86 -21 827
-21 l758 0 79 25 c194 61 356 223 417 417 l25 79 0 759 0 759 -25 79 c-61 194
-223 356 -417 417 -74 24 -91 25 -286 24 -160 -1 -192 -3 -142 -10z"/>
</g>
</svg>
