<?xml version="1.0" encoding="UTF-8" standalone="no"?>
<!-- Created with Inkscape (http://www.inkscape.org/) -->

<svg
   width="211.66667mm"
   height="211.66667mm"
   viewBox="0 0 211.66667 211.66667"
   version="1.1"
   id="svg1"
   xml:space="preserve"
   inkscape:version="1.4 (e7c3feb100, 2024-10-09)"
   sodipodi:docname="git.svg"
   xmlns:inkscape="http://www.inkscape.org/namespaces/inkscape"
   xmlns:sodipodi="http://sodipodi.sourceforge.net/DTD/sodipodi-0.dtd"
   xmlns="http://www.w3.org/2000/svg"
   xmlns:svg="http://www.w3.org/2000/svg"><sodipodi:namedview
     id="namedview1"
     pagecolor="#505050"
     bordercolor="#eeeeee"
     borderopacity="1"
     inkscape:showpageshadow="0"
     inkscape:pageopacity="0"
     inkscape:pagecheckerboard="0"
     inkscape:deskcolor="#505050"
     inkscape:document-units="mm"
     inkscape:zoom="0.77415123"
     inkscape:cx="125.94438"
     inkscape:cy="460.50434"
     inkscape:window-width="1876"
     inkscape:window-height="986"
     inkscape:window-x="0"
     inkscape:window-y="0"
     inkscape:window-maximized="1"
     inkscape:current-layer="layer1" /><defs
     id="defs1" /><g
     inkscape:label="Layer 1"
     inkscape:groupmode="layer"
     id="layer1"
     transform="translate(-4.6659484,-40.762089)"><path
       style="fill:#000000;stroke-width:1.19786"
       d="m 106.22057,252.28616 c -1.13305,-0.24265 -3.41497,-1.10341 -5.07095,-1.91278 l -3.010868,-1.4716 -43.524937,-43.46275 C 30.675099,181.53452 10.453783,161.16066 9.6775545,160.16378 6.8500414,156.53249 5.1297894,151.6435 5.1297894,147.23889 c 0,-3.12409 0.7696721,-6.17748 2.3967068,-9.50801 L 8.9973696,134.72001 40.732255,102.936 72.467143,71.151962 l 6.479601,6.587815 c 3.563774,3.623295 7.530159,7.66935 8.814192,8.991223 l 2.334591,2.40342 -0.378595,2.706333 c -1.047707,7.489365 2.748821,15.956177 8.934684,19.925627 l 1.547204,0.99284 v 29.10706 29.10706 l -2.29777,1.74942 c -1.263766,0.96219 -2.777655,2.335 -3.364175,3.05068 -7.337747,8.95347 -6.530318,21.47342 1.887442,29.26698 12.396373,11.47713 32.600533,4.21405 35.151133,-12.63628 1.13422,-7.49319 -2.03081,-15.06743 -8.28211,-19.81993 l -2.17691,-1.65496 0.0124,-25.55255 0.0125,-25.55254 10.94378,11.04448 c 8.34457,8.42137 10.88963,11.16887 10.71578,11.56808 -0.12541,0.28796 -0.29416,1.90547 -0.37502,3.59445 -0.71325,14.90004 13.30383,25.76205 27.49839,21.30886 6.85629,-2.15101 12.46508,-8.16533 14.10651,-15.12649 0.59405,-2.51926 0.59405,-7.43003 0,-9.94931 -1.26561,-5.36734 -4.9355,-10.28959 -9.90094,-13.27963 -3.83078,-2.30681 -10.1595,-3.50075 -14.15559,-2.67053 l -1.86823,0.38813 -13.44193,-13.42243 -13.44194,-13.422426 0.25582,-1.743136 c 1.67719,-11.428044 -4.90076,-21.469957 -15.77082,-24.075743 -2.85594,-0.684636 -6.88221,-0.832727 -9.0111,-0.33146 l -1.26773,0.298507 -8.96797,-8.942494 -8.96796,-8.942506 5.348751,-5.268176 c 4.959913,-4.885216 5.565754,-5.375302 8.334099,-6.741816 6.49343,-3.205315 12.42337,-3.207173 18.99047,-0.006 l 3.01088,1.467687 44.57387,44.573877 44.57388,44.573876 1.46769,3.01087 c 3.19885,6.56224 3.19885,12.45378 0,19.01601 l -1.46769,3.01088 -44.57388,44.57387 -44.57387,44.57387 -3.01088,1.46768 c -4.73852,2.30986 -9.22071,2.92473 -13.94506,1.91296 z"
       id="path13" /></g></svg>
