<?xml version="1.0" standalone="no"?>
<!DOCTYPE svg PUBLIC "-//W3C//DTD SVG 20010904//EN"
 "http://www.w3.org/TR/2001/REC-SVG-20010904/DTD/svg10.dtd">
<svg version="1.0" xmlns="http://www.w3.org/2000/svg"
 width="800.000000pt" height="800.000000pt" viewBox="0 0 800.000000 800.000000"
 preserveAspectRatio="xMidYMid meet">
<metadata>
Created by potrace 1.16, written by Peter Selinger 2001-2019
</metadata>
<g transform="translate(0.000000,800.000000) scale(0.100000,-0.100000)"
fill="#000000" stroke="none">
<path d="M3920 7329 c-36 -4 -93 -17 -128 -28 -35 -12 -68 -18 -74 -15 -7 5
-8 2 -3 -6 6 -10 4 -12 -9 -7 -11 5 -15 3 -10 -5 5 -8 2 -9 -10 -5 -9 4 -15 3
-12 -2 3 -5 -12 -20 -34 -35 -43 -28 -55 -32 -44 -14 5 7 3 8 -5 4 -7 -5 -10
-11 -6 -14 7 -7 -155 -172 -170 -172 -5 0 24 35 65 78 41 42 9 12 -71 -67 -81
-79 -146 -150 -145 -158 1 -7 23 -35 49 -61 26 -27 44 -51 40 -55 -4 -5 3 -10
15 -14 12 -3 22 -11 22 -19 0 -7 16 -26 36 -41 69 -53 164 -145 158 -154 -3
-5 0 -8 8 -7 7 2 12 -3 10 -10 -1 -8 1 -11 6 -8 5 3 53 -41 108 -97 l99 -102
-100 95 -100 95 94 -97 c52 -53 98 -95 102 -92 4 2 14 -3 22 -11 20 -19 37
-19 37 0 0 9 9 15 23 15 18 0 19 -2 7 -10 -12 -7 -8 -10 15 -10 21 0 26 3 16
9 -22 14 43 24 97 16 38 -6 43 -9 27 -16 -18 -7 -17 -8 7 -8 15 -1 30 4 33 9
9 15 25 12 25 -5 0 -8 8 -15 18 -15 14 0 15 2 2 10 -46 30 96 -12 173 -51 32
-17 55 -34 52 -39 -3 -5 0 -12 6 -16 8 -4 9 -3 5 4 -4 7 -2 12 4 12 6 0 14
-10 19 -23 5 -13 17 -29 27 -37 18 -14 18 -13 0 8 -33 39 -5 24 40 -22 44 -43
60 -71 27 -45 -15 11 -14 10 1 -9 21 -24 32 -29 20 -9 -5 8 -2 8 9 -2 20 -16
23 -36 5 -25 -8 4 -10 3 -5 -2 5 -5 14 -9 20 -9 5 0 12 -6 15 -14 3 -9 0 -11
-8 -6 -9 5 -11 4 -6 -4 4 -6 12 -9 17 -5 13 8 66 -112 85 -194 18 -75 15 -265
-4 -298 -8 -13 -11 -14 -12 -5 0 8 -2 12 -5 10 -2 -3 195 -205 440 -450 244
-244 442 -441 439 -438 -2 4 3 9 11 13 8 3 15 1 15 -4 0 -6 5 -10 10 -10 6 0
9 5 8 12 -2 6 5 14 16 16 11 2 16 0 12 -7 -5 -8 19 -11 81 -10 58 0 81 3 68 9
-18 8 -17 9 8 9 16 1 30 -5 33 -14 7 -17 31 -20 36 -4 6 17 138 -30 138 -50 0
-14 2 -14 10 -1 9 14 14 7 11 -13 -1 -5 3 -6 9 -2 5 3 10 0 10 -7 0 -9 3 -9
10 2 9 14 11 13 14 -9 0 -5 5 -13 10 -18 5 -5 6 -2 1 6 -5 9 -3 12 6 9 8 -3
14 -10 14 -16 0 -5 4 -14 9 -19 5 -5 6 -3 2 5 -10 17 9 15 24 -3 7 -8 9 -15 5
-15 -5 0 0 -9 10 -20 10 -11 22 -17 26 -14 5 3 9 1 9 -5 0 -5 12 -16 27 -23
14 -7 29 -20 31 -28 4 -11 -2 -9 -19 5 l-24 20 19 -23 c11 -12 21 -20 24 -17
7 6 32 -15 32 -27 0 -5 -6 -6 -12 -2 -8 4 -10 3 -5 -2 5 -5 14 -9 20 -9 7 0
12 -9 13 -20 2 -26 33 -95 34 -75 2 18 39 -59 40 -80 0 -13 -2 -13 -11 0 -9
12 -10 12 -5 -3 3 -10 6 -26 7 -35 0 -13 2 -13 8 3 6 15 11 3 20 -49 15 -86
12 -173 -6 -180 -7 -3 -13 -16 -12 -28 1 -23 1 -22 10 2 6 18 7 11 3 -23 -7
-61 -29 -123 -43 -120 -5 2 -8 -4 -5 -11 5 -14 -21 -76 -32 -76 -3 0 -2 6 2
13 4 6 3 8 -2 4 -4 -4 -9 -18 -9 -30 0 -12 -5 -22 -12 -22 -6 0 -15 -4 -20 -9
-5 -5 -3 -6 5 -2 6 4 12 3 12 -2 0 -12 -25 -33 -32 -27 -3 3 -13 -5 -24 -17
l-19 -23 23 19 c39 34 24 2 -21 -42 -45 -44 -73 -58 -41 -19 l19 22 -22 -19
c-13 -10 -20 -22 -17 -27 6 -11 -43 -42 -55 -35 -5 4 -13 1 -17 -5 -5 -8 -3
-9 6 -4 9 5 11 4 6 -4 -4 -6 -24 -20 -44 -30 -133 -68 -317 -89 -460 -53 -87
22 -227 89 -227 109 0 6 -4 15 -9 20 -5 5 -6 3 -2 -4 13 -23 -10 -13 -35 14
-13 15 -16 21 -6 14 32 -25 17 -6 -30 39 -26 25 -41 36 -33 25 11 -15 8 -14
-13 4 -30 27 -38 52 -9 30 15 -13 16 -12 3 3 -7 10 -17 15 -22 13 -11 -8 -31
33 -23 47 4 7 3 8 -5 4 -14 -9 -53 74 -77 166 -19 72 -23 258 -6 299 10 25 -1
37 -234 270 -134 134 -244 248 -244 254 0 5 78 -67 173 -160 94 -94 55 -52
-88 92 -142 144 -261 260 -264 258 -2 -3 -10 0 -17 6 -7 6 -18 8 -24 4 -7 -4
-9 -262 -8 -818 l3 -812 5 815 5 815 3 -817 c1 -568 5 -818 13 -818 5 0 7 -5
4 -10 -4 -6 -3 -10 2 -9 26 5 45 -4 52 -24 5 -13 17 -29 27 -37 18 -14 18 -13
0 8 -33 38 -4 24 41 -20 42 -42 60 -73 26 -47 -15 11 -14 10 1 -9 21 -24 31
-29 21 -9 -4 6 3 1 15 -12 11 -13 19 -30 16 -37 -3 -7 0 -16 6 -20 7 -5 8 -2
3 6 -6 9 -4 11 5 5 20 -12 70 -132 86 -204 20 -94 18 -214 -6 -305 -21 -83
-88 -221 -107 -221 -6 0 -15 -4 -20 -9 -5 -5 -3 -6 5 -2 6 4 12 3 12 -2 0 -12
-25 -33 -32 -27 -2 2 -24 -16 -49 -42 -24 -26 -35 -41 -24 -33 15 11 14 8 -4
-13 -27 -30 -52 -38 -30 -9 13 15 12 16 -3 3 -10 -7 -15 -17 -13 -22 7 -11
-33 -32 -45 -24 -6 4 -9 1 -8 -6 3 -14 -100 -59 -180 -79 -73 -17 -213 -15
-293 4 -90 21 -183 62 -173 77 4 8 3 9 -5 5 -13 -9 -69 23 -97 56 -19 22 -19
23 1 8 11 -8 0 7 -25 33 -45 47 -64 62 -39 30 7 -10 1 -7 -14 6 -27 25 -37 48
-14 35 7 -4 9 -3 4 2 -5 5 -14 9 -20 9 -19 0 -86 138 -107 221 -24 91 -26 211
-6 305 17 78 71 203 85 195 5 -4 13 -1 17 5 5 8 3 9 -6 4 -8 -5 -11 -3 -8 6 3
8 10 14 15 14 6 0 15 4 20 9 5 5 3 6 -4 2 -19 -11 -16 9 4 25 15 12 16 12 8
-1 -5 -9 0 -8 13 4 25 21 31 36 7 16 -33 -28 -12 9 28 48 45 44 73 58 41 20
l-19 -23 22 19 c13 10 20 22 18 26 -3 4 2 13 10 20 12 10 15 10 16 -1 0 -8 4
-4 9 9 5 12 14 23 20 23 5 1 16 2 23 3 9 1 12 194 12 931 l0 930 -5 -930 -5
-930 -3 930 -2 930 -31 17 c-17 10 -28 22 -24 27 3 5 0 13 -6 17 -8 4 -9 3 -5
-4 18 -30 -15 -6 -72 51 -58 59 -78 88 -49 71 7 -4 9 -3 4 2 -5 5 -14 9 -19 9
-6 0 -13 6 -16 14 -3 9 0 11 8 6 9 -5 11 -4 6 4 -4 6 -11 9 -16 6 -14 -9 -69
109 -91 193 -21 83 -25 210 -8 281 l10 45 -283 283 c-196 196 -288 281 -301
279 -23 -3 -1958 -1936 -1951 -1948 7 -11 -16 -39 -26 -33 -5 3 -12 0 -16 -6
-4 -8 -3 -9 4 -5 18 11 14 -1 -14 -44 -15 -22 -30 -37 -35 -34 -5 3 -6 -3 -2
-12 4 -12 3 -15 -5 -10 -8 5 -10 1 -5 -10 3 -10 2 -15 -3 -12 -5 4 -10 -4 -11
-15 0 -12 -10 -53 -22 -92 -12 -38 -21 -88 -21 -111 0 -22 -3 -44 -7 -48 -11
-10 -12 -36 -2 -36 5 0 9 -18 9 -41 0 -23 7 -68 16 -101 8 -33 13 -67 10 -74
-3 -8 0 -13 7 -11 7 1 12 -8 11 -20 0 -12 4 -19 9 -16 6 4 8 0 5 -9 -4 -8 -2
-21 4 -29 8 -11 8 -9 4 6 -6 20 -6 20 9 1 18 -23 20 -40 3 -30 -7 4 -8 3 -4
-5 4 -6 11 -9 16 -6 11 7 29 -26 23 -42 -2 -6 1 -15 8 -19 8 -5 10 -3 4 7 -4
8 623 -616 1393 -1385 771 -770 1399 -1403 1396 -1407 -2 -4 1 -11 7 -15 8 -4
9 -3 5 4 -10 16 0 15 29 -4 14 -9 25 -22 25 -28 0 -7 10 -12 23 -12 12 1 21
-4 20 -11 -2 -8 4 -10 14 -6 11 4 14 3 9 -5 -4 -7 -2 -10 7 -7 18 8 89 -23 82
-35 -3 -6 1 -10 10 -10 9 0 13 5 9 11 -4 7 -1 10 7 7 8 -3 13 -11 11 -17 -1
-6 5 -11 14 -11 8 0 12 5 9 10 -3 6 -1 10 5 10 6 0 13 -7 16 -15 4 -8 16 -15
28 -14 20 0 20 1 1 9 -16 7 -13 9 18 9 20 1 47 -5 58 -11 17 -10 23 -10 26 0
3 6 21 12 41 12 28 0 33 -3 22 -10 -12 -8 -10 -10 8 -10 13 0 21 4 17 10 -8
14 58 30 68 16 5 -8 10 -7 16 3 11 17 91 53 91 41 0 -5 7 -7 15 -4 8 4 13 10
10 15 -3 4 4 13 15 19 14 8 20 8 20 0 0 -6 5 -8 10 -5 6 4 8 10 5 15 -3 4 6
15 20 24 29 19 39 20 29 4 -4 -7 -3 -8 5 -4 6 4 9 11 7 15 -6 8 2778 2795
2789 2791 3 -1 10 2 13 6 4 4 1 4 -5 0 -19 -11 -16 -2 18 53 18 28 36 48 40
45 5 -3 6 3 2 12 -3 10 -2 15 3 12 5 -4 10 4 11 15 0 12 11 54 23 92 30 98 30
252 0 350 -12 39 -23 80 -23 92 -1 11 -6 19 -11 15 -5 -3 -6 2 -3 12 5 11 3
15 -5 10 -8 -5 -9 -2 -5 10 4 9 3 15 -2 12 -5 -3 -20 12 -35 34 -28 43 -32 55
-14 44 7 -4 8 -3 4 5 -4 6 -11 9 -15 7 -8 -6 -2794 2777 -2793 2790 0 5 -2 11
-5 14 -4 3 -3 -1 1 -7 11 -19 2 -16 -53 18 -28 18 -48 36 -45 40 3 5 -3 6 -12
2 -10 -3 -15 -2 -12 3 4 5 -4 10 -15 11 -12 0 -51 10 -87 21 -79 23 -173 31
-260 21z m-2111 -1909 c-529 -533 -967 -970 -973 -970 -6 0 426 437 959 970
533 534 972 970 973 970 2 0 -429 -436 -959 -970z"/>
<path d="M5810 5815 c751 -751 1367 -1365 1370 -1365 3 0 -609 614 -1360 1365
-751 751 -1367 1365 -1370 1365 -3 0 609 -614 1360 -1365z"/>
<path d="M2180 2185 c751 -751 1367 -1365 1370 -1365 3 0 -609 614 -1360 1365
-751 751 -1367 1365 -1370 1365 -3 0 609 -614 1360 -1365z"/>
<path d="M5810 2183 l-1365 -1368 1368 1365 c752 751 1367 1366 1367 1367 0 2
-1 3 -3 3 -1 0 -616 -615 -1367 -1367z"/>
</g>
</svg>
