<?xml version="1.0" encoding="UTF-8" standalone="no"?>
<!-- Created with Inkscape (http://www.inkscape.org/) -->

<svg
   width="288.90579mm"
   height="288.90634mm"
   viewBox="0 0 288.90579 288.90634"
   version="1.1"
   id="svg1"
   xml:space="preserve"
   inkscape:version="1.4 (e7c3feb100, 2024-10-09)"
   sodipodi:docname="git.svg"
   xmlns:inkscape="http://www.inkscape.org/namespaces/inkscape"
   xmlns:sodipodi="http://sodipodi.sourceforge.net/DTD/sodipodi-0.dtd"
   xmlns="http://www.w3.org/2000/svg"
   xmlns:svg="http://www.w3.org/2000/svg"><sodipodi:namedview
     id="namedview1"
     pagecolor="#505050"
     bordercolor="#eeeeee"
     borderopacity="1"
     inkscape:showpageshadow="0"
     inkscape:pageopacity="0"
     inkscape:pagecheckerboard="0"
     inkscape:deskcolor="#505050"
     inkscape:document-units="mm"
     inkscape:zoom="0.54740759"
     inkscape:cx="501.4545"
     inkscape:cy="558.08507"
     inkscape:window-width="1876"
     inkscape:window-height="986"
     inkscape:window-x="0"
     inkscape:window-y="0"
     inkscape:window-maximized="1"
     inkscape:current-layer="layer1" /><defs
     id="defs1" /><g
     inkscape:label="Layer 1"
     inkscape:groupmode="layer"
     id="layer1"
     transform="translate(45.157643,-3.5942903)"><g
       id="g18"
       transform="translate(-8.9353684,-1.5680095)"><path
         style="fill:#f7d6d2"
         d="m 110.13716,293.99482 c 0.0869,-0.0348 0.19073,-0.0305 0.23074,0.01 0.04,0.04 -0.0311,0.0685 -0.15801,0.0632 -0.14025,-0.006 -0.16877,-0.0343 -0.0727,-0.0727 z m 10.25548,-4.17676 c 0,-0.025 0.0948,-0.11981 0.21068,-0.21068 0.19094,-0.14975 0.1952,-0.14549 0.0455,0.0455 -0.15727,0.20054 -0.25613,0.26431 -0.25613,0.16523 z m -88.243888,-64.33163 -63.263453,-63.29359 63.293592,63.26345 c 34.811476,34.7949 63.293593,63.27702 63.293593,63.29359 0,0.0166 -0.01356,0.0301 -0.03014,0.0301 -0.01658,0 -28.498693,-28.48211 -63.293592,-63.29359 z m 75.211968,7.83573 c 0.0828,-0.0334 0.21821,-0.0334 0.30097,0 0.0828,0.0334 0.0151,0.0607 -0.15048,0.0607 -0.16553,0 -0.23325,-0.0273 -0.15049,-0.0607 z m 2.76891,0 c 0.0828,-0.0334 0.2182,-0.0334 0.30097,0 0.0828,0.0334 0.0151,0.0607 -0.15048,0.0607 -0.16554,0 -0.23326,-0.0273 -0.15049,-0.0607 z m 13.27269,-5.38315 c 0,-0.025 0.0948,-0.1198 0.21068,-0.21068 0.19094,-0.14974 0.1952,-0.14548 0.0455,0.0455 -0.15728,0.20053 -0.25614,0.26431 -0.25614,0.16522 z M 94.012481,227.6534 c -0.149746,-0.19094 -0.145488,-0.1952 0.04545,-0.0455 0.115873,0.0909 0.210678,0.18568 0.210678,0.21068 0,0.0991 -0.09886,0.0353 -0.256131,-0.16523 z m -1.558789,-1.56503 -0.291857,-0.33107 0.331065,0.29186 c 0.182086,0.16052 0.331065,0.3095 0.331065,0.33106 0,0.0944 -0.09749,0.0176 -0.370273,-0.29185 z m 32.754438,0.0448 c 0,-0.025 0.0948,-0.1198 0.21068,-0.21067 0.19094,-0.14975 0.1952,-0.14549 0.0455,0.0455 -0.15727,0.20053 -0.25613,0.26431 -0.25613,0.16522 z m 5.67721,-12.95637 c 0,-0.16553 0.0273,-0.23325 0.0607,-0.15048 0.0334,0.0828 0.0334,0.2182 0,0.30097 -0.0334,0.0828 -0.0607,0.0151 -0.0607,-0.15049 z m -44.061729,-0.12038 c 0,-0.16554 0.02733,-0.23325 0.06072,-0.15049 0.0334,0.0828 0.0334,0.21821 0,0.30097 -0.0334,0.0828 -0.06072,0.0151 -0.06072,-0.15048 z m -0.0095,-3.56146 c 0.0058,-0.14024 0.0343,-0.16877 0.07273,-0.0727 0.03478,0.0869 0.0305,0.19074 -0.0095,0.23074 -0.04,0.04 -0.06846,-0.0311 -0.06323,-0.15801 z m 44.061729,-0.12039 c 0.006,-0.14024 0.0343,-0.16877 0.0727,-0.0727 0.0348,0.0869 0.0305,0.19074 -0.01,0.23074 -0.04,0.04 -0.0685,-0.0311 -0.0632,-0.15801 z m -0.12039,-1.08348 c 0.006,-0.14025 0.0343,-0.16877 0.0727,-0.0727 0.0348,0.0869 0.0305,0.19073 -0.01,0.23074 -0.04,0.04 -0.0685,-0.0311 -0.0632,-0.15801 z m -4.96074,-11.21608 c -0.14974,-0.19094 -0.14548,-0.1952 0.0455,-0.0454 0.11587,0.0909 0.21067,0.18568 0.21067,0.21068 0,0.0991 -0.0989,0.0353 -0.25613,-0.16523 z m -1.25248,-1.38445 -0.71855,-0.75242 0.75242,0.71855 c 0.69893,0.66748 0.80751,0.78629 0.71856,0.78629 -0.0186,0 -0.35722,-0.33859 -0.75243,-0.75242 z m -31.296906,-0.0903 c 0.258621,-0.26485 0.497307,-0.48155 0.530414,-0.48155 0.03311,0 -0.151406,0.2167 -0.410027,0.48155 -0.258621,0.26485 -0.497307,0.48155 -0.530413,0.48155 -0.03311,0 0.151405,-0.2167 0.410026,-0.48155 z m 1.264066,-1.12894 c 0,-0.025 0.0948,-0.1198 0.210678,-0.21068 0.190941,-0.14974 0.195199,-0.14549 0.04545,0.0454 -0.15727,0.20054 -0.256131,0.26431 -0.256131,0.16523 z m 72.45054,-21.34533 c 0.0869,-0.0348 0.19074,-0.0305 0.23075,0.01 0.04,0.04 -0.0311,0.0685 -0.15801,0.0632 -0.14025,-0.006 -0.16877,-0.0343 -0.0727,-0.0727 z m 3.97278,0 c 0.0869,-0.0348 0.19074,-0.0305 0.23074,0.01 0.04,0.04 -0.0311,0.0685 -0.158,0.0632 -0.14025,-0.006 -0.16877,-0.0343 -0.0727,-0.0727 z m 1.08349,-0.12039 c 0.0869,-0.0348 0.19074,-0.0305 0.23074,0.01 0.04,0.04 -0.0311,0.0685 -0.15801,0.0632 -0.14024,-0.006 -0.16877,-0.0343 -0.0727,-0.0727 z m 11.57975,-5.26025 c 0,-0.025 0.0948,-0.1198 0.21067,-0.21068 0.19094,-0.14974 0.1952,-0.14548 0.0455,0.0455 -0.15727,0.20053 -0.25613,0.2643 -0.25613,0.16522 z m -29.74213,-0.52639 -0.41488,-0.45145 0.45145,0.41488 c 0.42021,0.38615 0.50681,0.48803 0.41488,0.48803 -0.0201,0 -0.22327,-0.20316 -0.45145,-0.45146 z m -0.9631,-0.96309 -0.41488,-0.45146 0.45146,0.41488 c 0.4202,0.38616 0.5068,0.48803 0.41487,0.48803 -0.0201,0 -0.22327,-0.20315 -0.45145,-0.45145 z m 32.51103,-0.31633 c 0,-0.025 0.0948,-0.1198 0.21068,-0.21068 0.19094,-0.14974 0.1952,-0.14548 0.0455,0.0455 -0.15727,0.20053 -0.25613,0.26431 -0.25613,0.16522 z m 62.72176,-3.85239 c 0,-0.025 0.0948,-0.1198 0.21068,-0.21068 0.19094,-0.14974 0.19519,-0.14548 0.0454,0.0455 -0.15727,0.20053 -0.25613,0.2643 -0.25613,0.16522 z M 147.00773,153.3945 c 0.006,-0.14025 0.0343,-0.16877 0.0727,-0.0727 0.0348,0.0869 0.0305,0.19074 -0.009,0.23074 -0.04,0.04 -0.0685,-0.0311 -0.0632,-0.158 z m 44.07123,-1.01326 c 0,-0.16554 0.0273,-0.23325 0.0607,-0.15049 0.0334,0.0828 0.0334,0.2182 0,0.30097 -0.0334,0.0828 -0.0607,0.0151 -0.0607,-0.15048 z m -44.16162,-1.26407 c 5.3e-4,-0.46349 0.0223,-0.63835 0.0484,-0.38857 0.0261,0.24977 0.0256,0.62899 -9.8e-4,0.84271 -0.0266,0.21371 -0.0479,0.009 -0.0474,-0.45414 z m 105.67,0.5919 c 0.006,-0.14024 0.0343,-0.16877 0.0727,-0.0727 0.0348,0.0869 0.0305,0.19074 -0.01,0.23074 -0.04,0.04 -0.0685,-0.0311 -0.0632,-0.15801 z m -288.808991,-0.60193 c 0.0058,-0.14025 0.0343,-0.16877 0.07273,-0.0727 0.03478,0.0869 0.0305,0.19074 -0.0095,0.23075 -0.04,0.04 -0.06846,-0.0311 -0.06323,-0.15801 z M 191.07896,149.8531 c 0,-0.16553 0.0273,-0.23325 0.0607,-0.15048 0.0334,0.0828 0.0334,0.2182 0,0.30097 -0.0334,0.0828 -0.0607,0.0151 -0.0607,-0.15049 z m -44.07123,-1.03332 c 0.006,-0.14024 0.0343,-0.16877 0.0727,-0.0727 0.0348,0.0869 0.0305,0.19074 -0.009,0.23074 -0.04,0.04 -0.0685,-0.0311 -0.0632,-0.15801 z m 105.57961,-0.72232 c 0.006,-0.14025 0.0343,-0.16877 0.0727,-0.0727 0.0348,0.0869 0.0305,0.19074 -0.01,0.23075 -0.04,0.04 -0.0685,-0.0311 -0.0632,-0.15801 z m -288.808991,-0.60194 c 0.0058,-0.14024 0.0343,-0.16877 0.07273,-0.0727 0.03478,0.0869 0.0305,0.19074 -0.0095,0.23074 -0.04,0.04 -0.06846,-0.0311 -0.06323,-0.15801 z M 248.34893,137.9649 c -0.14975,-0.19094 -0.14549,-0.19519 0.0455,-0.0454 0.11587,0.0909 0.21068,0.18568 0.21068,0.21068 0,0.0991 -0.0989,0.0353 -0.25613,-0.16523 z m -280.366536,-0.55709 c 0,-0.025 0.09481,-0.11981 0.210678,-0.21068 0.190941,-0.14975 0.195199,-0.14549 0.04545,0.0455 -0.15727,0.20054 -0.256131,0.26431 -0.256131,0.16523 z M 184.13765,73.617924 120.69361,10.14375 184.16779,73.587784 c 34.91079,34.894216 63.47417,63.457596 63.47417,63.474176 0,0.0166 -0.0136,0.0301 -0.0301,0.0301 -0.0166,0 -28.57996,-28.56338 -63.47417,-63.474176 z m 1.13461,62.541176 -0.29186,-0.33107 0.33106,0.29186 c 0.18209,0.16052 0.33107,0.3095 0.33107,0.33106 0,0.0944 -0.0975,0.0176 -0.37027,-0.29185 z m -210.728761,-5.44753 c 2.979032,-2.97958 5.44351,-5.41742 5.476616,-5.41742 0.03311,0 -2.377196,2.43784 -5.356229,5.41742 -2.979032,2.97959 -5.44351,5.41743 -5.476616,5.41743 -0.03311,0 2.377197,-2.43784 5.356229,-5.41743 z m 209.341981,4.06307 -0.22934,-0.27087 0.27087,0.22934 c 0.25455,0.21552 0.32568,0.3124 0.22934,0.3124 -0.0229,0 -0.14474,-0.12189 -0.27087,-0.27087 z m -38.15149,-20.58622 -16.01134,-16.041596 16.0416,16.011336 c 8.82288,8.80623 16.0416,16.02495 16.0416,16.0416 0,0.0166 -0.0136,0.0303 -0.0303,0.0303 -0.0166,0 -7.23537,-7.21872 -16.0416,-16.0416 z m 21.69997,14.87839 c 0.0828,-0.0334 0.2182,-0.0334 0.30097,0 0.0828,0.0334 0.0151,0.0607 -0.15049,0.0607 -0.16553,0 -0.23325,-0.0273 -0.15048,-0.0607 z m 3.00968,0 c 0.0828,-0.0334 0.2182,-0.0334 0.30097,0 0.0828,0.0334 0.0151,0.0607 -0.15049,0.0607 -0.16553,0 -0.23325,-0.0273 -0.15048,-0.0607 z m -77.202088,-22.46278 -0.718555,-0.75242 0.75242,0.71855 c 0.413831,0.39521 0.75242,0.7338 0.75242,0.75242 0,0.089 -0.118809,-0.0196 -0.786285,-0.71855 z M 86.814107,92.719366 c 0.0058,-0.140244 0.0343,-0.168771 0.07273,-0.07273 0.03478,0.08691 0.0305,0.190739 -0.0095,0.230742 -0.04,0.04 -0.06846,-0.0311 -0.06323,-0.158008 z m 44.071233,-0.170549 c 0,-0.165532 0.0273,-0.23325 0.0607,-0.150484 0.0334,0.08277 0.0334,0.218202 0,0.300969 -0.0334,0.08277 -0.0607,0.01505 -0.0607,-0.150485 z m 0,-3.250455 c 0,-0.165533 0.0273,-0.23325 0.0607,-0.150484 0.0334,0.08277 0.0334,0.218202 0,0.300968 -0.0334,0.08277 -0.0607,0.01505 -0.0607,-0.150484 z m -44.071233,-0.07023 c 0.0058,-0.140244 0.0343,-0.168771 0.07273,-0.07273 0.03478,0.08691 0.0305,0.190739 -0.0095,0.230742 -0.04,0.04 -0.06846,-0.0311 -0.06323,-0.158008 z m 38.442783,-13.08208 -0.22934,-0.270872 0.27087,0.229337 c 0.25456,0.215519 0.32568,0.312406 0.22934,0.312406 -0.0228,0 -0.14474,-0.121892 -0.27087,-0.270871 z m -1.56504,-1.565034 -0.22933,-0.270872 0.27087,0.229336 c 0.25455,0.21552 0.32568,0.312407 0.22934,0.312407 -0.0228,0 -0.14474,-0.121892 -0.27088,-0.270871 z m -12.47121,-5.589955 c 0.0869,-0.03478 0.19074,-0.0305 0.23074,0.0095 0.04,0.04 -0.0311,0.06846 -0.15801,0.06323 -0.14024,-0.0058 -0.16877,-0.0343 -0.0727,-0.07273 z m -2.83662,-0.126638 c 0.31451,-0.0248 0.82916,-0.0248 1.14367,0 0.31452,0.0248 0.0572,0.04509 -0.57183,0.04509 -0.62903,0 -0.88636,-0.02029 -0.57184,-0.04509 z M 119.77535,9.3913296 c -0.14974,-0.1909408 -0.14549,-0.195199 0.0455,-0.045453 0.11588,0.090874 0.21068,0.1856786 0.21068,0.2106777 0,0.099083 -0.0989,0.03531 -0.25613,-0.1652249 z M 106.04399,5.1858284 c 0.0869,-0.034776 0.19074,-0.0305 0.23074,0.0095 0.04,0.040004 -0.0311,0.068457 -0.15801,0.06323 -0.14024,-0.00578 -0.16877,-0.034303 -0.0727,-0.072734 z m 3.61162,0 c 0.0869,-0.034776 0.19073,-0.0305 0.23074,0.0095 0.04,0.040004 -0.0311,0.068457 -0.15801,0.06323 -0.14024,-0.00578 -0.16877,-0.034303 -0.0727,-0.072734 z"
         id="path24" /><path
         style="fill:#eda195"
         d="m 106.99956,293.99733 c 0.0828,-0.0334 0.2182,-0.0334 0.30097,0 0.0828,0.0334 0.0151,0.0607 -0.15048,0.0607 -0.16554,0 -0.23325,-0.0273 -0.15049,-0.0607 z m 2.77643,-0.003 c 0.0869,-0.0348 0.19074,-0.0305 0.23075,0.01 0.04,0.04 -0.0311,0.0685 -0.15801,0.0632 -0.14025,-0.006 -0.16877,-0.0343 -0.0727,-0.0727 z m -2.7689,-60.67517 c 0.0869,-0.0348 0.19074,-0.0305 0.23074,0.01 0.04,0.04 -0.0311,0.0684 -0.15801,0.0632 -0.14024,-0.006 -0.16877,-0.0343 -0.0727,-0.0727 z m 3.61161,0 c 0.0869,-0.0348 0.19074,-0.0305 0.23075,0.01 0.04,0.04 -0.0311,0.0684 -0.15801,0.0632 -0.14025,-0.006 -0.16877,-0.0343 -0.0727,-0.0727 z m 20.39149,-22.00882 c 0.002,-0.19864 0.0294,-0.26532 0.06,-0.14819 0.0305,0.11713 0.0285,0.27966 -0.004,0.36116 -0.033,0.0815 -0.0579,-0.0143 -0.0555,-0.21297 z m -44.196083,-2.177 c 0.0058,-0.14024 0.0343,-0.16877 0.07273,-0.0727 0.03478,0.0869 0.0305,0.19073 -0.0095,0.23074 -0.04,0.04 -0.06846,-0.0311 -0.06323,-0.15801 z m 5.70889,-12.81121 c 0.119844,-0.13243 0.244985,-0.24077 0.278091,-0.24077 0.03311,0 -0.03786,0.10834 -0.157704,0.24077 -0.119844,0.13243 -0.244985,0.24078 -0.278092,0.24078 -0.03311,0 0.03786,-0.10835 0.157705,-0.24078 z m 1.264066,-1.24932 c 0,-0.025 0.0948,-0.11981 0.210678,-0.21068 0.19094,-0.14975 0.195199,-0.14549 0.04545,0.0455 -0.15727,0.20054 -0.25613,0.26431 -0.25613,0.16523 z m 29.840677,-0.28562 c -0.14974,-0.19094 -0.14549,-0.1952 0.0455,-0.0454 0.20053,0.15727 0.2643,0.25613 0.16522,0.25613 -0.025,0 -0.1198,-0.0948 -0.21068,-0.21068 z m 45.01009,-21.54611 c 0.21519,-0.0267 0.56733,-0.0267 0.78252,0 0.21519,0.0267 0.0391,0.0486 -0.39126,0.0486 -0.43038,0 -0.60645,-0.0219 -0.39126,-0.0486 z m 22.43163,-20.44897 c 0.006,-0.14024 0.0343,-0.16877 0.0727,-0.0727 0.0348,0.0869 0.0305,0.19073 -0.01,0.23074 -0.04,0.04 -0.0685,-0.0311 -0.0632,-0.15801 z m -44.16815,-0.5919 c 0.002,-0.19864 0.0294,-0.26533 0.06,-0.1482 0.0305,0.11714 0.0285,0.27966 -0.004,0.36117 -0.033,0.0815 -0.0579,-0.0143 -0.0555,-0.21297 z m 105.68603,-0.85275 c 0.006,-0.14024 0.0343,-0.16877 0.0727,-0.0727 0.0348,0.0869 0.0305,0.19074 -0.01,0.23074 -0.04,0.04 -0.0685,-0.0311 -0.0632,-0.15801 z m -288.808995,-0.60193 c 0.0058,-0.14025 0.0343,-0.16877 0.07273,-0.0727 0.03478,0.0869 0.0305,0.19074 -0.0095,0.23075 -0.04,0.04 -0.06846,-0.0311 -0.06323,-0.15801 z m 183.122965,-0.71229 c 0.002,-0.19864 0.0294,-0.26533 0.06,-0.1482 0.0305,0.11714 0.0285,0.27966 -0.004,0.36116 -0.033,0.0815 -0.0579,-0.0143 -0.0555,-0.21296 z m 44.16815,-0.61197 c 0.006,-0.14025 0.0343,-0.16877 0.0727,-0.0727 0.0348,0.0869 0.0305,0.19074 -0.01,0.23075 -0.04,0.04 -0.0685,-0.0311 -0.0632,-0.15801 z m 61.51788,-0.9631 c 0.006,-0.14024 0.0343,-0.16877 0.0727,-0.0727 0.0348,0.0869 0.0305,0.19073 -0.01,0.23074 -0.04,0.04 -0.0685,-0.0311 -0.0632,-0.15801 z m -288.808995,-0.60194 c 0.0058,-0.14024 0.0343,-0.16877 0.07273,-0.0727 0.03478,0.0869 0.0305,0.19074 -0.0095,0.23074 -0.04,0.04 -0.06846,-0.0311 -0.06323,-0.15801 z M 167.08032,129.0643 c 0.0869,-0.0348 0.19074,-0.0305 0.23074,0.01 0.04,0.04 -0.0311,0.0684 -0.15801,0.0632 -0.14024,-0.006 -0.16877,-0.0343 -0.0727,-0.0727 z M 92.32706,105.70112 c -0.149746,-0.19094 -0.145488,-0.1952 0.04545,-0.0455 0.115872,0.0909 0.210677,0.18568 0.210677,0.21068 0,0.0991 -0.09886,0.0353 -0.25613,-0.16523 z M 86.814107,93.080528 c 0.0058,-0.140244 0.0343,-0.168771 0.07273,-0.07273 0.03478,0.0869 0.0305,0.190738 -0.0095,0.230742 -0.04,0.04 -0.06846,-0.0311 -0.06323,-0.158008 z m 0,-4.213554 c 0.0058,-0.140244 0.0343,-0.16877 0.07273,-0.07273 0.03478,0.08691 0.0305,0.190739 -0.0095,0.230743 -0.04,0.04 -0.06846,-0.0311 -0.06323,-0.158009 z M 72.057,66.033527 55.684501,49.630765 l 16.402761,16.3725 c 9.021519,9.004874 16.402762,16.386117 16.402762,16.402761 0,0.01664 -0.01362,0.03026 -0.03026,0.03026 -0.01664,0 -7.397887,-7.381243 -16.402761,-16.402762 z m 35.42411,2.839661 c 0.0828,-0.0334 0.2182,-0.0334 0.30097,0 0.0828,0.0334 0.0151,0.06072 -0.15048,0.06072 -0.16554,0 -0.23325,-0.02732 -0.15049,-0.06072 z m 2.65605,-0.0025 c 0.0869,-0.03478 0.19073,-0.0305 0.23074,0.0095 0.04,0.04 -0.0311,0.06846 -0.15801,0.06323 -0.14025,-0.0058 -0.16877,-0.0343 -0.0727,-0.07273 z M 106.40515,5.1858284 c 0.0869,-0.034776 0.19074,-0.0305 0.23074,0.0095 0.04,0.040004 -0.0311,0.068457 -0.15801,0.06323 -0.14024,-0.00578 -0.16877,-0.034303 -0.0727,-0.072734 z m 2.88929,0 c 0.0869,-0.034776 0.19074,-0.0305 0.23075,0.0095 0.04,0.040004 -0.0311,0.068457 -0.15801,0.06323 -0.14025,-0.00578 -0.16877,-0.034303 -0.0727,-0.072734 z"
         id="path23" /><path
         style="fill:#e78273"
         d="m 95.938677,289.17128 c -0.149746,-0.19094 -0.145488,-0.1952 0.04545,-0.0455 0.115873,0.0909 0.210678,0.18568 0.210678,0.21068 0,0.0991 -0.09886,0.0353 -0.256131,-0.16523 z m 25.055903,0.0448 c 0,-0.025 0.0948,-0.1198 0.21068,-0.21068 0.19094,-0.14974 0.1952,-0.14549 0.0455,0.0454 -0.15727,0.20054 -0.25613,0.26431 -0.25613,0.16523 z m 3.49123,-62.25495 c 0.22462,-0.23174 0.43548,-0.42135 0.46859,-0.42135 0.0331,0 -0.12359,0.18961 -0.3482,0.42135 -0.22462,0.23175 -0.43548,0.42136 -0.46859,0.42136 -0.0331,0 0.12358,-0.18961 0.3482,-0.42136 z m -31.316039,-0.0301 c -0.149747,-0.19094 -0.145488,-0.1952 0.04545,-0.0455 0.200535,0.15727 0.264308,0.25613 0.165225,0.25613 -0.025,0 -0.119804,-0.0948 -0.210677,-0.21067 z m 37.844879,-14.95812 c 0,-0.23174 0.0248,-0.32655 0.0551,-0.21068 0.0303,0.11588 0.0303,0.30549 0,0.42136 -0.0303,0.11587 -0.0551,0.0211 -0.0551,-0.21068 z m -44.290931,-0.66213 c 5.34e-4,-0.46349 0.02229,-0.63835 0.04836,-0.38857 0.02606,0.24977 0.02562,0.62899 -9.71e-4,0.84271 -0.0266,0.21372 -0.04792,0.009 -0.04738,-0.45414 z m 44.293361,-0.72232 c 0.001,-0.26485 0.026,-0.35903 0.0548,-0.20928 0.0288,0.14976 0.0277,0.36645 -0.002,0.48155 -0.0301,0.1151 -0.0537,-0.007 -0.0524,-0.27227 z m -30.54924,-59.4713 c 0,-21.85028 0.0139,-30.80697 0.0308,-19.90375 0.017,10.90322 0.017,28.78072 0,39.72779 -0.0169,10.94706 -0.0308,2.02625 -0.0308,-19.82404 z m 67.44767,22.13172 c 0.0828,-0.0334 0.2182,-0.0334 0.30097,0 0.0828,0.0334 0.015,0.0607 -0.15049,0.0607 -0.16553,0 -0.23325,-0.0273 -0.15048,-0.0607 z m 1.92619,0 c 0.0828,-0.0334 0.21821,-0.0334 0.30097,0 0.0828,0.0334 0.0151,0.0607 -0.15048,0.0607 -0.16554,0 -0.23325,-0.0273 -0.15049,-0.0607 z m 14.83773,-6.48138 c 0.22462,-0.23174 0.43548,-0.42135 0.46859,-0.42135 0.0331,0 -0.12359,0.18961 -0.3482,0.42135 -0.22462,0.23175 -0.43548,0.42136 -0.46859,0.42136 -0.0331,0 0.12358,-0.18961 0.3482,-0.42136 z m 62.84214,-4.07842 c 0,-0.025 0.0948,-0.11981 0.21068,-0.21068 0.19094,-0.14975 0.1952,-0.14549 0.0455,0.0454 -0.15727,0.20054 -0.25613,0.26431 -0.25613,0.16523 z m 5.06577,-11.70234 c 0.006,-0.14024 0.0343,-0.16877 0.0727,-0.0727 0.0348,0.0869 0.0305,0.19074 -0.01,0.23074 -0.04,0.04 -0.0685,-0.0311 -0.0632,-0.15801 z m -283.942816,-14.2558 c 0.119844,-0.13243 0.244985,-0.24078 0.278092,-0.24078 0.03311,0 -0.03786,0.10835 -0.157705,0.24078 -0.119843,0.13242 -0.244985,0.24077 -0.278091,0.24077 -0.03311,0 0.03786,-0.10835 0.157704,-0.24077 z M 86.722748,90.983783 c 0,-0.430384 0.02185,-0.60645 0.04856,-0.391258 0.0267,0.215192 0.0267,0.567325 0,0.782517 -0.02671,0.215192 -0.04856,0.03913 -0.04856,-0.391259 z m 44.282982,-0.120387 c 0,-0.165532 0.0273,-0.23325 0.0607,-0.150484 0.0334,0.08277 0.0334,0.218202 0,0.300968 -0.0334,0.08277 -0.0607,0.01505 -0.0607,-0.150484 z M 85.119017,53.332673 68.565936,36.749331 85.149278,53.302412 c 9.120839,9.104195 16.583342,16.566699 16.583342,16.583343 0,0.01664 -0.0136,0.03026 -0.0303,0.03026 -0.0166,0 -7.479148,-7.462504 -16.583343,-16.583343 z M 110.49832,68.87068 c 0.0869,-0.03478 0.19074,-0.0305 0.23074,0.0095 0.04,0.04 -0.0311,0.06846 -0.15801,0.06323 -0.14024,-0.0058 -0.16877,-0.0343 -0.0727,-0.07273 z M 95.171516,10.203944 c 0.119844,-0.132426 0.244985,-0.240775 0.278092,-0.240775 0.03311,0 -0.03786,0.108349 -0.157705,0.240775 -0.119843,0.132425 -0.244985,0.240774 -0.278091,0.240774 -0.03311,0 0.03786,-0.108349 0.157704,-0.240774 z M 106.76631,5.1858284 c 0.0869,-0.034776 0.19074,-0.0305 0.23074,0.0095 0.04,0.040004 -0.0311,0.068457 -0.158,0.06323 -0.14025,-0.00578 -0.16877,-0.034303 -0.0727,-0.072734 z"
         id="path22" /><path
         style="fill:#e26653"
         d="m 107.78437,293.99363 c 0.11713,-0.0305 0.27966,-0.0285 0.36116,0.004 0.0815,0.033 -0.0143,0.058 -0.21297,0.0555 -0.19864,-0.002 -0.26532,-0.0294 -0.14819,-0.06 z m 1.20387,0 c 0.11714,-0.0305 0.27966,-0.0285 0.36117,0.004 0.0815,0.033 -0.0143,0.058 -0.21297,0.0555 -0.19864,-0.002 -0.26533,-0.0294 -0.1482,-0.06 z m -13.410725,-5.18351 c -0.149746,-0.19094 -0.145488,-0.1952 0.04545,-0.0454 0.115873,0.0909 0.210678,0.18568 0.210678,0.21067 0,0.0991 -0.09886,0.0353 -0.256131,-0.16522 z M 184.37846,225.8175 c 34.69556,-34.69561 63.10992,-63.08292 63.14303,-63.08292 0.0331,0 -28.32708,28.38731 -63.02264,63.08292 -34.69556,34.6956 -63.10992,63.08291 -63.14302,63.08291 -0.0331,0 28.32708,-28.38731 63.02263,-63.08291 z m -97.574177,54.20435 -8.486981,-8.5174 8.517398,8.48698 c 4.684568,4.66784 8.517397,8.50067 8.517397,8.5174 0,0.0167 -0.01369,0.0304 -0.03042,0.0304 -0.01673,0 -3.849558,-3.83283 -8.517397,-8.5174 z M 108.8129,233.44004 c 0.0869,-0.0348 0.19073,-0.0305 0.23074,0.01 0.04,0.04 -0.0311,0.0685 -0.15801,0.0632 -0.14024,-0.006 -0.16877,-0.0343 -0.0727,-0.0727 z m 14.95059,-5.7418 c 0,-0.025 0.0948,-0.11981 0.21067,-0.21068 0.19094,-0.14975 0.1952,-0.14549 0.0455,0.0454 -0.15727,0.20054 -0.25613,0.26431 -0.25613,0.16523 z m -30.168446,-0.34581 -0.229337,-0.27087 0.270872,0.22934 c 0.254552,0.21552 0.325676,0.3124 0.229336,0.3124 -0.02284,0 -0.144736,-0.12189 -0.270871,-0.27087 z m -0.842711,-0.84271 -0.229336,-0.27087 0.270871,0.22934 c 0.254552,0.21552 0.325677,0.3124 0.229336,0.3124 -0.02284,0 -0.144736,-0.12189 -0.270871,-0.27087 z m 32.215027,-0.0153 c 0,-0.025 0.0948,-0.11981 0.21068,-0.21068 0.19094,-0.14975 0.1952,-0.14549 0.0455,0.0454 -0.15727,0.20054 -0.25613,0.26431 -0.25613,0.16523 z M 86.69372,212.2639 c 0.0058,-0.14025 0.0343,-0.16877 0.07273,-0.0727 0.03478,0.0869 0.0305,0.19074 -0.0095,0.23075 -0.04,0.04 -0.06846,-0.0311 -0.06323,-0.15801 z m 0,-1.9262 c 0.0058,-0.14024 0.0343,-0.16877 0.07273,-0.0727 0.03478,0.0869 0.0305,0.19074 -0.0095,0.23074 -0.04,0.04 -0.06846,-0.0311 -0.06323,-0.15801 z m 97.26339,-42.83308 c 0,-0.025 0.0948,-0.11981 0.21068,-0.21068 0.19094,-0.14975 0.19519,-0.14549 0.0455,0.0455 -0.15727,0.20054 -0.25613,0.26431 -0.25613,0.16523 z m 1.20387,-1.20388 c 0,-0.025 0.0948,-0.1198 0.21068,-0.21067 0.19094,-0.14975 0.1952,-0.14549 0.0455,0.0455 -0.15727,0.20053 -0.25613,0.26431 -0.25613,0.16522 z m -216.407507,-4.31858 -0.229336,-0.27087 0.270871,0.22933 c 0.148979,0.12614 0.270871,0.24803 0.270871,0.27088 0,0.0963 -0.09689,0.0252 -0.312406,-0.22934 z M 252.58734,150.62563 c 0.006,-0.14024 0.0343,-0.16877 0.0727,-0.0727 0.0348,0.0869 0.0305,0.19073 -0.01,0.23074 -0.04,0.04 -0.0685,-0.0311 -0.0632,-0.15801 z m -288.799491,-0.53171 c 0,-0.16553 0.02732,-0.23325 0.06072,-0.15048 0.0334,0.0828 0.0334,0.2182 0,0.30096 -0.0334,0.0828 -0.06072,0.015 -0.06072,-0.15048 z m 288.808991,-0.9631 c 0,-0.16553 0.0273,-0.23325 0.0607,-0.15048 0.0334,0.0828 0.0334,0.2182 0,0.30097 -0.0334,0.0828 -0.0607,0.015 -0.0607,-0.15049 z m -288.808991,-0.60193 c 0,-0.16554 0.02732,-0.23325 0.06072,-0.15049 0.0334,0.0828 0.0334,0.2182 0,0.30097 -0.0334,0.0828 -0.06072,0.0151 -0.06072,-0.15048 z m 169.787011,-20.73671 -14.92783,-14.95811 14.95811,14.92783 c 8.22697,8.21031 14.95812,14.94147 14.95812,14.95812 0,0.0166 -0.0136,0.0303 -0.0303,0.0303 -0.0166,0 -6.74781,-6.73115 -14.95812,-14.95812 z m 114.05174,9.4504 c -0.14974,-0.19094 -0.14549,-0.1952 0.0455,-0.0455 0.11587,0.0909 0.21067,0.18568 0.21067,0.21068 0,0.0991 -0.0989,0.0353 -0.25613,-0.16523 z M 12.2849,93.09056 C 36.154611,69.22078 55.711462,49.690959 55.744569,49.690959 c 0.03311,0 -19.469571,19.529821 -43.339282,43.399601 -23.869712,23.86978 -43.426563,43.3996 -43.45967,43.3996 -0.03311,0 19.469571,-19.52982 43.339283,-43.3996 z m 172.32981,42.28602 -0.59741,-0.63203 0.63203,0.59741 c 0.34762,0.32857 0.63204,0.61299 0.63204,0.63203 0,0.0898 -0.11153,-0.0101 -0.66666,-0.59741 z m -15.79464,-6.43682 c 0.18299,-0.0277 0.45386,-0.0269 0.60193,0.002 0.14807,0.0286 -0.002,0.0512 -0.33272,0.0503 -0.33106,-9e-4 -0.45221,-0.0243 -0.26921,-0.052 z M 86.69372,91.876655 c 0.0058,-0.140244 0.0343,-0.16877 0.07273,-0.07273 0.03478,0.08691 0.0305,0.190739 -0.0095,0.230743 -0.04,0.04 -0.06846,-0.0311 -0.06323,-0.158009 z m 44.31647,-0.471516 c 0.002,-0.198639 0.0294,-0.265326 0.06,-0.148193 0.0305,0.117133 0.0285,0.279655 -0.004,0.361162 -0.033,0.08151 -0.0579,-0.01433 -0.0555,-0.212969 z m -0.004,-1.023292 c 0,-0.165532 0.0273,-0.23325 0.0607,-0.150484 0.0334,0.08277 0.0334,0.218202 0,0.300968 -0.0334,0.08277 -0.0607,0.01505 -0.0607,-0.150484 z m -44.31201,-0.311 c 0.0058,-0.140245 0.0343,-0.168771 0.07273,-0.07273 0.03478,0.0869 0.0305,0.190738 -0.0095,0.230742 -0.04,0.04 -0.06846,-0.0311 -0.06323,-0.158008 z m 38.20201,-14.40634 -0.22934,-0.270872 0.27087,0.229337 c 0.25455,0.215519 0.32568,0.312406 0.22934,0.312406 -0.0229,0 -0.14474,-0.121892 -0.27087,-0.270871 z m -0.72233,-0.722324 -0.22933,-0.270871 0.27087,0.229336 c 0.25455,0.21552 0.32567,0.312407 0.22933,0.312407 -0.0228,0 -0.14473,-0.121893 -0.27087,-0.270872 z M 81.748339,23.627121 c 7.250095,-7.250322 13.209077,-13.182403 13.242184,-13.182403 0.03311,0 -5.871702,5.932081 -13.121797,13.182403 -7.250095,7.250322 -13.209078,13.182403 -13.242185,13.182403 -0.03311,0 5.871703,-5.932081 13.121798,-13.182403 z m 38.813451,-13.453274 -0.22934,-0.2708716 0.27087,0.2293366 c 0.25455,0.215519 0.32568,0.312406 0.22934,0.312406 -0.0229,0 -0.14474,-0.121892 -0.27087,-0.270871 z M 107.12747,5.1858284 c 0.0869,-0.034776 0.19074,-0.0305 0.23075,0.0095 0.04,0.040004 -0.0311,0.068457 -0.15801,0.06323 -0.14025,-0.00578 -0.16877,-0.034303 -0.0727,-0.072734 z m 1.43713,0.00251 c 0.0828,-0.033397 0.2182,-0.033397 0.30096,0 0.0828,0.033397 0.0151,0.060722 -0.15048,0.060722 -0.16553,0 -0.23325,-0.027325 -0.15048,-0.060722 z"
         id="path21" /><path
         style="fill:#e05b46"
         d="m 23.661444,216.87874 -54.655758,-54.6859 54.685905,54.65576 c 30.077248,30.06066 54.685905,54.66932 54.685905,54.6859 0,0.0166 -0.01357,0.0301 -0.03015,0.0301 -0.01658,0 -24.625238,-24.60866 -54.685905,-54.68591 z M 153.00223,166.49668 c -0.14975,-0.19094 -0.14549,-0.1952 0.0455,-0.0454 0.20054,0.15727 0.26431,0.25613 0.16523,0.25613 -0.025,0 -0.11981,-0.0948 -0.21068,-0.21068 z"
         id="path20" /><path
         style="fill:#de5843"
         d="m 108.32382,293.99733 c 0.0828,-0.0334 0.2182,-0.0334 0.30097,0 0.0828,0.0334 0.0151,0.0607 -0.15048,0.0607 -0.16554,0 -0.23325,-0.0273 -0.15049,-0.0607 z m 16.5078,-98.12616 c -0.14975,-0.19094 -0.14549,-0.1952 0.0455,-0.0455 0.11587,0.0909 0.21068,0.18567 0.21068,0.21067 0,0.0991 -0.0989,0.0353 -0.25613,-0.16522 z m -31.766881,-0.19594 c 0,-0.025 0.0948,-0.1198 0.210678,-0.21068 0.190941,-0.14974 0.195199,-0.14548 0.04545,0.0455 -0.15727,0.20053 -0.256131,0.2643 -0.256131,0.16522 z m 31.108661,-0.46619 -0.22933,-0.27087 0.27087,0.22933 c 0.25455,0.21552 0.32567,0.31241 0.22933,0.31241 -0.0228,0 -0.14473,-0.12189 -0.27087,-0.27087 z M 184.13765,73.738311 121.05477,10.625299 184.16779,73.708171 c 34.71215,34.695579 63.11301,63.096439 63.11301,63.113009 0,0.0166 -0.0136,0.0301 -0.0301,0.0301 -0.0166,0 -28.41744,-28.40085 -63.11301,-63.113009 z m -38.34347,40.389919 -15.95114,-15.981406 15.98141,15.951136 c 8.78977,8.77313 15.9814,15.96476 15.9814,15.98141 0,0.0166 -0.0136,0.0303 -0.0303,0.0303 -0.0166,0 -7.20828,-7.19164 -15.98141,-15.98141 z M 93.410545,106.905 c -0.149746,-0.19094 -0.145488,-0.1952 0.04545,-0.0455 0.115873,0.0909 0.210678,0.18568 0.210678,0.21068 0,0.0991 -0.09886,0.0353 -0.256131,-0.16522 z m -0.658212,-0.66213 -0.229336,-0.27087 0.270871,0.22933 c 0.254552,0.21552 0.325677,0.31241 0.229336,0.31241 -0.02284,0 -0.144736,-0.12189 -0.270871,-0.27087 z"
         id="path19" /><path
         style="fill:#dd4b35"
         d="m 105.52482,293.77678 c -3.03648,-0.53623 -5.774714,-1.72643 -8.186334,-3.55828 -1.443229,-1.09627 -129.034806,-128.71568 -129.923515,-129.95186 -1.779431,-2.47516 -2.952423,-5.35865 -3.403625,-8.36691 -0.193265,-1.28854 -0.169299,-4.08109 0.04653,-5.42237 0.500174,-3.1083 1.682429,-5.87778 3.569613,-8.36197 0.579271,-0.76253 13.752685,-14.01108 44.470153,-44.723803 L 55.744701,49.75127 72.066738,66.073307 88.388775,82.395344 87.903444,83.830367 c -2.744535,8.115016 -0.637,16.988183 5.455992,22.970883 1.805321,1.77264 4.315636,3.51379 6.25342,4.33736 l 0.795504,0.3381 v 39.6266 39.62661 l -1.294162,0.64259 c -1.519279,0.75438 -3.006621,1.7012 -4.185441,2.66441 -9.350023,7.63983 -10.931907,21.05842 -3.625899,30.75728 0.929522,1.23396 2.871965,3.17643 4.121246,4.12131 8.297836,6.27596 19.755616,6.01524 27.729206,-0.63097 4.42289,-3.6866 7.23756,-9.02633 7.8275,-14.84959 0.70819,-6.99052 -2.13075,-14.20934 -7.39881,-18.81357 -1.08388,-0.9473 -3.10629,-2.34537 -4.16814,-2.88139 l -0.70664,-0.35671 v -39.21435 -39.21435 l 14.87698,14.87698 14.87698,14.87697 -0.42967,1.28424 c -0.23632,0.70632 -0.57609,1.97527 -0.75506,2.81988 -0.29905,1.41137 -0.32557,1.75974 -0.32769,4.30456 -0.002,2.56923 0.0216,2.88177 0.3298,4.33394 1.4704,6.92911 5.66787,12.42033 11.86741,15.52521 9.16471,4.5899 20.36499,2.2591 26.91702,-5.6015 3.39832,-4.07704 5.13367,-8.89599 5.13429,-14.25765 5.3e-4,-4.55797 -1.22003,-8.60128 -3.72921,-12.35368 -3.78462,-5.65979 -9.78222,-9.15471 -16.71362,-9.73934 -2.50294,-0.21112 -5.36041,0.0795 -7.83597,0.79685 l -1.03964,0.30128 -15.99414,-15.99415 -15.99415,-15.99414 0.31335,-1.077088 c 1.93648,-6.656441 0.55711,-14.002734 -3.672,-19.55653 -3.27796,-4.304707 -8.00107,-7.221556 -13.48288,-8.326616 -1.20446,-0.242804 -1.7366,-0.278973 -4.09316,-0.278202 -2.88272,9.42e-4 -3.61316,0.0902 -6.00992,0.734368 L 101.81171,69.934806 85.249018,53.371651 68.686323,36.808495 82.350275,23.159033 C 91.048982,14.469551 96.342327,9.2702786 96.917131,8.8510563 c 3.310779,-2.4146537 6.970879,-3.603038 11.074799,-3.5958385 3.78529,0.00664 7.09314,1.0040834 10.28873,3.1024506 1.13738,0.7468498 5.04007,4.6249676 65.81065,65.3962136 58.88128,58.881928 64.66753,64.702428 65.34654,65.733268 2.14172,3.25147 3.14723,6.56584 3.14976,10.38226 0.003,4.11267 -1.17614,7.74246 -3.59183,11.05936 -0.44134,0.60599 -21.72472,21.96909 -64.72065,64.96307 -61.85032,61.84752 -64.10818,64.08995 -65.36918,64.92251 -2.11782,1.39826 -4.21325,2.28669 -6.69964,2.84055 -1.25994,0.28066 -5.35896,0.35543 -6.68149,0.12188 z"
         id="path18" /></g></g></svg>
