<?xml version="1.0" standalone="no"?>
<!DOCTYPE svg PUBLIC "-//W3C//DTD SVG 20010904//EN"
 "http://www.w3.org/TR/2001/REC-SVG-20010904/DTD/svg10.dtd">
<svg version="1.0" xmlns="http://www.w3.org/2000/svg"
 width="1024.000000pt" height="1024.000000pt" viewBox="0 0 1024.000000 1024.000000"
 preserveAspectRatio="xMidYMid meet">
<metadata>
Created by potrace 1.16, written by Peter Selinger 2001-2019
</metadata>
<g transform="translate(0.000000,1024.000000) scale(0.100000,-0.100000)"
fill="#000000" stroke="none">
<path d="M5195 9218 c-208 -17 -405 -96 -596 -241 -101 -76 -255 -238 -302
-318 -42 -71 -81 -186 -97 -281 -15 -93 -12 -373 6 -623 19 -256 14 -596 -10
-745 -43 -267 -133 -517 -269 -750 -24 -41 -67 -115 -96 -165 -29 -49 -124
-193 -211 -320 -199 -291 -294 -443 -386 -620 -195 -374 -274 -654 -274 -970
l0 -154 -56 -129 c-96 -225 -139 -257 -449 -336 -77 -20 -164 -48 -194 -63
-66 -34 -124 -98 -153 -172 -20 -51 -22 -70 -19 -216 1 -88 3 -189 4 -225 1
-62 -2 -69 -50 -148 -57 -92 -73 -148 -73 -255 1 -176 62 -288 205 -372 67
-40 240 -92 450 -135 491 -101 653 -141 748 -183 88 -40 273 -97 362 -113 345
-61 624 56 746 312 l43 91 126 27 c267 55 313 60 560 61 253 0 319 -8 505 -62
154 -45 384 -147 385 -171 0 -33 69 -148 117 -197 235 -241 719 -190 1023 107
36 35 146 120 245 188 99 68 200 138 225 155 25 17 176 122 337 233 269 187
294 206 321 255 39 69 45 99 32 162 -21 103 -136 244 -330 407 -123 104 -124
105 -195 396 -47 192 -106 265 -249 312 l-39 12 7 67 c24 261 15 462 -30 693
-98 504 -373 1025 -817 1547 -180 212 -309 472 -370 752 -43 192 -51 317 -44
710 10 517 -9 663 -110 864 -104 206 -280 388 -481 497 -83 45 -196 88 -272
104 -67 13 -195 19 -275 12z m422 -1100 c75 -28 163 -114 200 -195 35 -77 43
-204 18 -288 -22 -76 -63 -156 -114 -225 -22 -30 -42 -58 -43 -62 -2 -5 -45 6
-95 23 l-92 32 44 50 c51 56 75 122 75 206 0 80 -16 128 -59 174 -33 35 -44
41 -93 45 -65 5 -118 -18 -166 -72 -53 -60 -76 -181 -52 -265 5 -19 8 -36 7
-38 -2 -1 -32 7 -67 18 l-63 22 7 88 c13 166 65 318 141 406 20 23 62 55 97
72 78 39 167 42 255 9z m-1012 -83 c88 -51 143 -187 152 -376 l6 -115 -49 -20
c-27 -10 -52 -20 -56 -22 -4 -2 -3 11 4 28 13 40 5 127 -17 171 -35 70 -118
139 -166 139 -34 0 -85 -62 -99 -121 -25 -103 5 -196 84 -266 l45 -40 -44 -32
-44 -32 -27 43 c-59 94 -104 239 -104 337 0 148 78 288 180 324 38 13 95 6
135 -18z m443 -515 c45 -11 176 -55 290 -99 114 -43 251 -93 305 -111 103 -34
148 -63 174 -113 30 -59 12 -177 -35 -230 -25 -28 -318 -220 -438 -287 -238
-132 -435 -170 -570 -111 -79 35 -134 83 -257 225 -119 137 -120 139 -72 111
28 -16 55 -32 60 -35 6 -4 41 -19 78 -34 310 -123 624 -43 1054 268 34 24 50
42 46 52 -8 20 -21 18 -62 -14 -268 -210 -575 -333 -796 -319 -151 9 -271 56
-448 174 -96 64 -98 66 -91 96 32 149 268 341 519 423 87 29 137 29 243 4z
m761 -720 c43 -177 121 -450 180 -628 109 -331 142 -405 426 -958 109 -213
162 -458 181 -839 l7 -135 59 0 59 0 34 73 c63 131 79 211 79 392 0 134 -3
173 -22 241 -45 168 -127 324 -245 471 -38 47 -60 80 -50 75 31 -17 176 -173
214 -232 177 -269 213 -577 103 -896 -13 -39 -24 -73 -24 -76 0 -3 33 -8 73
-11 99 -9 217 -41 310 -84 42 -20 75 -38 73 -40 -2 -2 -30 3 -62 12 -176 46
-465 56 -612 20 -142 -34 -231 -110 -232 -198 -1 -14 -15 -32 -40 -49 -48 -33
-94 -126 -109 -218 -6 -36 -14 -156 -17 -268 l-7 -204 -60 -85 c-173 -242
-441 -412 -768 -485 -91 -20 -130 -23 -314 -23 -226 1 -310 13 -490 70 -100
32 -333 146 -363 178 l-22 24 61 48 c68 53 119 117 119 149 0 41 -38 81 -126
135 -246 150 -318 204 -445 330 -205 206 -335 427 -405 691 -35 130 -44 355
-20 483 22 115 66 240 126 354 51 97 165 257 221 308 33 31 31 21 -7 -30 -89
-119 -180 -318 -221 -481 -25 -98 -28 -126 -27 -279 0 -172 6 -213 51 -365
l16 -55 13 134 c32 337 107 557 388 1144 90 188 185 392 211 452 110 258 202
547 246 779 12 61 23 118 26 126 3 10 20 -3 56 -45 109 -128 221 -231 280
-259 215 -101 452 -31 892 263 83 55 153 97 156 93 3 -4 16 -50 28 -102z
m-2620 -2621 c90 -55 166 -154 687 -899 300 -430 427 -604 479 -655 115 -115
152 -220 142 -408 -5 -109 -18 -152 -73 -247 -69 -119 -197 -211 -339 -245
-78 -19 -251 -19 -356 0 -95 16 -242 63 -339 107 -79 36 -295 90 -650 163
-147 30 -307 66 -356 80 -181 52 -293 128 -341 231 -41 90 -47 241 -13 329 6
16 34 69 62 118 l51 88 -9 92 c-5 51 -9 149 -9 218 0 121 2 128 33 191 52 106
105 137 331 193 163 41 210 58 266 96 93 63 120 104 230 356 60 140 112 213
148 213 12 0 37 -9 56 -21z m3240 -331 c26 -201 70 -317 148 -389 58 -53 98
-69 177 -69 136 0 275 79 437 246 85 89 140 161 189 248 l33 59 92 -5 c70 -4
104 -11 152 -32 110 -50 146 -110 197 -332 51 -224 60 -239 206 -364 189 -161
290 -289 306 -387 7 -48 -24 -128 -64 -166 -15 -13 -250 -179 -522 -367 -304
-210 -522 -368 -566 -409 -116 -111 -211 -167 -364 -216 -112 -36 -275 -45
-368 -21 -191 49 -310 167 -358 356 -24 94 -14 302 19 425 68 248 77 290 86
423 6 75 7 250 4 387 -9 392 14 562 85 646 22 27 71 57 93 59 4 0 12 -42 18
-92z"/>
</g>
</svg>
