<?xml version="1.0" encoding="UTF-8" standalone="no"?>
<!-- Created with Inkscape (http://www.inkscape.org/) -->

<svg
   width="163.95863mm"
   height="163.95863mm"
   viewBox="0 0 163.95863 163.95863"
   version="1.1"
   id="svg1"
   xml:space="preserve"
   inkscape:version="1.4 (e7c3feb100, 2024-10-09)"
   sodipodi:docname="linux.svg"
   xmlns:inkscape="http://www.inkscape.org/namespaces/inkscape"
   xmlns:sodipodi="http://sodipodi.sourceforge.net/DTD/sodipodi-0.dtd"
   xmlns="http://www.w3.org/2000/svg"
   xmlns:svg="http://www.w3.org/2000/svg"><sodipodi:namedview
     id="namedview1"
     pagecolor="#505050"
     bordercolor="#eeeeee"
     borderopacity="1"
     inkscape:showpageshadow="0"
     inkscape:pageopacity="0"
     inkscape:pagecheckerboard="0"
     inkscape:deskcolor="#505050"
     inkscape:document-units="mm"
     inkscape:zoom="0.54740759"
     inkscape:cx="108.69415"
     inkscape:cy="357.13791"
     inkscape:window-width="1876"
     inkscape:window-height="986"
     inkscape:window-x="0"
     inkscape:window-y="0"
     inkscape:window-maximized="1"
     inkscape:current-layer="layer1" /><defs
     id="defs1" /><g
     inkscape:label="Layer 1"
     inkscape:groupmode="layer"
     id="layer1"
     transform="translate(-29.249634,-72.081367)"><a
       id="a13"
       transform="matrix(1.3384904,0,0,1.3384904,-194.88445,-43.550695)"><path
         style="fill:#000000"
         d="m 249.73103,208.65122 c -2.80205,-0.63393 -5.23476,-2.68056 -5.92511,-4.98475 -0.1852,-0.61815 -0.27103,-0.68374 -1.93832,-1.48124 -6.34992,-3.03734 -12.64729,-3.5328 -21.4414,-1.68695 l -2.00508,0.42086 -0.68374,1.43592 c -1.62966,3.42245 -4.80722,5.25496 -9.10935,5.25339 -2.48443,-9e-4 -5.10813,-0.60547 -8.3728,-1.92932 -2.22217,-0.9011 -4.91163,-1.57247 -11.84072,-2.9558 -5.2221,-1.04254 -7.65003,-1.95565 -9.14131,-3.43793 -1.22324,-1.21587 -1.75442,-2.71723 -1.75442,-4.95885 0,-1.43127 0.35207,-2.54294 1.30841,-4.13137 0.90514,-1.50338 0.91335,-1.56193 0.60628,-4.32316 -0.46215,-4.15566 0.46636,-6.52857 3.0271,-7.73604 0.40828,-0.19252 1.85913,-0.62926 3.22412,-0.97054 4.32098,-1.08035 5.2579,-1.78394 6.7324,-5.05578 l 0.85073,-1.88775 0.11093,-3.12226 c 0.18974,-5.34067 1.20717,-9.01676 4.08115,-14.74569 1.38977,-2.77034 3.01229,-5.34523 7.86029,-12.474 0.74861,-1.1008 1.67213,-2.54184 2.05227,-3.20232 0.38014,-0.66048 1.16257,-2.01623 1.73873,-3.01278 2.22811,-3.85382 3.62714,-8.08653 4.18907,-12.67379 0.27665,-2.25845 0.31875,-7.51494 0.0802,-10.01202 -0.2838,-2.97062 -0.38066,-9.01492 -0.16806,-10.48759 0.42186,-2.922215 1.52562,-5.171967 3.59843,-7.334529 3.19821,-3.336692 7.06699,-5.550919 10.85339,-6.211742 1.99317,-0.347859 5.15627,-0.229608 6.85581,0.256301 3.64125,1.041054 7.01186,3.454135 9.4863,6.79141 1.64597,2.219928 2.51997,4.262317 3.10656,7.25949 0.23485,1.19996 0.27681,2.55913 0.29287,9.48648 0.0159,6.85488 0.0594,8.28844 0.28561,9.41659 0.6941,3.46119 1.61891,6.15551 3.02854,8.82325 1.06835,2.02187 1.80464,3.08065 3.80716,5.47464 6.70991,8.02166 10.99257,16.25822 12.56224,24.16016 0.7151,3.59988 0.84365,6.59258 0.47162,10.9794 l -0.096,1.13228 1.02022,0.36709 c 0.76122,0.2739 1.22835,0.5797 1.84001,1.20454 0.94111,0.96138 1.33729,1.87094 1.90753,4.37944 0.46204,2.03254 0.99531,3.68156 1.33754,4.13609 0.14205,0.18866 0.91951,0.8925 1.72768,1.5641 1.80688,1.50151 3.80112,3.61715 4.49319,4.76671 0.9369,1.55622 0.96054,2.99849 0.0724,4.41899 -0.35978,0.57544 -1.79321,1.63136 -8.67694,6.39182 -5.68848,3.93387 -8.64324,6.07985 -9.52689,6.91917 -2.56364,2.43504 -5.74114,3.79567 -9.20666,3.94238 -1.13941,0.0482 -2.01663,-0.005 -2.72197,-0.1643 z m 4.51976,-0.62862 c 2.62494,-0.50223 5.30048,-1.90974 7.28855,-3.83426 0.59962,-0.58044 4.36865,-3.30882 9.20947,-6.66668 7.30697,-5.0685 8.24635,-5.76845 8.67354,-6.46288 0.65015,-1.05686 0.65676,-2.09408 0.0208,-3.25894 -0.66164,-1.21184 -2.08955,-2.82332 -3.79944,-4.28788 -3.05356,-2.61546 -3.12451,-2.73165 -3.97706,-6.51273 -0.75671,-3.35601 -1.34499,-4.36298 -3.00188,-5.13833 -0.84707,-0.39639 -1.3018,-0.49791 -2.49918,-0.55791 l -1.4637,-0.0734 -0.54299,0.93718 c -1.99865,3.44959 -5.30062,6.55971 -8.00828,7.54298 -3.85695,1.40063 -6.41675,-0.89043 -7.17082,-6.41801 -0.25362,-1.85914 -0.29116,-1.97821 -0.60025,-1.90404 -0.64116,0.15386 -1.41304,0.88997 -1.78169,1.69913 -0.66833,1.46694 -0.75458,2.51512 -0.79848,9.70414 -0.0458,7.50052 -0.0925,7.98628 -1.10513,11.50457 -0.71239,2.47504 -0.88477,3.55529 -0.88627,5.55415 -0.002,2.6651 0.69551,4.63101 2.16529,6.10275 1.92783,1.93038 4.99665,2.69786 8.27755,2.07012 z m -42.95,-1.30355 c 1.7704,-0.41726 3.19609,-1.21054 4.30384,-2.39472 1.67118,-1.7865 2.42346,-3.69934 2.42346,-6.1622 0,-2.50105 -0.83659,-4.58591 -2.36863,-5.90284 -0.64996,-0.55871 -2.46707,-3.03576 -7.35682,-10.02869 -7.71547,-11.03405 -8.4037,-11.97509 -9.87698,-13.50513 -2.50178,-2.59815 -2.82092,-2.40207 -5.30225,3.25772 -1.2016,2.7408 -1.82005,3.55289 -3.43583,4.5116 -0.70021,0.41546 -1.56856,0.6932 -4.40128,1.40774 -2.74218,0.69169 -3.76406,1.2532 -4.51283,2.47972 -0.88423,1.44839 -0.97423,2.53217 -0.59522,7.16759 l 0.10762,1.31635 -0.82381,1.42741 c -1.09539,1.89799 -1.32258,2.58877 -1.324,4.02575 -0.002,2.17301 0.45675,3.44826 1.64916,4.58298 1.45532,1.38491 3.27991,2.07196 8.24824,3.1059 8.95928,1.86447 10.17132,2.16623 12.54,3.12207 2.17787,0.87885 3.06731,1.1626 4.76905,1.52143 1.75746,0.37058 4.53631,0.40199 5.95628,0.0673 z m 19.37645,-15.04595 c 3.23562,-0.51738 6.64303,-1.89998 9.17456,-3.72269 1.51875,-1.09351 3.495,-3.12137 4.49578,-4.61319 l 0.74009,-1.1032 0.002,-1.52281 c 0.004,-2.74647 0.29268,-5.97087 0.63244,-7.07088 0.36456,-1.1803 1.0274,-2.18856 1.65983,-2.52481 0.27045,-0.14379 0.42733,-0.36039 0.42733,-0.59001 0,-3.27709 6.36315,-4.49203 14.17025,-2.70557 l 0.48035,0.10991 -0.5423,-0.34601 c -1.26507,-0.8072 -3.72587,-1.55045 -5.66219,-1.7102 -0.6825,-0.0563 -1.2409,-0.16108 -1.2409,-0.23283 0,-0.0718 0.15021,-0.5114 0.3338,-0.977 1.08104,-2.74156 1.32724,-6.91283 0.57654,-9.76832 -0.71979,-2.73797 -1.86802,-4.73916 -3.98355,-6.94275 -1.81748,-1.89313 -2.118,-1.96925 -0.7215,-0.18275 1.92716,2.46535 3.00441,4.5527 3.82134,7.40448 0.30937,1.07997 0.36654,1.66119 0.3698,3.75927 0.004,2.8008 -0.27366,4.18587 -1.27535,6.35391 l -0.54129,1.17154 h -0.89608 c -0.57957,0 -0.91631,-0.0707 -0.95335,-0.20015 -0.0315,-0.11008 -0.13685,-1.49708 -0.23412,-3.08223 -0.29939,-4.87921 -0.91291,-7.98824 -2.159,-10.94074 -0.30961,-0.73358 -1.24984,-2.61527 -2.08942,-4.18152 -3.56039,-6.64201 -5.79199,-12.70101 -8.11192,-22.02461 -0.28486,-1.14483 -0.56099,-2.13227 -0.61362,-2.1943 -0.0526,-0.062 -1.34189,0.70821 -2.86501,1.71165 -6.87886,4.53185 -10.66919,5.58702 -14.01053,3.90032 -1.1254,-0.5681 -2.09246,-1.44173 -3.82749,-3.4577 -0.70107,-0.81459 -1.3246,-1.48107 -1.38563,-1.48107 -0.061,0 -0.19945,0.5624 -0.30761,1.24977 -0.8628,5.48336 -3.04007,11.44791 -7.63882,20.92627 -4.41452,9.09864 -5.76576,13.18498 -6.10742,18.46972 l -0.10952,1.69391 -0.22345,-0.63498 c -0.71927,-2.04391 -0.91273,-3.32768 -0.91606,-6.07892 -0.003,-2.45806 0.0395,-2.88714 0.43789,-4.42566 0.71221,-2.75025 1.79775,-5.14642 3.40545,-7.51705 0.84987,-1.25318 0.87189,-1.30791 0.31644,-0.7865 -2.04247,1.91729 -4.52831,6.22718 -5.31019,9.20666 -0.56529,2.15414 -0.7051,5.71038 -0.30845,7.84568 0.70047,3.77084 2.69409,7.82442 5.47297,11.12805 1.79369,2.13242 3.83225,3.76439 7.42667,5.94543 2.07139,1.25688 2.83002,1.88607 2.97615,2.46831 0.15861,0.63196 -0.41403,1.50731 -1.64931,2.52116 l -1.1762,0.96537 0.35084,0.37345 c 0.38124,0.40582 2.82124,1.70355 4.41418,2.34773 1.51722,0.61356 3.65029,1.20307 5.24948,1.45077 1.99253,0.30864 6.04169,0.31635 7.92573,0.0151 z m -4.19629,-62.29375 c 2.46815,-0.50634 5.08371,-1.83011 9.67814,-4.89825 2.10348,-1.40468 2.40327,-1.66191 2.762,-2.36983 0.28692,-0.5662 0.40241,-1.05065 0.40241,-1.68802 0,-1.73753 -0.63137,-2.32125 -3.61355,-3.34082 -1.13881,-0.38934 -3.40353,-1.21419 -5.03271,-1.833 -2.78679,-1.0585 -4.84619,-1.62847 -5.8839,-1.62847 -1.45631,0 -4.7588,1.44532 -6.85594,3.00047 -2.04924,1.51963 -3.27244,3.10452 -3.27114,4.23839 5.5e-4,0.48603 0.11507,0.60331 1.48107,1.5168 1.75016,1.17041 3.48425,2.01684 4.92296,2.40297 1.53056,0.41077 4.19636,0.38039 5.84423,-0.0666 2.62849,-0.71301 5.38757,-2.08991 8.1187,-4.05158 0.85467,-0.61388 1.62152,-1.11615 1.70411,-1.11615 0.0826,0 0.1901,0.10408 0.23892,0.23128 0.15162,0.39512 -3.13733,2.67128 -5.7386,3.97148 -5.197,2.59761 -9.46218,2.68709 -13.69703,0.28736 l -1.13025,-0.64047 1.48681,1.71781 c 2.04337,2.36084 3.06695,3.32354 4.0398,3.79951 1.48236,0.72525 2.68379,0.84876 4.54397,0.46714 z m -5.32383,-11.74454 c -0.1385,-0.22409 0.56316,-0.65142 1.06961,-0.65142 0.60572,0 0.55856,0.20663 -0.12112,0.53075 -0.64696,0.30851 -0.81888,0.33039 -0.94849,0.12067 z m 5.15696,-0.13443 c -0.89241,-0.29684 -0.95929,-0.46519 -0.2385,-0.60041 0.70317,-0.13192 1.39934,0.14659 1.39934,0.55981 0,0.37751 -0.13386,0.38219 -1.16084,0.0406 z m 10.60768,-0.81631 c 0,-0.0766 0.27495,-0.49086 0.611,-0.92066 0.85692,-1.09599 1.36857,-2.0463 1.78713,-3.31935 0.50094,-1.52357 0.41939,-3.61239 -0.19294,-4.94242 -0.82565,-1.79335 -2.44928,-3.08353 -4.39826,-3.49497 -1.63692,-0.34556 -3.64474,0.5212 -4.77663,2.06204 -1.11916,1.52352 -1.99416,4.4912 -1.99615,6.77024 l -6.4e-4,0.7391 0.97395,0.35512 c 0.53567,0.19531 1.00003,0.32904 1.0319,0.29716 0.0319,-0.0319 -0.008,-0.34414 -0.0895,-0.69393 -0.62675,-2.70329 0.96485,-5.35938 3.2115,-5.35938 1.76045,0 2.83559,1.56433 2.6828,3.90347 -0.0849,1.2994 -0.49839,2.267 -1.34749,3.15303 l -0.54797,0.57181 1.40556,0.49861 c 1.57611,0.55912 1.64573,0.5752 1.64573,0.38013 z m -19.61845,-1.8364 c -1.3713,-1.33513 -1.68572,-3.03696 -0.89243,-4.83032 0.66393,-1.50093 1.80466,-1.52858 3.11117,-0.0754 1.06673,1.18646 1.49975,2.78332 1.06491,3.92705 -0.12609,0.33163 -0.117,0.41066 0.04,0.34823 0.11173,-0.0444 0.50936,-0.20457 0.88363,-0.3559 l 0.68049,-0.27512 -0.001,-1.22352 c -0.003,-3.24055 -0.94647,-5.77686 -2.48342,-6.67757 -2.36924,-1.38847 -5.04081,1.19484 -5.04081,4.87428 0,1.64425 0.67233,3.89287 1.60252,5.35962 l 0.48281,0.76131 0.70056,-0.50311 0.70056,-0.5031 z"
         id="path7" /><path
         style="fill:#ffcd1c;fill-opacity:1;stroke-width:0.913396"
         d="m 663.12563,507.52928 c -3.51658,-0.9076 -10.91509,-3.31826 -16.44113,-5.35699 -5.54703,-2.04649 -18.02522,-5.42036 -27.85859,-7.53245 -37.2123,-7.99277 -43.27608,-9.92909 -49.1848,-15.70595 -4.39989,-4.3017 -5.86337,-7.75578 -6.32524,-14.92863 -0.39554,-6.14284 -0.25085,-6.70605 3.68652,-14.35046 l 4.09822,-7.95669 -0.46579,-12.20696 c -0.52419,-13.73704 0.19324,-17.2448 4.53938,-22.19479 2.16858,-2.46987 4.38082,-3.6116 10.63571,-5.48903 4.34369,-1.30378 10.56929,-3.18208 13.83468,-4.174 11.14434,-3.38528 14.0836,-6.50329 21.38378,-22.6842 4.53988,-10.0627 8.0631,-15.52773 10.01047,-15.52773 3.98474,0 13.30431,11.49937 38.49322,47.4966 22.78883,32.5673 30.20406,42.71979 34.87942,47.75488 6.32843,6.81534 8.01652,11.37063 8.02792,21.66323 0.008,7.47894 -0.32277,9.38617 -2.39733,13.81056 -3.38293,7.21478 -8.21704,12.17284 -15.23897,15.62972 -5.50498,2.71009 -6.87274,2.98843 -15.65779,3.18629 -6.9112,0.15567 -11.42909,-0.24859 -16.01968,-1.4334 z"
         id="path8"
         transform="matrix(0.26458333,0,0,0.26458333,29.249634,72.081367)" /><path
         style="fill:#ffcd1c;fill-opacity:1;stroke-width:0.913396"
         d="m 829.95898,511.96205 c -6.87236,-2.47229 -12.3125,-7.24453 -15.3607,-13.47481 -2.18119,-4.4582 -2.60359,-6.58059 -2.86111,-14.37581 -0.26945,-8.15658 0.0595,-10.52804 3.04237,-21.93296 l 3.34449,-12.78755 0.72053,-30.59877 c 0.52415,-22.25924 1.06512,-31.53681 1.98486,-34.04056 1.25784,-3.42415 5.6845,-8.88906 7.20025,-8.88906 0.43702,0 1.05889,1.54135 1.38192,3.42523 2.35285,13.72151 5.68312,22.24499 10.0263,25.66134 5.8731,4.61978 13.5869,4.74428 22.29624,0.35985 6.7721,-3.40919 18.7208,-14.95562 24.25707,-23.44043 l 4.56389,-6.99455 5.02677,0.60458 c 12.98731,1.56201 16.02268,4.91568 20.5639,22.72025 2.44967,9.60432 5.53024,15.92345 8.91005,18.27707 4.09022,2.84833 16.55718,15.66588 19.08459,19.62128 4.0665,6.36406 3.27813,11.85012 -2.40084,16.7069 -1.02019,0.87249 -13.71929,9.91511 -28.22023,20.09472 -14.50094,10.17961 -30.32553,21.70344 -35.16576,25.60851 -9.16288,7.39259 -18.66959,12.67933 -25.69823,14.29096 -6.66107,1.52733 -17.20632,1.13882 -22.69636,-0.83619 z"
         id="path9"
         transform="matrix(0.26458333,0,0,0.26458333,29.249634,72.081367)" /><path
         style="fill:#ffcd1c;fill-opacity:1;stroke-width:0.913396"
         d="m 732.99452,216.07817 c -1.25917,-0.38302 -3.51983,-1.33582 -5.02368,-2.11733 -3.00152,-1.5598 -16.49715,-15.083 -15.77396,-15.80619 0.24765,-0.24766 2.33188,0.35626 4.63161,1.34204 14.54692,6.23554 31.62839,4.36096 49.86436,-5.47229 9.17557,-4.94768 18.37117,-11.56394 18.37117,-13.21811 0,-2.22673 -1.85496,-1.52582 -9.52749,3.59998 -15.69759,10.48714 -28.09967,15.1708 -40.17146,15.1708 -9.47112,0 -16.18604,-2.18663 -26.31359,-8.56868 -6.77155,-4.26721 -7.54347,-5.03704 -7.37455,-7.35465 0.46042,-6.31727 10.3278,-15.30575 24.01634,-21.87716 6.89377,-3.30947 8.48041,-3.71956 14.15764,-3.65923 5.6393,0.0599 8.87273,0.96827 27.40188,7.69775 23.88471,8.67453 26.03401,10.04244 26.02838,16.56553 -0.005,6.30133 -2.48902,9.19347 -14.84983,17.29276 -21.61762,14.16472 -35.87661,19.31286 -45.43682,16.40478 z m -3.58762,-43.93513 c 2.40252,-1.28578 2.22706,-2.70805 -0.33407,-2.70805 -2.07759,0 -4.29296,1.50834 -4.29296,2.92287 0,1.02652 2.52676,0.90922 4.62703,-0.21482 z m 20.03467,-0.39242 c 0,-1.80853 -3.30424,-3.46301 -5.51488,-2.76138 -2.50767,0.79591 -2.23199,1.95972 0.71955,3.03771 3.60106,1.31523 4.79533,1.24641 4.79533,-0.27633 z"
         id="path10"
         transform="matrix(0.26458333,0,0,0.26458333,29.249634,72.081367)" /><path
         style="fill:#ffffff;fill-opacity:1;stroke-width:0.913396"
         d="m 734.82723,451.94737 c -7.84697,-0.85438 -19.52269,-4.4579 -28.87614,-8.91216 -5.58334,-2.65887 -10.40402,-5.24286 -10.71263,-5.7422 -0.30861,-0.49934 1.69064,-3.15965 4.44279,-5.9118 8.06417,-8.06417 7.21224,-9.6473 -11.57742,-21.51418 -16.6331,-10.50487 -27.32748,-22.18541 -35.80867,-39.1107 -10.78972,-21.53225 -11.42796,-43.42418 -1.83301,-62.87309 3.53464,-7.16467 8.59712,-15.4003 9.13563,-14.8618 0.19108,0.19108 -1.26695,3.80321 -3.24006,8.02694 -5.63786,12.06864 -6.85451,17.717 -6.86786,31.88453 -0.01,10.53562 0.30818,13.32819 2.18505,19.18132 l 2.19668,6.85047 1.21583,-10.04736 c 2.40414,-19.86738 6.65279,-32.42638 21.86505,-64.63307 17.12482,-36.25585 24.15497,-54.54117 28.24816,-73.47305 1.22359,-5.65935 2.2286,-10.60498 2.23334,-10.99029 0.005,-0.38531 3.43772,2.88669 7.62883,7.27111 9.56483,10.006 14.46354,12.55785 24.13188,12.57082 10.7651,0.0144 20.25223,-3.84744 39.55887,-16.10305 5.82496,-3.69761 10.96576,-6.72293 11.42399,-6.72293 0.45823,0 2.21745,5.44612 3.90938,12.1025 3.9419,15.50822 13.49281,44.4366 18.17254,55.04209 1.99748,4.52679 7.33577,15.62988 11.86289,24.67352 4.52711,9.04363 9.11284,19.29767 10.1905,22.78674 2.32714,7.5344 4.318,19.72339 5.07667,31.08184 0.96467,14.4426 0.85505,14.15764 5.4462,14.15764 h 3.97177 l 2.36953,-5.91898 c 6.92692,-17.30316 5.11735,-37.32853 -4.94603,-54.73425 -2.0053,-3.4684 -3.48486,-6.46731 -3.28792,-6.66425 0.51529,-0.51529 5.37326,5.87301 8.12685,10.68692 6.95798,12.16409 8.6451,31.20403 4.10889,46.3707 l -2.25854,7.55137 1.92268,0.35565 c 10.25031,1.89612 16.15572,3.31365 18.83157,4.5203 l 3.18581,1.43664 -5.48037,-0.66031 c -10.88627,-1.31163 -29.75673,-0.75393 -34.94212,1.03268 -5.5103,1.89857 -9.86679,5.80482 -10.69885,9.59313 -0.31586,1.43814 -1.77642,3.7665 -3.2457,5.17415 -1.46926,1.40764 -3.29458,4.44537 -4.05627,6.75049 -1.58957,4.81061 -3.19193,18.65307 -3.2151,27.77486 -0.014,5.49911 -0.3591,6.73024 -2.9447,10.50406 -4.81099,7.02194 -15.4156,16.78454 -22.70216,20.89961 -8.07483,4.56024 -20.95952,9.02029 -29.71483,10.2858 -6.07954,0.87876 -18.39713,1.03011 -25.033,0.30759 z"
         id="path11"
         transform="matrix(0.26458333,0,0,0.26458333,29.249634,72.081367)" /><path
         style="fill:#ffffff;fill-opacity:1;stroke-width:0.913396"
         d="m 779.58364,166.93538 c -5.16923,-1.76581 -5.14105,-1.73594 -3.45366,-3.66021 3.03851,-3.46507 4.6001,-7.98493 4.63972,-13.42921 0.0509,-6.99131 -1.98095,-11.1285 -6.36502,-12.96028 -4.0005,-1.67151 -7.62739,-0.96776 -11.40825,2.21362 -3.7883,3.18765 -5.3343,7.20609 -5.3343,13.86522 0,3.03035 -0.14418,5.50972 -0.3204,5.50972 -0.17621,0 -1.66151,-0.46752 -3.30066,-1.03893 l -2.98027,-1.03893 0.61703,-5.58319 c 1.35468,-12.25798 5.89651,-22.12174 12.22841,-26.55714 3.38468,-2.37093 4.78972,-2.77436 9.66229,-2.77436 4.75501,0 6.44558,0.45992 10.18217,2.77009 8.92868,5.52017 12.7463,15.52518 10.00577,26.22251 -1.4904,5.81761 -4.24974,11.17111 -7.96046,15.4444 -2.08555,2.40172 -2.13442,2.40972 -6.21237,1.01669 z"
         id="path12"
         transform="matrix(0.26458333,0,0,0.26458333,29.249634,72.081367)" /><path
         style="fill:#ffffff;fill-opacity:1;stroke-width:0.161467"
         d="m 707.36574,166.33306 c -3.22017,-5.19926 -5.17765,-10.45374 -6.10764,-16.39479 -1.28834,-8.23035 1.00605,-16.36355 5.90328,-20.92601 2.46019,-2.29202 4.78937,-3.31008 7.573,-3.31008 6.16988,0 11.13231,5.76245 13.24164,15.37639 0.78093,3.55928 0.99826,5.753 1.08571,10.95915 l 0.0803,4.77968 -3.04604,1.22043 c -2.30982,0.92546 -3.05878,1.16481 -3.09874,0.99026 -0.029,-0.1266 0.10782,-0.71251 0.30399,-1.30201 1.77009,-5.31912 -1.09729,-12.79422 -6.50349,-16.9542 -1.51515,-1.16588 -2.90559,-1.73571 -4.24317,-1.73894 -2.16126,-0.005 -3.72018,1.19151 -5.0012,3.83925 -2.26342,4.67824 -2.43891,9.56326 -0.49474,13.77116 0.89579,1.93882 1.6501,2.92798 4.25155,5.57518 l 2.48382,2.52752 -0.86192,0.634 c -0.47405,0.3487 -1.55218,1.12872 -2.39585,1.73336 -0.84366,0.60465 -1.6066,1.15364 -1.6954,1.21998 -0.0947,0.0707 -0.70468,-0.75644 -1.47509,-2.00033 z"
         id="path13"
         transform="matrix(0.26458333,0,0,0.26458333,29.249634,72.081367)" /></a></g></svg>
