<?xml version="1.0" encoding="UTF-8" standalone="no"?>
<!-- Created with Inkscape (http://www.inkscape.org/) -->

<svg
   width="188.44135mm"
   height="188.44135mm"
   viewBox="0 0 188.44134 188.44134"
   version="1.1"
   id="svg1"
   xml:space="preserve"
   inkscape:version="1.4 (e7c3feb100, 2024-10-09)"
   sodipodi:docname="nvim.svg"
   xmlns:inkscape="http://www.inkscape.org/namespaces/inkscape"
   xmlns:sodipodi="http://sodipodi.sourceforge.net/DTD/sodipodi-0.dtd"
   xmlns="http://www.w3.org/2000/svg"
   xmlns:svg="http://www.w3.org/2000/svg"><sodipodi:namedview
     id="namedview1"
     pagecolor="#505050"
     bordercolor="#eeeeee"
     borderopacity="1"
     inkscape:showpageshadow="0"
     inkscape:pageopacity="0"
     inkscape:pagecheckerboard="0"
     inkscape:deskcolor="#505050"
     inkscape:document-units="mm"
     inkscape:zoom="0.77415123"
     inkscape:cx="483.75561"
     inkscape:cy="390.75052"
     inkscape:window-width="1876"
     inkscape:window-height="986"
     inkscape:window-x="0"
     inkscape:window-y="0"
     inkscape:window-maximized="1"
     inkscape:current-layer="layer1" /><defs
     id="defs1" /><g
     inkscape:label="Layer 1"
     inkscape:groupmode="layer"
     id="layer1"
     transform="translate(-11.88958,-47.871929)"><g
       id="g13"
       transform="matrix(1.1168479,0,0,1.1168479,-11.091502,-17.642209)"><path
         style="fill:#a1d3ec"
         d="M 106.4593,177.0636 C 87.340379,149.73939 71.573407,127.38038 71.421587,127.37692 c -0.151821,-0.003 -0.276037,21.61002 -0.276037,48.02996 0,37.26309 -0.102641,48.36513 -0.457662,49.50266 -0.251714,0.80652 -0.550305,1.4664 -0.663535,1.4664 -0.11323,0 -7.815746,-6.34467 -17.116702,-14.09927 L 35.996822,198.17741 35.53676,196.16373 c -0.356449,-1.56017 -0.460062,-13.79775 -0.460062,-54.33742 V 89.502571 l 0.828112,-0.912476 c 0.455461,-0.501861 2.567145,-2.359531 4.692631,-4.128154 2.125486,-1.768624 3.49187,-2.805767 3.036408,-2.304761 -0.455461,0.501005 -0.828111,1.190084 -0.828111,1.531285 0,0.3412 -0.129843,0.620365 -0.288541,0.620365 -0.759829,0 -6.172284,4.947705 -6.384817,5.836574 -0.329027,1.376081 -0.366268,104.677846 -0.03791,105.156346 0.148721,0.21673 7.889026,6.73919 17.200679,14.49436 l 16.930277,14.10032 0.192588,-49.64309 c 0.105924,-27.3037 0.23014,-49.69837 0.276037,-49.76594 0.0459,-0.0676 0.902767,1.09179 1.904156,2.57635 7.870479,11.66796 68.472353,97.67802 68.878933,97.7574 0.43916,0.0857 19.92402,-15.85773 31.66542,-25.9102 3.31464,-2.83785 3.48385,-2.93415 3.33148,-1.89603 -0.13576,0.92498 -2.80707,3.30113 -17.31974,15.40601 -9.43757,7.87178 -17.33339,14.31475 -17.54627,14.3177 -0.21288,0.003 -16.0298,-22.35082 -35.14873,-49.67503 z m 70.40927,-86.313904 c 0.004,-0.809709 0.0795,-1.097617 0.16749,-0.639795 0.088,0.457821 0.0847,1.12031 -0.007,1.472198 -0.0921,0.351887 -0.16415,-0.02269 -0.16007,-0.832403 z M 45.566109,80.260285 c 0.366388,-0.404854 0.748972,-0.736099 0.850185,-0.736099 0.101214,0 -0.115747,0.331245 -0.482135,0.736099 -0.366389,0.404855 -0.748972,0.736099 -0.850185,0.736099 -0.101214,0 0.115747,-0.331244 0.482135,-0.736099 z m 2.208297,-1.840247 c 0.366388,-0.404855 0.748972,-0.736099 0.850185,-0.736099 0.101214,0 -0.115747,0.331244 -0.482135,0.736099 -0.366388,0.404854 -0.748972,0.736099 -0.850185,0.736099 -0.101214,0 0.115747,-0.331245 0.482135,-0.736099 z m 2.208297,-1.840248 c 0.366389,-0.404854 0.748972,-0.736099 0.850185,-0.736099 0.101214,0 -0.115747,0.331245 -0.482135,0.736099 -0.366388,0.404855 -0.748972,0.736099 -0.850185,0.736099 -0.101214,0 0.115747,-0.331244 0.482135,-0.736099 z M 52.191,74.739543 c 0.366389,-0.404855 0.748972,-0.736099 0.850185,-0.736099 0.101214,0 -0.115747,0.331244 -0.482135,0.736099 -0.366388,0.404854 -0.748972,0.736099 -0.850185,0.736099 -0.101214,0 0.115747,-0.331245 0.482135,-0.736099 z m 2.208297,-1.840248 c 0.366389,-0.404854 0.748972,-0.736099 0.850185,-0.736099 0.101214,0 -0.115747,0.331245 -0.482135,0.736099 -0.366388,0.404855 -0.748972,0.736099 -0.850185,0.736099 -0.101214,0 0.115747,-0.331244 0.482135,-0.736099 z m 2.208297,-1.840247 c 0.366389,-0.404855 0.748972,-0.736099 0.850186,-0.736099 0.101213,0 -0.115748,0.331244 -0.482136,0.736099 -0.366388,0.404854 -0.748972,0.736099 -0.850185,0.736099 -0.101214,0 0.115747,-0.331245 0.482135,-0.736099 z M 58.815891,69.2188 c 0.366389,-0.404854 0.748972,-0.736099 0.850186,-0.736099 0.101213,0 -0.115748,0.331245 -0.482136,0.736099 -0.366388,0.404855 -0.748972,0.736099 -0.850185,0.736099 -0.101214,0 0.115747,-0.331244 0.482135,-0.736099 z m 2.208297,-1.840247 c 0.366389,-0.404855 0.748972,-0.736099 0.850186,-0.736099 0.101213,0 -0.115748,0.331244 -0.482136,0.736099 -0.366388,0.404854 -0.748972,0.736099 -0.850185,0.736099 -0.101214,0 0.115747,-0.331245 0.482135,-0.736099 z m 2.208297,-1.840248 c 0.366389,-0.404854 0.748972,-0.736099 0.850186,-0.736099 0.101213,0 -0.115748,0.331245 -0.482136,0.736099 -0.366388,0.404855 -0.748972,0.736099 -0.850185,0.736099 -0.101214,0 0.115747,-0.331244 0.482135,-0.736099 z m 2.208297,-1.840247 c 0.366389,-0.404855 0.748972,-0.736099 0.850186,-0.736099 0.101213,0 -0.115748,0.331244 -0.482136,0.736099 -0.366388,0.404854 -0.748972,0.736099 -0.850185,0.736099 -0.101214,0 0.115747,-0.331245 0.482135,-0.736099 z M 141.16034,61.85781 c 0,-0.708495 0.0757,-0.998334 0.16832,-0.644086 0.0926,0.354247 0.0926,0.933925 0,1.288173 -0.0926,0.354248 -0.16832,0.06441 -0.16832,-0.644087 z m -73.511261,0 c 0.366389,-0.404854 0.748972,-0.736099 0.850186,-0.736099 0.101213,0 -0.115748,0.331245 -0.482136,0.736099 -0.366388,0.404855 -0.748972,0.736099 -0.850185,0.736099 -0.101214,0 0.115747,-0.331244 0.482135,-0.736099 z"
         id="path19" /><path
         style="fill:#a7cd8f"
         d="m 138.57523,221.31526 c -15.22706,-21.57282 -67.100985,-95.88461 -67.569918,-96.79702 -0.338121,-0.65789 -0.463404,-1.19616 -0.278407,-1.19616 0.30686,0 69.176905,97.99647 70.267795,99.98536 0.2595,0.47311 0.5981,0.8602 0.75246,0.8602 0.24304,0 17.21367,-14.06033 30.36373,-25.15664 l 4.29682,-3.62575 -0.006,-52.86985 c -0.003,-29.07842 -0.12731,-53.046697 -0.27604,-53.262841 -0.50164,-0.729073 -33.56258,-28.130848 -33.94057,-28.130848 -0.25195,0 -0.37441,15.896589 -0.37441,48.603579 0,47.37776 -0.0856,51.42847 -1.10029,52.05558 -0.20304,0.12548 -40.883814,-57.68199 -69.024983,-98.08465 -0.635178,-0.911934 -1.229084,-1.880708 -1.319792,-2.152832 -0.104131,-0.312392 -5.078158,3.599931 -13.493921,10.613648 -12.561439,10.468734 -13.31492,11.164954 -13.084538,12.090169 0.219975,0.883418 0.18305,0.931156 -0.368664,0.476621 -0.337218,-0.27782 -0.613124,-0.814407 -0.613124,-1.192416 0,-0.454142 4.644068,-4.558979 13.690156,-12.100568 7.529585,-6.277303 13.870687,-11.413279 14.091338,-11.413279 0.22065,0 16.046437,22.352686 35.168418,49.672637 19.12198,27.31995 34.89145,49.67895 35.04327,49.68668 0.15182,0.008 0.27604,-21.32693 0.27604,-47.41035 0,-45.016831 0.10033,-51.948967 0.75188,-51.948967 0.15343,0 8.0383,6.464352 17.52193,14.365228 l 17.24296,14.365227 0.23964,1.920963 c 0.38415,3.079413 0.35711,103.521229 -0.0281,104.534529 -0.38321,1.0079 -1.6318,2.09132 -20.97311,18.19868 -7.59592,6.32585 -14.01579,11.50155 -14.26637,11.50155 -0.25059,0 -1.59542,-1.61482 -2.98852,-3.58848 z"
         id="path18" /><path
         style="fill:#42aee4"
         d="M 53.295149,209.79613 C 43.983496,202.04095 36.243191,195.51848 36.09447,195.30175 35.766112,194.82325 35.803353,91.521485 36.13238,90.145404 c 0.266833,-1.115966 5.808031,-5.915814 6.642769,-5.754041 0.465784,0.09027 27.47546,38.203087 27.719716,39.114737 0.05424,0.20243 0.0158,22.87307 -0.08541,50.37921 l -0.184025,50.01115 z"
         id="path17" /><path
         style="fill:#94c86a"
         d="m 141.26159,223.80381 c -0.12895,-0.20864 0.0188,-0.27034 0.34632,-0.14465 0.63762,0.24468 0.75428,0.50848 0.22487,0.50848 -0.19049,0 -0.44752,-0.16372 -0.57119,-0.36383 z m 1.65361,-0.51123 c 0,-0.0764 0.28984,-0.36626 0.64409,-0.64408 0.58375,-0.45781 0.59676,-0.44479 0.13896,0.13896 -0.48081,0.61307 -0.78305,0.80804 -0.78305,0.50512 z M 105.83422,172.97065 70.7775,122.91874 V 93.124372 c 0,-24.17039 -0.09013,-29.794364 -0.477498,-29.794364 -0.262625,0 -6.254015,4.81347 -13.314201,10.6966 C 46.189713,83.0228 44.094303,84.625292 43.804395,84.107254 43.360999,83.31495 42.502485,84.097811 57.515431,71.604447 65.539975,64.92664 70.261486,61.229891 70.36588,61.543073 c 0.09076,0.272297 0.684719,1.241213 1.319897,2.153147 30.860783,44.30725 68.848173,98.22056 69.055083,98.00587 0.15206,-0.15779 0.45365,-0.86657 0.67021,-1.57506 0.25994,-0.85042 0.31127,-0.91296 0.15107,-0.18403 -0.13347,0.60728 -0.3391,15.04862 -0.45694,32.09186 l -0.21427,30.98771 z m 39.28928,48.48169 c 0,-0.0764 0.28984,-0.36627 0.64409,-0.64409 0.58374,-0.45781 0.59676,-0.44479 0.13896,0.13896 -0.48081,0.61308 -0.78305,0.80804 -0.78305,0.50513 z m 2.2083,-1.84025 c 0,-0.0764 0.28984,-0.36627 0.64408,-0.64409 0.58375,-0.4578 0.59677,-0.44479 0.13896,0.13896 -0.48081,0.61308 -0.78304,0.80805 -0.78304,0.50513 z m 2.20829,-1.84025 c 0,-0.0764 0.28984,-0.36627 0.64409,-0.64409 0.58375,-0.4578 0.59677,-0.44478 0.13896,0.13896 -0.48081,0.61308 -0.78305,0.80805 -0.78305,0.50513 z m 2.2083,-1.84025 c 0,-0.0764 0.28984,-0.36626 0.64409,-0.64408 0.58374,-0.45781 0.59676,-0.44479 0.13896,0.13896 -0.48081,0.61307 -0.78305,0.80804 -0.78305,0.50512 z m 2.2083,-1.84024 c 0,-0.0764 0.28984,-0.36627 0.64408,-0.64409 0.58375,-0.45781 0.59677,-0.44479 0.13896,0.13896 -0.48081,0.61308 -0.78304,0.80804 -0.78304,0.50513 z m 2.20829,-1.84025 c 0,-0.0764 0.28984,-0.36627 0.64409,-0.64409 0.58375,-0.4578 0.59677,-0.44479 0.13896,0.13896 -0.48081,0.61308 -0.78305,0.80805 -0.78305,0.50513 z m 2.2083,-1.84025 c 0,-0.0764 0.28984,-0.36627 0.64409,-0.64409 0.58375,-0.4578 0.59676,-0.44478 0.13896,0.13896 -0.48081,0.61308 -0.78305,0.80805 -0.78305,0.50513 z m 2.2083,-1.84025 c 0,-0.0764 0.28984,-0.36626 0.64409,-0.64408 0.58374,-0.45781 0.59676,-0.44479 0.13895,0.13896 -0.4808,0.61307 -0.78304,0.80804 -0.78304,0.50512 z m 2.2083,-1.84024 c 0,-0.0764 0.28983,-0.36627 0.64408,-0.64409 0.58375,-0.45781 0.59677,-0.44479 0.13896,0.13896 -0.48081,0.61308 -0.78304,0.80804 -0.78304,0.50513 z m 2.20829,-1.84025 c 0,-0.0764 0.28984,-0.36627 0.64409,-0.64409 0.58375,-0.4578 0.59676,-0.44479 0.13896,0.13896 -0.48081,0.61308 -0.78305,0.80804 -0.78305,0.50513 z m 2.2083,-1.84025 c 0,-0.0764 0.28984,-0.36627 0.64409,-0.64409 0.58374,-0.4578 0.59676,-0.44478 0.13896,0.13896 -0.48081,0.61308 -0.78305,0.80805 -0.78305,0.50513 z m 3.68049,-3.35751 c 0.47543,-0.50607 0.94723,-0.92012 1.04844,-0.92012 0.10121,0 -0.20496,0.41405 -0.68039,0.92012 -0.47542,0.50607 -0.94722,0.92012 -1.04843,0.92012 -0.10122,0 0.20496,-0.41405 0.68038,-0.92012 z m 2.2083,-1.84025 c 0.47543,-0.50607 0.94722,-0.92012 1.04844,-0.92012 0.10121,0 -0.20496,0.41405 -0.68039,0.92012 -0.47542,0.50607 -0.94722,0.92013 -1.04843,0.92013 -0.10122,0 0.20496,-0.41406 0.68038,-0.92013 z m 2.2083,-1.84025 c 0.47543,-0.50606 0.94722,-0.92012 1.04843,-0.92012 0.10122,0 -0.20496,0.41406 -0.68038,0.92012 -0.47543,0.50607 -0.94722,0.92013 -1.04844,0.92013 -0.10121,0 0.20496,-0.41406 0.68039,-0.92013 z m 0.70616,-104.97621 c -0.20496,-1.08832 -33.53146,-28.902811 -33.91699,-28.307317 -0.15037,0.232262 -0.27291,-0.0436 -0.27604,-0.621463 -0.004,-0.680762 0.16316,-0.998084 0.48382,-0.920123 0.99372,0.2416 33.72238,27.741547 33.9447,28.521712 0.12522,0.43945 0.15814,1.10194 0.0731,1.472198 -0.13132,0.57206 -0.17769,0.550275 -0.30863,-0.145007 z"
         id="path16" /><path
         style="fill:#6fbc62"
         d="m 141.32032,223.55422 c -0.32155,-0.32155 -0.26593,-59.43053 0.0579,-61.58695 0.13682,-0.91092 0.19946,12.4055 0.13921,29.59205 -0.0709,20.22003 0.0187,31.3765 0.25378,31.6116 0.23908,0.23907 4.8708,-3.38446 13.54336,-10.59538 7.24901,-6.0273 13.92253,-11.64016 14.83005,-12.47303 0.90751,-0.83287 1.23875,-1.04137 0.7361,-0.46334 -1.18815,1.3663 -28.52146,24.16042 -28.97171,24.16042 -0.18885,0 -0.45379,-0.11041 -0.58874,-0.24537 z m 31.40689,-25.70212 c 0.47543,-0.50607 0.94722,-0.92012 1.04844,-0.92012 0.10121,0 -0.20496,0.41405 -0.68039,0.92012 -0.47542,0.50607 -0.94722,0.92013 -1.04843,0.92013 -0.10122,0 0.20496,-0.41406 0.68038,-0.92013 z m 2.29903,-1.85905 1.01085,-1.12294 0.0946,-51.69216 0.0946,-51.692155 0.0907,51.734105 0.0907,51.73411 -1.19616,1.081 -1.19616,1.08099 z m -33.11958,-84.44856 c -0.0464,-26.619177 0.0374,-48.586454 0.18607,-48.816167 0.32135,-0.496356 33.69216,27.163454 33.89379,28.093287 0.16233,0.748629 0.99461,1.415947 -18.16531,-14.564942 l -15.45808,-12.89326 -0.18607,48.289802 -0.18607,48.28979 z M 57.357316,104.55045 C 50.118471,94.22606 44.17286,85.555587 44.144846,85.282735 44.086804,84.717419 69.568424,63.330008 70.300002,63.330008 c 0.387392,0 0.477498,5.66038 0.477498,29.996035 0,16.497817 -0.0582,29.996037 -0.129325,29.996037 -0.07113,0 -6.052015,-8.44723 -13.290859,-18.77163 z"
         id="path15" /><path
         style="fill:#69a43e"
         d="m 141.6124,222.97148 c -0.0966,-0.25303 -0.13176,-13.79266 -0.0782,-30.08805 l 0.0973,-29.62798 0.0898,29.90402 c 0.0494,16.44721 0.22229,29.90402 0.38423,29.90402 0.16195,0 0.52661,-0.20703 0.81036,-0.46006 0.43891,-0.39139 0.44317,-0.36392 0.0285,0.18403 -0.57274,0.75689 -1.08633,0.82785 -1.332,0.18402 z m 2.95903,-1.74824 c 0.36638,-0.40485 0.74897,-0.73609 0.85018,-0.73609 0.10121,0 -0.11575,0.33124 -0.48214,0.73609 -0.36638,0.40486 -0.74897,0.7361 -0.85018,0.7361 -0.10121,0 0.11575,-0.33124 0.48214,-0.7361 z m 2.20829,-1.84024 c 0.36639,-0.40486 0.74897,-0.7361 0.85019,-0.7361 0.10121,0 -0.11575,0.33124 -0.48214,0.7361 -0.36639,0.40485 -0.74897,0.7361 -0.85018,0.7361 -0.10122,0 0.11574,-0.33125 0.48213,-0.7361 z m 2.2083,-1.84025 c 0.36639,-0.40485 0.74897,-0.7361 0.85018,-0.7361 0.10122,0 -0.11574,0.33125 -0.48213,0.7361 -0.36639,0.40485 -0.74897,0.7361 -0.85019,0.7361 -0.10121,0 0.11575,-0.33125 0.48214,-0.7361 z m 2.2083,-1.84025 c 0.36638,-0.40485 0.74897,-0.7361 0.85018,-0.7361 0.10122,0 -0.11575,0.33125 -0.48213,0.7361 -0.36639,0.40486 -0.74898,0.7361 -0.85019,0.7361 -0.10121,0 0.11575,-0.33124 0.48214,-0.7361 z m 2.20829,-1.84025 c 0.36639,-0.40485 0.74898,-0.73609 0.85019,-0.73609 0.10121,0 -0.11575,0.33124 -0.48214,0.73609 -0.36639,0.40486 -0.74897,0.7361 -0.85018,0.7361 -0.10122,0 0.11575,-0.33124 0.48213,-0.7361 z m 2.2083,-1.84024 c 0.36639,-0.40486 0.74897,-0.7361 0.85019,-0.7361 0.10121,0 -0.11575,0.33124 -0.48214,0.7361 -0.36639,0.40485 -0.74897,0.7361 -0.85019,0.7361 -0.10121,0 0.11575,-0.33125 0.48214,-0.7361 z m 2.2083,-1.84025 c 0.36639,-0.40485 0.74897,-0.7361 0.85018,-0.7361 0.10122,0 -0.11574,0.33125 -0.48213,0.7361 -0.36639,0.40485 -0.74897,0.7361 -0.85019,0.7361 -0.10121,0 0.11575,-0.33125 0.48214,-0.7361 z m 2.20829,-1.84025 c 0.36639,-0.40485 0.74898,-0.7361 0.85019,-0.7361 0.10121,0 -0.11575,0.33125 -0.48214,0.7361 -0.36638,0.40486 -0.74897,0.7361 -0.85018,0.7361 -0.10121,0 0.11575,-0.33124 0.48213,-0.7361 z m 2.2083,-1.84025 c 0.36639,-0.40485 0.74897,-0.73609 0.85019,-0.73609 0.10121,0 -0.11575,0.33124 -0.48214,0.73609 -0.36639,0.40486 -0.74897,0.7361 -0.85018,0.7361 -0.10122,0 0.11574,-0.33124 0.48213,-0.7361 z m 2.2083,-1.84024 c 0.36639,-0.40486 0.74897,-0.7361 0.85018,-0.7361 0.10122,0 -0.11574,0.33124 -0.48213,0.7361 -0.36639,0.40485 -0.74897,0.7361 -0.85019,0.7361 -0.10121,0 0.11575,-0.33125 0.48214,-0.7361 z m 2.2083,-1.84025 c 0.36638,-0.40485 0.74897,-0.7361 0.85018,-0.7361 0.10121,0 -0.11575,0.33125 -0.48213,0.7361 -0.36639,0.40485 -0.74898,0.7361 -0.85019,0.7361 -0.10121,0 0.11575,-0.33125 0.48214,-0.7361 z m 2.02941,-1.68255 c 0.41616,-0.69287 -0.76892,-2.51492 -12.99063,-19.97294 -7.39671,-10.56579 -13.50471,-19.04182 -13.57333,-18.83563 -0.1342,0.40324 0.004,-83.584993 0.15337,-93.186163 l 0.0899,-5.78008 16.83826,14.027839 16.83827,14.027839 v 51.799905 51.79991 l -2.30031,1.9445 c -1.26517,1.06947 -3.02327,2.61786 -3.90689,3.44087 -0.88362,0.82301 -1.40052,1.15328 -1.14865,0.73395 z"
         id="path14" /><path
         style="fill:#559d40"
         d="m 141.81105,193.09756 c 0,-16.48126 0.10018,-30.22698 0.22261,-30.54604 0.15074,-0.39281 4.56308,5.62 13.66597,18.62297 9.43846,13.48231 13.34678,19.34773 13.11919,19.68863 -0.44986,0.6738 -26.35439,22.20037 -26.71537,22.20037 -0.16082,0 -0.2924,-13.48467 -0.2924,-29.96593 z"
         id="path13" /></g></g></svg>
