<?xml version="1.0" encoding="UTF-8"?>
<svg version="1.1" xmlns="http://www.w3.org/2000/svg" width="512" height="512">
<path d="M0 0 C6.59786625 -0.05118539 13.1956803 -0.08593487 19.79370117 -0.10986328 C22.03297845 -0.11985071 24.27224292 -0.1334453 26.51147461 -0.15087891 C53.92570881 -0.35879413 76.41818867 2.80160609 97.30859375 22.13671875 C102.15851713 27.08750709 105.62101209 32.43135589 108.875 38.5 C109.24439697 39.18763428 109.61379395 39.87526855 109.99438477 40.58374023 C115.00771929 50.38300268 116.44529547 59.26664111 116.40405273 70.22973633 C116.41434761 72.1610717 116.41434761 72.1610717 116.42485046 74.13142395 C116.44266742 77.63579858 116.44163497 81.13992124 116.43590808 84.6443274 C116.43279851 87.5837651 116.43892842 90.52315563 116.44494683 93.46258658 C116.45895377 100.40551824 116.45746375 107.34832676 116.44604492 114.29125977 C116.43457639 121.42135521 116.4486266 128.55107393 116.4754414 135.68111974 C116.49769531 141.83181882 116.50421383 147.9824005 116.49836498 154.13313693 C116.49501615 157.7938192 116.49727017 161.45426033 116.51461601 165.11490822 C116.53315012 169.20420283 116.51879917 173.29277904 116.50170898 177.38208008 C116.51137695 178.57263 116.52104492 179.76317993 116.53100586 180.98980713 C116.43469867 192.06503584 113.68523523 201.99499735 108 211.5 C107.34 212.6240625 106.68 213.748125 106 214.90625 C95.30814552 231.4452124 79.49671306 241.3795399 60.73828125 246.23828125 C50.50015889 248.32441903 40.29809309 248.13596284 29.90405273 248.11352539 C28.07023622 248.11324301 26.2364196 248.11340224 24.40260315 248.1139679 C19.44460655 248.1142539 14.48663432 248.10838907 9.52864337 248.10139394 C4.33965858 248.09512754 -0.84932682 248.094554 -6.03831482 248.09336853 C-15.8553266 248.09026489 -25.67232719 248.08206456 -35.48933405 248.07201904 C-46.66949781 248.06082784 -57.84966212 248.05533988 -69.0298301 248.05032361 C-92.01989292 248.03988113 -115.00994583 248.02230045 -138 248 C-138 251.96 -138 255.92 -138 260 C-96.42 260 -54.84 260 -12 260 C-12 327.91799884 -12 327.91799884 -19.6875 342.375 C-20.03216309 343.03653076 -20.37682617 343.69806152 -20.73193359 344.37963867 C-29.84668007 361.18302879 -46.82807503 373.0669516 -64.85147095 378.55091858 C-71.52548844 380.3421595 -77.92545921 380.42902236 -84.80224609 380.40405273 C-86.15222229 380.40976959 -87.50219366 380.41673888 -88.85215759 380.42485046 C-92.48663159 380.44265324 -96.12086246 380.44163793 -99.7553668 380.43590808 C-102.80420846 380.43279705 -105.8530047 380.43892986 -108.90183985 380.44494683 C-116.10224229 380.4589485 -123.30252597 380.45746759 -130.50292969 380.44604492 C-137.8983142 380.43457122 -145.29333572 380.44863658 -152.68867242 380.4754414 C-159.06868818 380.49768893 -165.44859075 380.50421541 -171.82864249 380.49836498 C-175.62568148 380.49501534 -179.42248799 380.49727603 -183.21949387 380.51461601 C-186.79352221 380.53022832 -190.36701829 380.52597423 -193.94102669 380.50731087 C-195.85522957 380.50194376 -197.76945719 380.51603016 -199.68360901 380.53100586 C-210.67886584 380.43870961 -220.5641054 377.8144062 -230.125 372.375 C-231.17945313 371.78460938 -232.23390625 371.19421875 -233.3203125 370.5859375 C-235.24713748 369.4455717 -237.1370454 368.24196973 -239 367 C-239 366.34 -239 365.68 -239 365 C-239.55945313 364.75378906 -240.11890625 364.50757813 -240.6953125 364.25390625 C-254.44205316 356.77474735 -261.82416489 341.95453995 -266.11743164 327.55957031 C-269.3691059 315.12966581 -268.56434079 302.05863977 -268.50437045 289.31051922 C-268.49034026 285.579264 -268.49699973 281.84803246 -268.50050354 278.11676025 C-268.50319034 271.85998686 -268.48985851 265.603407 -268.46655273 259.34667969 C-268.43990595 252.14377592 -268.43821643 244.94119436 -268.4499411 237.73825812 C-268.46076717 230.76288523 -268.45449711 223.7876273 -268.44038582 216.81226349 C-268.43467239 213.86360155 -268.43467153 210.91502503 -268.43945122 207.966362 C-268.44516596 203.84165795 -268.4257861 199.71742422 -268.40405273 195.59277344 C-268.41080521 193.78764282 -268.41080521 193.78764282 -268.41769409 191.94604492 C-268.32373778 181.15372693 -266.26061356 171.34020661 -261.25 161.75 C-260.72067871 160.72616211 -260.72067871 160.72616211 -260.18066406 159.68164062 C-252.89094311 145.9929463 -240.10803271 137.34958574 -225.61772442 132.14421177 C-217.89422203 129.83344867 -210.62755844 129.57112211 -202.6027832 129.59936523 C-201.18870976 129.59360914 -199.77464122 129.58652086 -198.36058044 129.57821655 C-195.33614361 129.56320259 -192.31188216 129.55732062 -189.28740883 129.55874443 C-184.48913087 129.56079563 -179.69108467 129.5410924 -174.89286804 129.51856995 C-165.56357724 129.47773617 -156.23430526 129.4590371 -146.90494537 129.44239807 C-135.04886724 129.41999763 -123.19284396 129.38612861 -111.33685368 129.33519894 C-106.58362106 129.31547409 -101.83051061 129.30571055 -97.07723868 129.30424678 C-94.09916342 129.30146226 -91.12115375 129.2905586 -88.14310646 129.27773666 C-86.14004073 129.27153691 -84.13695202 129.27501354 -82.13388062 129.27897644 C-60.18997779 129.15761134 -37.39599013 125.52282704 -21.2265625 109.2109375 C-1.10908191 86.14943536 -0.53532154 63.47014644 -0.33044434 34.23760986 C-0.30026004 30.36857906 -0.25386398 26.49974267 -0.20898438 22.63085938 C-0.12379138 15.08733768 -0.05608111 7.54380042 0 0 Z M-87.3046875 301.984375 C-91.61967541 307.11463712 -93.80529235 312.94975751 -93.44140625 319.67578125 C-91.82324267 328.19620009 -86.87925189 334.03418241 -80 339 C-76.77630173 340.61184913 -73.28811289 340.22621437 -69.75 340.25 C-68.99847656 340.270625 -68.24695313 340.29125 -67.47265625 340.3125 C-60.87556374 340.358553 -56.15953071 338.56882871 -51.375 333.875 C-47.16258573 329.40984087 -44.28863542 324.74047939 -43.80859375 318.51953125 C-44.12991245 312.23921112 -45.94481419 306.84294818 -50 302 C-55.49665441 297.28225958 -61.1834932 294.01417927 -68.52734375 293.8046875 C-76.05769616 294.39950207 -81.83641798 296.71535417 -87.3046875 301.984375 Z " fill="#FBCE21" transform="translate(396,132)"/>
<path d="M0 0 C1.3499762 -0.00571685 2.69994757 -0.01268614 4.0499115 -0.02079773 C7.6843855 -0.0386005 11.31861637 -0.03758519 14.95312071 -0.03185534 C18.00196237 -0.02874432 21.0507586 -0.03487713 24.09959376 -0.04089409 C31.29999619 -0.05489577 38.50027987 -0.05341486 45.70068359 -0.04199219 C53.0960681 -0.03051849 60.49108963 -0.04458384 67.88642633 -0.07138866 C74.26644208 -0.0936362 80.64634466 -0.10016268 87.02639639 -0.09431225 C90.82343538 -0.09096261 94.6202419 -0.09322329 98.41724777 -0.11056328 C101.99127612 -0.12617558 105.5647722 -0.12192149 109.13878059 -0.10325813 C111.05298347 -0.09789103 112.96721109 -0.11197743 114.88136292 -0.12695312 C135.49208978 0.04605718 151.38103741 9.67913375 165.73681641 23.62280273 C170.95363956 29.03538042 174.34608881 35.21919753 177.32275391 42.09155273 C177.79970703 43.16791992 178.27666016 44.24428711 178.76806641 45.35327148 C182.57876222 55.37455749 183.64204623 65.3770746 183.60180664 76.01855469 C183.61210152 77.95794922 183.61210152 77.95794922 183.62260437 79.93652344 C183.64035761 83.44298822 183.63940122 86.94920035 183.63366199 90.45569634 C183.63054314 93.40245761 183.63669238 96.34917219 183.64270073 99.29592675 C183.65668665 106.25868569 183.65523526 113.2213218 183.64379883 120.18408203 C183.63233129 127.32270078 183.64638373 134.46094321 183.6731953 141.5995124 C183.6954836 147.76900223 183.70196016 153.93837508 183.69611889 160.10790223 C183.6927783 163.7747835 183.69496755 167.44142395 183.71236992 171.10827065 C183.86682437 207.05510856 183.86682437 207.05510856 175.19775391 221.09155273 C174.53775391 222.18854492 173.87775391 223.28553711 173.19775391 224.41577148 C168.68948107 231.15176508 163.92920153 235.01355587 157.19775391 239.40405273 C156.37662109 239.94545898 155.55548828 240.48686523 154.70947266 241.04467773 C145.61796694 246.78668134 136.06949359 250.50850146 125.24407959 250.54881287 C124.0501358 250.55571136 122.85619202 250.56260986 121.62606812 250.56971741 C119.67333481 250.57363747 119.67333481 250.57363747 117.68115234 250.57763672 C116.28929438 250.58394702 114.89743843 250.59071335 113.50558472 250.59790039 C110.51056081 250.61254736 107.51554457 250.62428213 104.52050018 250.63384819 C99.76869621 250.64936142 95.01695765 250.67331608 90.26519775 250.69874573 C76.75317543 250.76976892 63.24111454 250.82944585 49.72900391 250.88085938 C42.26417614 250.9093379 34.79941245 250.94481888 27.33465219 250.98751312 C23.39328323 251.00971038 19.45197268 251.0283042 15.51055145 251.03796196 C-24.73070874 250.20863754 -24.73070874 250.20863754 -59.39208984 268.26733398 C-60.80224609 269.40405273 -60.80224609 269.40405273 -62.80224609 269.40405273 C-63.06908203 270.00862305 -63.33591797 270.61319336 -63.61083984 271.23608398 C-64.84120811 273.47495084 -65.91655437 274.48417942 -67.86474609 276.09155273 C-71.60482632 279.75322457 -74.05485446 283.85155328 -76.55224609 288.40405273 C-76.92873291 289.06107178 -77.30521973 289.71809082 -77.69311523 290.39501953 C-83.90981047 302.17190256 -84.25773359 315.72599813 -84.31396484 328.74389648 C-84.33086754 330.24704904 -84.34902495 331.75018795 -84.36836243 333.25331116 C-84.41526342 337.15424322 -84.44545576 341.05512002 -84.47180176 344.95623779 C-84.50191491 348.95913623 -84.54833687 352.96184486 -84.59326172 356.96459961 C-84.67861039 364.77765518 -84.74625432 372.59072565 -84.80224609 380.40405273 C-91.70325525 380.45515501 -98.60421481 380.48995367 -105.50537109 380.51391602 C-107.8484886 380.52391555 -110.19159382 380.53751956 -112.53466797 380.55493164 C-115.92076672 380.57944769 -119.30669915 380.59059665 -122.69287109 380.59936523 C-124.2405014 380.61484909 -124.2405014 380.61484909 -125.81939697 380.63064575 C-144.64572491 380.63348932 -164.20838737 375.63623129 -178.05615234 362.22045898 C-179.7114617 360.32918761 -181.25494008 358.38337011 -182.80224609 356.40405273 C-184.03974609 355.25936523 -184.03974609 355.25936523 -185.30224609 354.09155273 C-194.14081924 344.5900866 -200.88100142 331.02241454 -200.95614624 317.89212036 C-200.9647467 316.77094315 -200.97334717 315.64976593 -200.98220825 314.49461365 C-200.9864682 313.26863968 -200.99072815 312.04266571 -200.99511719 310.77954102 C-201.00329468 309.48471298 -201.01147217 308.18988495 -201.01989746 306.8558197 C-201.04607178 302.56202259 -201.0614287 298.26821601 -201.07568359 293.97436523 C-201.08104671 292.49128082 -201.08642422 291.00819646 -201.09181595 289.52511215 C-201.11344524 283.34856827 -201.13217562 277.17202694 -201.14343834 270.99545479 C-201.1596344 262.17377724 -201.19270501 253.35254313 -201.24983919 244.53103268 C-201.28871939 238.31337508 -201.30809273 232.09583513 -201.3133589 225.87805927 C-201.31699013 222.17299145 -201.32876886 218.46839703 -201.36146164 214.76346207 C-201.397531 210.61621667 -201.39312594 206.46990579 -201.38574219 202.32250977 C-201.40214752 201.11677811 -201.41855286 199.91104645 -201.43545532 198.66877747 C-201.35478561 187.52253845 -198.06492287 177.34294316 -192.23974609 167.84155273 C-191.68158203 166.91213867 -191.12341797 165.98272461 -190.54833984 165.02514648 C-179.18732315 147.97091337 -162.56144626 137.78263602 -142.76617336 133.76083279 C-133.16767203 132.01710538 -123.51181936 132.26944292 -113.7980957 132.29052734 C-111.97413128 132.29080972 -110.15016675 132.29065049 -108.32620239 132.29008484 C-103.39506439 132.28979885 -98.46395089 132.29566348 -93.53281856 132.3026588 C-88.37186099 132.3089254 -83.2109028 132.30949875 -78.04994202 132.3106842 C-68.28605416 132.31378778 -58.52217755 132.32198803 -48.75829464 132.33203369 C-37.63858923 132.34322509 -26.51888327 132.3487129 -15.39917362 132.35372913 C7.46647512 132.36417147 30.33211388 132.38175203 53.19775391 132.40405273 C53.19775391 128.44405273 53.19775391 124.48405273 53.19775391 120.40405273 C11.61775391 120.40405273 -29.96224609 120.40405273 -72.80224609 120.40405273 C-72.80224609 52.75386976 -72.80224609 52.75386976 -65.11474609 38.09155273 C-64.59775146 37.09248901 -64.59775146 37.09248901 -64.0703125 36.07324219 C-54.99756296 19.2328955 -37.98170237 7.33939269 -19.95077515 1.85313416 C-13.27675765 0.06189323 -6.87678689 -0.02496963 0 0 Z M-31.80224609 44.40405273 C-32.13224609 45.39405273 -32.46224609 46.38405273 -32.80224609 47.40405273 C-33.46224609 47.40405273 -34.12224609 47.40405273 -34.80224609 47.40405273 C-38.91022038 54.22686221 -41.89156377 59.7971016 -40.53271484 67.86889648 C-38.41474641 75.21949281 -34.4707337 79.28152639 -28.00146484 83.21655273 C-21.4399526 86.75953625 -15.54604472 87.34047091 -8.36474609 85.34155273 C-1.55383121 82.84266758 3.48570518 78.4920833 6.69775391 71.96655273 C9.08009236 65.68100798 9.031955 60.92068631 6.44775391 54.71655273 C4.7199609 51.20678506 2.94400899 48.22877225 0.19775391 45.40405273 C-0.68912109 44.47592773 -1.57599609 43.54780273 -2.48974609 42.59155273 C-10.30346942 37.22386453 -24.49130411 39.07315753 -31.80224609 44.40405273 Z " fill="#2472B2" transform="translate(200.80224609375,-0.404052734375)"/>
</svg>
