<?xml version="1.0" encoding="UTF-8"?>
<svg version="1.1" xmlns="http://www.w3.org/2000/svg" width="512" height="512">
<path d="M0 0 C1.87109375 2.21484375 1.87109375 2.21484375 3.4375 4.9375 C4.02402344 5.91332031 4.61054688 6.88914062 5.21484375 7.89453125 C6.4068825 9.96820916 7.58657105 12.04903463 8.75390625 14.13671875 C12.04891885 20.04813876 12.04891885 20.04813876 17.625 23.5 C22.11005919 22.83554679 23.0989941 21.46705583 26 18 C27.32247168 16.65589279 28.65666084 15.32325185 30 14 C30.68320312 13.31679687 31.36640625 12.63359375 32.0703125 11.9296875 C35.046875 8.953125 38.0234375 5.9765625 41 3 C44.50700256 3.07623919 46.3684284 3.3939981 48.9296875 5.8515625 C51.90334749 10.37376996 53.48958266 15.21706981 55.25 20.3125 C55.79527344 21.85260742 55.79527344 21.85260742 56.3515625 23.42382812 C57.24321301 25.94626049 58.12567508 28.47152107 59 31 C62.99752751 32.05318594 65.53310442 32.70472429 69.33154297 30.87988281 C71.78622194 29.21964945 74.11539499 27.46594811 76.4375 25.625 C77.25154297 25.00882813 78.06558594 24.39265625 78.90429688 23.7578125 C82.58514623 21.03535038 82.58514623 21.03535038 86 18 C91.79588336 17.53259005 91.79588336 17.53259005 94 18 C96.92049857 21.11115562 97.55846727 23.80938338 98.17578125 27.97265625 C98.36462891 29.11927734 98.55347656 30.26589844 98.74804688 31.44726562 C99.12467015 33.85947906 99.48924172 36.2736047 99.84179688 38.68945312 C100.84341552 45.26817787 100.84341552 45.26817787 104.484375 50.609375 C110.07254808 51.23028312 114.05436688 48.72178428 118.9375 46.1875 C131.28152304 39.90402071 131.28152304 39.90402071 137 41 C139.37508903 43.31798722 139.96557162 44.65017893 140.29296875 47.97680664 C140.24076172 49.6763147 140.24076172 49.6763147 140.1875 51.41015625 C140.15269531 53.26543945 140.15269531 53.26543945 140.1171875 55.15820312 C140.07851563 56.44662109 140.03984375 57.73503906 140 59.0625 C139.92360078 61.61550734 139.86045681 64.16895629 139.8125 66.72265625 C139.76029297 68.42047241 139.76029297 68.42047241 139.70703125 70.15258789 C139.75537749 73.00517854 139.75537749 73.00517854 141.39624023 74.87890625 C144.14828731 76.80269985 146.49857131 76.00924241 149.703125 75.6015625 C152.32652173 75.12288584 154.89152364 74.57503387 157.484375 73.9609375 C158.27835693 73.774104 159.07233887 73.58727051 159.89038086 73.39477539 C161.48617738 73.01114726 163.07838733 72.61223012 164.66625977 72.19702148 C168.0419859 71.37160082 170.46287493 70.90580538 173.91796875 71.51171875 C176 73 176 73 177.4609375 75.46875 C178.23246226 80.52279623 176.97130699 84.62473683 175.625 89.5 C173.19617719 97.63323215 173.19617719 97.63323215 173 106 C174.07772724 107.76867367 174.07772724 107.76867367 176 109 C178.9394855 109.36616771 178.9394855 109.36616771 182.27734375 109.1875 C184.13069336 109.15269531 184.13069336 109.15269531 186.02148438 109.1171875 C188.62825871 109.03917929 191.23502956 108.96105464 193.84179688 108.8828125 C195.07865234 108.85960938 196.31550781 108.83640625 197.58984375 108.8125 C198.72284912 108.77769531 199.85585449 108.74289063 201.02319336 108.70703125 C204.35019949 109.03446563 205.68577029 109.61933307 208 112 C209.28279452 119.34095553 205.32307734 125.27883117 202.11132812 131.6171875 C199.52296204 136.98142335 198.42572184 140.17754409 200 146 C203.38940774 147.46270102 206.51766553 148.38705075 210.16015625 148.96484375 C211.5977832 149.20557617 211.5977832 149.20557617 213.06445312 149.45117188 C215.06634462 149.77590867 217.06896079 150.09620861 219.07226562 150.41210938 C220.02939453 150.57388672 220.98652344 150.73566406 221.97265625 150.90234375 C222.84156494 151.04148193 223.71047363 151.18062012 224.60571289 151.32397461 C227.35656708 152.10067648 228.94293362 153.01894867 231 155 C231.86477257 160.13937623 231.4250369 162.89934357 228.4453125 167.17578125 C227.35786567 168.56997762 226.25046407 169.94880841 225.125 171.3125 C224.02330224 172.70432003 222.92173455 174.09624302 221.8203125 175.48828125 C221.32805176 176.09196533 220.83579102 176.69564941 220.32861328 177.31762695 C217.77739972 180.3253393 217.77739972 180.3253393 217.0234375 184.04296875 C217.19746094 185.10451172 217.19746094 185.10451172 217.375 186.1875 C217.58125 187.445625 217.7875 188.70375 218 190 C218.70608398 190.24645264 219.41216797 190.49290527 220.13964844 190.74682617 C223.34911147 191.87742047 226.5493781 193.03212676 229.75 194.1875 C230.86117188 194.57486328 231.97234375 194.96222656 233.1171875 195.36132812 C234.18710937 195.75126953 235.25703125 196.14121094 236.359375 196.54296875 C237.34389648 196.89383545 238.32841797 197.24470215 239.34277344 197.60620117 C242.50894608 199.26695821 244.04474221 201.02973508 246 204 C246 208.43130049 243.93713425 210.83693235 241 214 C237.85039435 216.91456045 234.66446899 219.79728692 231.18359375 222.3125 C228.11445197 224.5607388 227.03731132 225.88184748 225.875 229.5625 C225.6668538 232.93053887 225.6668538 232.93053887 227.40625 234.84765625 C231.95463567 238.62199436 237.15841819 241.44832324 242.265625 244.40234375 C246.04119774 246.68755883 248.53752332 248.19932452 250.7734375 252.0703125 C251.06144016 255.79448486 250.15767348 256.99990108 248 260 C245.85522461 261.62158203 245.85522461 261.62158203 243.40234375 263.0078125 C242.51869141 263.51957031 241.63503906 264.03132813 240.72460938 264.55859375 C239.80486328 265.07550781 238.88511719 265.59242188 237.9375 266.125 C236.10981682 267.16319547 234.28542869 268.20721929 232.46484375 269.2578125 C231.656521 269.7130127 230.84819824 270.16821289 230.01538086 270.63720703 C227.72712121 271.99922888 227.72712121 271.99922888 226 275 C225.85841189 278.68129087 226.13574605 281.03515593 228.64453125 283.8359375 C230.70750888 285.64252212 232.819997 287.33694624 235 289 C239.20677328 292.34010008 242.98842023 295.52826034 246 300 C246.125 303.125 246.125 303.125 245 306 C240.50697725 310.61547411 234.62869819 312.19737875 228.6875 314.25 C227.14739258 314.79527344 227.14739258 314.79527344 225.57617188 315.3515625 C223.05373951 316.24321301 220.52847893 317.12567508 218 318 C216.94681406 321.99752751 216.29527571 324.53310442 218.12011719 328.33154297 C219.78035055 330.78622194 221.53405189 333.11539499 223.375 335.4375 C223.99117188 336.25154297 224.60734375 337.06558594 225.2421875 337.90429688 C227.96464962 341.58514623 227.96464962 341.58514623 231 345 C231.46740995 350.79588336 231.46740995 350.79588336 231 353 C227.88884438 355.92049857 225.19061662 356.55846727 221.02734375 357.17578125 C219.88072266 357.36462891 218.73410156 357.55347656 217.55273438 357.74804688 C215.14052094 358.12467015 212.7263953 358.48924172 210.31054688 358.84179688 C203.73182213 359.84341552 203.73182213 359.84341552 198.390625 363.484375 C197.76971688 369.07254808 200.27821572 373.05436688 202.8125 377.9375 C209.09597929 390.28152304 209.09597929 390.28152304 208 396 C205.68201278 398.37508903 204.34982107 398.96557162 201.02319336 399.29296875 C199.3236853 399.24076172 199.3236853 399.24076172 197.58984375 399.1875 C195.73456055 399.15269531 195.73456055 399.15269531 193.84179688 399.1171875 C192.55337891 399.07851563 191.26496094 399.03984375 189.9375 399 C187.38449266 398.92360078 184.83104371 398.86045681 182.27734375 398.8125 C181.14546631 398.77769531 180.01358887 398.74289062 178.84741211 398.70703125 C175.99482146 398.75537749 175.99482146 398.75537749 174.12109375 400.39624023 C172.19730015 403.14828731 172.99075759 405.49857131 173.3984375 408.703125 C173.87711416 411.32652173 174.42496613 413.89152364 175.0390625 416.484375 C175.225896 417.27835693 175.41272949 418.07233887 175.60522461 418.89038086 C175.98885274 420.48617738 176.38776988 422.07838733 176.80297852 423.66625977 C177.62839918 427.0419859 178.09419462 429.46287493 177.48828125 432.91796875 C176 435 176 435 173.53125 436.4609375 C168.47720377 437.23246226 164.37526317 435.97130699 159.5 434.625 C151.36676785 432.19617719 151.36676785 432.19617719 143 432 C141.23132633 433.07772724 141.23132633 433.07772724 140 435 C139.63383229 437.9394855 139.63383229 437.9394855 139.8125 441.27734375 C139.83570313 442.51291016 139.85890625 443.74847656 139.8828125 445.02148438 C139.96082071 447.62825871 140.03894536 450.23502956 140.1171875 452.84179688 C140.14039063 454.07865234 140.16359375 455.31550781 140.1875 456.58984375 C140.22230469 457.72284912 140.25710938 458.85585449 140.29296875 460.02319336 C139.96557341 463.34980287 139.38002455 464.68574111 137 467 C130.49482526 468.12589563 125.45888785 465.31261483 119.75 462.5625 C117.97439112 461.72954555 116.19836731 460.89747488 114.421875 460.06640625 C113.25543457 459.5086853 113.25543457 459.5086853 112.06542969 458.93969727 C109.87905424 457.90133467 109.87905424 457.90133467 107 457 C104.2952607 457.97598498 104.2952607 457.97598498 102 460 C100.90937701 462.6994196 100.90937701 462.6994196 100.5234375 465.83984375 C100.22953125 467.5578418 100.22953125 467.5578418 99.9296875 469.31054688 C99.65511719 471.10588867 99.65511719 471.10588867 99.375 472.9375 C98.99682416 475.30237663 98.60918037 477.66576355 98.2109375 480.02734375 C97.96802979 481.60116821 97.96802979 481.60116821 97.72021484 483.20678711 C96.95028536 486.19280856 96.16727587 487.81736473 94 490 C88.86062377 490.86477257 86.10065643 490.4250369 81.82421875 487.4453125 C80.43002238 486.35786567 79.05119159 485.25046407 77.6875 484.125 C76.29567997 483.02330224 74.90375698 481.92173455 73.51171875 480.8203125 C72.60619263 480.08192139 72.60619263 480.08192139 71.68237305 479.32861328 C68.6746607 476.77739972 68.6746607 476.77739972 64.95703125 476.0234375 C63.89548828 476.19746094 63.89548828 476.19746094 62.8125 476.375 C61.554375 476.58125 60.29625 476.7875 59 477 C58.75354736 477.70608398 58.50709473 478.41216797 58.25317383 479.13964844 C57.12257953 482.34911147 55.96787324 485.5493781 54.8125 488.75 C54.42513672 489.86117188 54.03777344 490.97234375 53.63867188 492.1171875 C53.05375977 493.72207031 53.05375977 493.72207031 52.45703125 495.359375 C52.10616455 496.34389648 51.75529785 497.32841797 51.39379883 498.34277344 C49.73304179 501.50894608 47.97026492 503.04474221 45 505 C40.56869951 505 38.16306765 502.93713425 35 500 C32.08543955 496.85039435 29.20271308 493.66446899 26.6875 490.18359375 C24.4392612 487.11445197 23.11815252 486.03731132 19.4375 484.875 C16.01949181 484.65204845 16.01949181 484.65204845 14.03125 486.61328125 C11.69261012 489.36118311 9.90388577 492.2094915 8.0625 495.3125 C7.36079865 496.47091564 6.65768168 497.62847502 5.953125 498.78515625 C4.98632812 500.37650391 4.98632812 500.37650391 4 502 C-0.01956324 508.55880346 -0.01956324 508.55880346 -3.5 510.125 C-6.77772483 509.96111376 -8.3256628 508.87977279 -11 507 C-12.62158203 504.85522461 -12.62158203 504.85522461 -14.0078125 502.40234375 C-14.51957031 501.51869141 -15.03132812 500.63503906 -15.55859375 499.72460938 C-16.07550781 498.80486328 -16.59242188 497.88511719 -17.125 496.9375 C-18.16319547 495.10981682 -19.20721929 493.28542869 -20.2578125 491.46484375 C-20.7130127 490.656521 -21.16821289 489.84819824 -21.63720703 489.01538086 C-22.99922888 486.72712121 -22.99922888 486.72712121 -26 485 C-29.68129087 484.85841189 -32.03515593 485.13574605 -34.8359375 487.64453125 C-36.64252212 489.70750888 -38.33694624 491.819997 -40 494 C-43.34010008 498.20677328 -46.52826034 501.98842023 -51 505 C-54.125 505.125 -54.125 505.125 -57 504 C-61.61547411 499.50697725 -63.19737875 493.62869819 -65.25 487.6875 C-65.61351562 486.66076172 -65.97703125 485.63402344 -66.3515625 484.57617188 C-67.24321301 482.05373951 -68.12567508 479.52847893 -69 477 C-72.99752751 475.94681406 -75.53310442 475.29527571 -79.33154297 477.12011719 C-81.78622194 478.78035055 -84.11539499 480.53405189 -86.4375 482.375 C-87.25154297 482.99117188 -88.06558594 483.60734375 -88.90429688 484.2421875 C-92.58514623 486.96464962 -92.58514623 486.96464962 -96 490 C-101.79588336 490.46740995 -101.79588336 490.46740995 -104 490 C-106.92049857 486.88884438 -107.55846727 484.19061662 -108.17578125 480.02734375 C-108.36462891 478.88072266 -108.55347656 477.73410156 -108.74804688 476.55273438 C-109.12467015 474.14052094 -109.48924172 471.7263953 -109.84179688 469.31054688 C-110.82778006 462.70744212 -110.82778006 462.70744212 -114.5625 457.42578125 C-119.76676407 456.78116218 -123.16200498 458.83317099 -127.6875 461.25 C-129.37849899 462.11017609 -131.0698888 462.96958443 -132.76171875 463.828125 C-133.50381592 464.2190332 -134.24591309 464.60994141 -135.01049805 465.01269531 C-139.11043708 467.04731962 -142.45687946 467.40563576 -147 467 C-149.41610958 464.70863521 -149.96518026 463.35379753 -150.29296875 460.02319336 C-150.25816406 458.89018799 -150.22335938 457.75718262 -150.1875 456.58984375 C-150.16429687 455.35298828 -150.14109375 454.11613281 -150.1171875 452.84179688 C-150.07851562 451.55337891 -150.03984375 450.26496094 -150 448.9375 C-149.92360078 446.38449266 -149.86045681 443.83104371 -149.8125 441.27734375 C-149.76029297 439.57952759 -149.76029297 439.57952759 -149.70703125 437.84741211 C-149.77602073 435.01996354 -149.77602073 435.01996354 -151.25683594 433.09667969 C-153.47958611 431.6982772 -154.5002838 431.78549073 -157.078125 432.17578125 C-158.27211914 432.35294678 -158.27211914 432.35294678 -159.49023438 432.53369141 C-164.44796877 433.45482688 -169.35076494 434.59613925 -174.24609375 435.80273438 C-177.75249549 436.60169709 -180.38173027 437.10713404 -183.953125 436.48828125 C-186 435 -186 435 -187.4609375 432.53125 C-188.23246226 427.47720377 -186.97130699 423.37526317 -185.625 418.5 C-183.19617719 410.36676785 -183.19617719 410.36676785 -183 402 C-184.07772724 400.23132633 -184.07772724 400.23132633 -186 399 C-188.9394855 398.63383229 -188.9394855 398.63383229 -192.27734375 398.8125 C-193.51291016 398.83570313 -194.74847656 398.85890625 -196.02148438 398.8828125 C-198.62825871 398.96082071 -201.23502956 399.03894536 -203.84179688 399.1171875 C-205.07865234 399.14039063 -206.31550781 399.16359375 -207.58984375 399.1875 C-208.72284912 399.22230469 -209.85585449 399.25710938 -211.02319336 399.29296875 C-214.34980287 398.96557341 -215.68574111 398.38002455 -218 396 C-219.12589563 389.49482526 -216.31261483 384.45888785 -213.5625 378.75 C-212.72954555 376.97439112 -211.89747488 375.19836731 -211.06640625 373.421875 C-210.69459229 372.64424805 -210.32277832 371.86662109 -209.93969727 371.06542969 C-208.90133467 368.87905424 -208.90133467 368.87905424 -208 366 C-208.97598498 363.2952607 -208.97598498 363.2952607 -211 361 C-213.6994196 359.90937701 -213.6994196 359.90937701 -216.83984375 359.5234375 C-218.5578418 359.22953125 -218.5578418 359.22953125 -220.31054688 358.9296875 C-222.10588867 358.65511719 -222.10588867 358.65511719 -223.9375 358.375 C-226.30237663 357.99682416 -228.66576355 357.60918037 -231.02734375 357.2109375 C-232.60116821 356.96802979 -232.60116821 356.96802979 -234.20678711 356.72021484 C-237.19280856 355.95028536 -238.81736473 355.16727587 -241 353 C-241.86477257 347.86062377 -241.4250369 345.10065643 -238.4453125 340.82421875 C-237.35786567 339.43002238 -236.25046407 338.05119159 -235.125 336.6875 C-234.02330224 335.29567997 -232.92173455 333.90375698 -231.8203125 332.51171875 C-231.08192139 331.60619263 -231.08192139 331.60619263 -230.32861328 330.68237305 C-227.77739972 327.6746607 -227.77739972 327.6746607 -227.0234375 323.95703125 C-227.13945312 323.24933594 -227.25546875 322.54164063 -227.375 321.8125 C-227.58125 320.554375 -227.7875 319.29625 -228 318 C-229.05912598 317.63032104 -229.05912598 317.63032104 -230.13964844 317.25317383 C-233.34911147 316.12257953 -236.5493781 314.96787324 -239.75 313.8125 C-240.86117187 313.42513672 -241.97234375 313.03777344 -243.1171875 312.63867188 C-244.72207031 312.05375977 -244.72207031 312.05375977 -246.359375 311.45703125 C-247.34389648 311.10616455 -248.32841797 310.75529785 -249.34277344 310.39379883 C-252.50894608 308.73304179 -254.04474221 306.97026492 -256 304 C-256 299.56869951 -253.93713425 297.16306765 -251 294 C-247.85039435 291.08543955 -244.66446899 288.20271308 -241.18359375 285.6875 C-238.11445197 283.4392612 -237.03731132 282.11815252 -235.875 278.4375 C-235.65204845 275.01949181 -235.65204845 275.01949181 -237.61328125 273.03125 C-240.36118311 270.69261012 -243.2094915 268.90388577 -246.3125 267.0625 C-247.47091564 266.36079865 -248.62847502 265.65768168 -249.78515625 264.953125 C-250.84605469 264.30859375 -251.90695313 263.6640625 -253 263 C-259.55880346 258.98043676 -259.55880346 258.98043676 -261.125 255.5 C-260.96111376 252.22227517 -259.87977279 250.6743372 -258 248 C-255.85522461 246.37841797 -255.85522461 246.37841797 -253.40234375 244.9921875 C-252.51869141 244.48042969 -251.63503906 243.96867188 -250.72460938 243.44140625 C-249.80486328 242.92449219 -248.88511719 242.40757812 -247.9375 241.875 C-246.10981682 240.83680453 -244.28542869 239.79278071 -242.46484375 238.7421875 C-241.656521 238.2869873 -240.84819824 237.83178711 -240.01538086 237.36279297 C-237.72712121 236.00077112 -237.72712121 236.00077112 -236 233 C-235.85841189 229.31870913 -236.13574605 226.96484407 -238.64453125 224.1640625 C-240.70750888 222.35747788 -242.819997 220.66305376 -245 219 C-249.20677328 215.65989992 -252.98842023 212.47173966 -256 208 C-256.125 204.875 -256.125 204.875 -255 202 C-250.50697725 197.38452589 -244.62869819 195.80262125 -238.6875 193.75 C-237.66076172 193.38648438 -236.63402344 193.02296875 -235.57617188 192.6484375 C-233.05373951 191.75678699 -230.52847893 190.87432492 -228 190 C-226.94681406 186.00247249 -226.29527571 183.46689558 -228.12011719 179.66845703 C-229.78035055 177.21377806 -231.53405189 174.88460501 -233.375 172.5625 C-233.99117187 171.74845703 -234.60734375 170.93441406 -235.2421875 170.09570312 C-237.96464962 166.41485377 -237.96464962 166.41485377 -241 163 C-241.46740995 157.20411664 -241.46740995 157.20411664 -241 155 C-237.89190409 152.09089943 -235.13730442 151.40464631 -230.9921875 150.71875 C-229.84105469 150.51636719 -228.68992188 150.31398437 -227.50390625 150.10546875 C-225.07703418 149.70055468 -222.64994887 149.29691666 -220.22265625 148.89453125 C-219.07410156 148.69214844 -217.92554688 148.48976562 -216.7421875 148.28125 C-215.6888623 148.10658203 -214.63553711 147.93191406 -213.55029297 147.75195312 C-210.66941724 147.19876553 -210.66941724 147.19876553 -209 144 C-209.2650978 137.15876642 -212.25098357 131.69115826 -215.20507812 125.671875 C-217.40901263 120.98502693 -218.8404452 117.29414297 -218 112 C-215.68941817 109.61399037 -214.3505321 109.03449836 -211.02319336 108.70703125 C-209.89018799 108.74183594 -208.75718262 108.77664062 -207.58984375 108.8125 C-206.35298828 108.83570312 -205.11613281 108.85890625 -203.84179688 108.8828125 C-201.90916992 108.94082031 -201.90916992 108.94082031 -199.9375 109 C-197.38449266 109.07639922 -194.83104371 109.13954319 -192.27734375 109.1875 C-190.57952759 109.23970703 -190.57952759 109.23970703 -188.84741211 109.29296875 C-186.01996354 109.22397927 -186.01996354 109.22397927 -184.09667969 107.74316406 C-182.6982772 105.52041389 -182.78549073 104.4997162 -183.17578125 101.921875 C-183.2938916 101.12587891 -183.41200195 100.32988281 -183.53369141 99.50976562 C-184.45482688 94.55203123 -185.59613925 89.64923506 -186.80273438 84.75390625 C-187.60169709 81.24750451 -188.10713404 78.61826973 -187.48828125 75.046875 C-186 73 -186 73 -183.53125 71.5390625 C-178.47720377 70.76753774 -174.37526317 72.02869301 -169.5 73.375 C-161.36676785 75.80382281 -161.36676785 75.80382281 -153 76 C-151.23132633 74.92227276 -151.23132633 74.92227276 -150 73 C-149.63383229 70.0605145 -149.63383229 70.0605145 -149.8125 66.72265625 C-149.83570313 65.48708984 -149.85890625 64.25152344 -149.8828125 62.97851562 C-149.96082071 60.37174129 -150.03894536 57.76497044 -150.1171875 55.15820312 C-150.14039063 53.92134766 -150.16359375 52.68449219 -150.1875 51.41015625 C-150.23970703 49.71064819 -150.23970703 49.71064819 -150.29296875 47.97680664 C-149.96557341 44.65019713 -149.38002455 43.31425889 -147 41 C-140.49482526 39.87410437 -135.45888785 42.68738517 -129.75 45.4375 C-127.97439112 46.27045445 -126.19836731 47.10252512 -124.421875 47.93359375 C-123.64424805 48.30540771 -122.86662109 48.67722168 -122.06542969 49.06030273 C-119.87905424 50.09866533 -119.87905424 50.09866533 -117 51 C-114.2952607 50.02401502 -114.2952607 50.02401502 -112 48 C-110.90937701 45.3005804 -110.90937701 45.3005804 -110.5234375 42.16015625 C-110.3275 41.01482422 -110.1315625 39.86949219 -109.9296875 38.68945312 C-109.65511719 36.89411133 -109.65511719 36.89411133 -109.375 35.0625 C-108.99682416 32.69762337 -108.60918037 30.33423645 -108.2109375 27.97265625 C-108.04899902 26.92343994 -107.88706055 25.87422363 -107.72021484 24.79321289 C-106.95028536 21.80719144 -106.16727587 20.18263527 -104 18 C-98.86062377 17.13522743 -96.10065643 17.5749631 -91.82421875 20.5546875 C-90.43002238 21.64213433 -89.05119159 22.74953593 -87.6875 23.875 C-86.29567997 24.97669776 -84.90375698 26.07826545 -83.51171875 27.1796875 C-82.90803467 27.67194824 -82.30435059 28.16420898 -81.68237305 28.67138672 C-77.86279022 31.68780955 -75.828321 32.3081907 -71 32 C-68.1136344 30.5568172 -68.04804517 28.81066149 -67.01171875 25.79296875 C-66.44614258 24.2006543 -66.44614258 24.2006543 -65.86914062 22.57617188 C-65.08629042 20.33113863 -64.3101556 18.08375156 -63.54101562 15.83398438 C-63.16009766 14.76857422 -62.77917969 13.70316406 -62.38671875 12.60546875 C-61.87951294 11.13823364 -61.87951294 11.13823364 -61.36206055 9.64135742 C-59.72583747 6.46833403 -57.96542086 4.95124635 -55 3 C-50.56869951 3 -48.16306765 5.06286575 -45 8 C-42.08543955 11.14960565 -39.20271308 14.33553101 -36.6875 17.81640625 C-34.4392612 20.88554803 -33.11815252 21.96268868 -29.4375 23.125 C-26.01949181 23.34795155 -26.01949181 23.34795155 -24.03125 21.38671875 C-21.69261012 18.63881689 -19.90388577 15.7905085 -18.0625 12.6875 C-8.17555986 -3.70273743 -8.17555986 -3.70273743 0 0 Z M-18.25 48.1875 C-20.91552594 52.47138098 -22.39998206 56.24610053 -21.66015625 61.33984375 C-20.07604417 66.97328377 -17.84141639 69.77238907 -13 73 C-8.01920617 74.66026461 -3.69726371 74.59903425 1.1875 72.875 C5.42051121 70.05299253 8.35909664 66.92271008 10 62 C10.39680449 56.74234055 9.89498146 53.43897158 7 49 C3.22923986 45.2694613 0.11643269 42.85951903 -5.25 42.75 C-10.77859425 42.82986733 -14.25147724 44.30004732 -18.25 48.1875 Z M-123 106 C-123.51578613 106.40750488 -124.03157227 106.81500977 -124.56298828 107.23486328 C-135.91012965 116.21173206 -135.91012965 116.21173206 -144 128 C-142.43596766 128.00219984 -142.43596766 128.00219984 -140.84033871 128.00444412 C-115.42385908 128.04110236 -90.00751059 128.10063472 -64.59113979 128.18390274 C-52.29977142 128.22364623 -40.00846664 128.25606255 -27.71704102 128.27099609 C-16.99898203 128.28403691 -6.28106324 128.31106358 4.43691677 128.35461307 C10.10761407 128.37717314 15.77813881 128.39291395 21.44888496 128.39188385 C26.79644602 128.39113402 32.14362639 128.40921415 37.49108887 128.44116783 C39.4440277 128.44962217 41.39700945 128.45144747 43.34995842 128.44580269 C67.32803347 128.38577775 88.78329804 134.83896182 106.7109375 151.54296875 C110.51239322 155.62337088 113.29178746 160.14688312 116 165 C116.41121094 165.70125 116.82242187 166.4025 117.24609375 167.125 C123.06958552 177.70540996 123.62352815 191.08120551 120.9375 202.6875 C116.35041128 217.19204443 104.91150098 228.39726367 92.76171875 236.9296875 C89.89916448 239.07559099 87.46993816 241.41758743 85 244 C85.92941406 244.75023437 86.85882813 245.50046875 87.81640625 246.2734375 C100.78364894 256.92441281 107.94303684 267.18399722 112.2421875 283.65625 C112.45278809 284.45804688 112.66338867 285.25984375 112.88037109 286.0859375 C113.28426842 287.65951384 113.67090801 289.237652 114.03759766 290.8203125 C115.30020634 295.83970858 116.85273976 298.63547989 121 302 C128.87795969 306.00808476 137.4789245 306.3157679 145.9375 303.75 C152.70473089 301.11151287 155.82587331 297.34825339 159 291 C159.87349275 288.13393104 160.17511148 285.44050014 160.31640625 282.453125 C160.35451416 281.69161133 160.39262207 280.93009766 160.43188477 280.14550781 C160.49653931 278.71223145 160.49653931 278.71223145 160.5625 277.25 C160.706875 274.1975 160.85125 271.145 161 268 C167.93 267.67 174.86 267.34 182 267 C182.68545756 263.57271218 183.12743615 261.07300917 183.1328125 257.70703125 C183.13474609 256.51303711 183.13474609 256.51303711 183.13671875 255.29492188 C183.13285156 254.47572266 183.12898438 253.65652344 183.125 252.8125 C183.12886719 252.01263672 183.13273437 251.21277344 183.13671875 250.38867188 C183.12732588 244.54161142 182.67548524 238.80624951 182 233 C181.17387207 232.63237549 180.34774414 232.26475098 179.49658203 231.88598633 C176.38330418 230.49928139 173.27095495 229.11053066 170.15917969 227.72045898 C168.8213208 227.12330378 167.48311404 226.52692722 166.14453125 225.93139648 C143.80709231 215.99157055 143.80709231 215.99157055 140.8125 212.3125 C138.67588552 203.60168711 141.83489901 196.13538597 145.625 188.375 C146.53054771 186.44819844 147.43549084 184.52111263 148.33984375 182.59375 C149.01249268 181.18029297 149.01249268 181.18029297 149.69873047 179.73828125 C151.5693811 175.80184269 153.39689235 171.84840797 155.1875 167.875 C155.49059082 167.23095215 155.79368164 166.5869043 156.10595703 165.92333984 C157.16973457 163.55718644 158.02387511 161.59119317 157.91796875 158.96875 C156.55007617 156.03505697 154.89024971 153.33001212 153.125 150.625 C152.72861328 150.01430664 152.33222656 149.40361328 151.92382812 148.77441406 C142.9639019 135.2095025 132.48241692 122.44140211 120 112 C118.58267578 110.75089844 118.58267578 110.75089844 117.13671875 109.4765625 C98.89570575 93.47227902 77.88728597 81.60484155 54.875 73.875 C53.78606445 73.50882568 52.69712891 73.14265137 51.57519531 72.76538086 C44.35225409 70.46162541 36.63187507 68.02277372 29 68 C26.60871219 69.20586181 26.60871219 69.20586181 25 71 C25 71.66 25 72.32 25 73 C24.40541992 73.2671582 23.81083984 73.53431641 23.19824219 73.80957031 C20.96552255 75.01867082 19.57502476 76.22121708 17.828125 78.046875 C17.25006104 78.64218018 16.67199707 79.23748535 16.07641602 79.85083008 C15.47369873 80.47755615 14.87098145 81.10428223 14.25 81.75 C2.12222892 94.06880892 2.12222892 94.06880892 -4.5625 96.0625 C-10.85597293 95.94807322 -15.08767065 93.39097356 -19.42773438 88.97265625 C-19.88470703 88.48667969 -20.34167969 88.00070313 -20.8125 87.5 C-21.28880859 87.01402344 -21.76511719 86.52804688 -22.25585938 86.02734375 C-24.43146237 83.7813626 -26.26035021 81.60947469 -28 79 C-28.66 79 -29.32 79 -30 79 C-30.25910156 78.41734375 -30.51820313 77.8346875 -30.78515625 77.234375 C-32.08886248 74.83656162 -33.51745533 73.18243206 -35.4375 71.25 C-36.03433594 70.63640625 -36.63117188 70.0228125 -37.24609375 69.390625 C-53.94537453 56.15021529 -110.27738023 95.90131267 -123 106 Z M-198 184 C-202.13715117 189.19795916 -203.65330514 193.35806438 -203 200 C-201.17535153 204.38570215 -198.69797397 207.89687125 -194.6875 210.5 C-190.59672729 212.16404314 -187.31125878 212.9507719 -183 212 C-178.05300109 209.83679618 -174.03611357 207.15016963 -172 202 C-170.63759398 195.96648761 -170.74349412 192.49535367 -174 187 C-177.22130676 183.13443189 -180.42138585 180.74134096 -185.4375 179.875 C-190.35343608 179.64849783 -194.09943164 181.03486206 -198 184 Z M164.55078125 185.4296875 C160.73259775 189.82770975 159.68257585 193.13114166 159.7890625 198.9453125 C160.27163849 203.64596013 162.47956989 206.44239632 165.625 209.8125 C169.40725819 212.71254412 173.31189031 213.26999585 178 213 C183.89774456 211.32897238 186.52524841 208.80333308 190 204 C191.84581616 200.30836767 191.34502398 196.03805842 191 192 C189.15980989 187.39952473 185.88427517 184.91320638 182 182 C175.52105615 179.84035205 169.54068811 180.50703006 164.55078125 185.4296875 Z M-158 184 C-157.17320968 188.13395159 -156.30054611 190.74742731 -154.5 194.4375 C-150.26540511 203.63297203 -150.26540511 203.63297203 -152.125 209.625 C-155.42482957 215.56469322 -160.37296393 217.85865256 -166.453125 220.41796875 C-167.15395203 220.72068192 -167.85477905 221.02339508 -168.57684326 221.33528137 C-170.79817027 222.29333356 -173.02378211 223.24087553 -175.25 224.1875 C-177.48964635 225.14669674 -179.728329 226.10806579 -181.96600342 227.07185364 C-183.35469219 227.66925467 -184.74467647 228.26365477 -186.13604736 228.8547821 C-189.29790897 230.05894707 -189.29790897 230.05894707 -192 232 C-195.36264521 254.79126201 -193.65714317 281.23577773 -186 303 C-185.67 303.33 -185.34 303.66 -185 304 C-167.18 304 -149.36 304 -131 304 C-131 264.4 -131 224.8 -131 184 C-139.91 184 -148.82 184 -158 184 Z M-48 185 C-48 196.88 -48 208.76 -48 221 C-36.40921796 221.11662138 -36.40921796 221.11662138 -24.81835938 221.1953125 C-20.08078771 221.21909108 -15.34352945 221.24701382 -10.60620117 221.30175781 C-6.7806324 221.34568168 -2.95540037 221.36923347 0.87040138 221.37950897 C2.31944889 221.38681795 3.76848099 221.4010868 5.21738243 221.42292023 C16.12092192 221.58047386 27.98834989 221.31323926 36.3125 213.375 C39.23996976 209.47170699 39.86201575 206.15068532 39.4921875 201.328125 C38.2940186 195.66059593 34.67337349 192.11558233 30 189 C22.1242557 184.10948311 13.97663688 184.48049615 5.02734375 184.609375 C3.49321739 184.61684867 1.95908139 184.62253627 0.42494202 184.62652588 C-3.58490014 184.64169393 -7.59414951 184.68089735 -11.60375977 184.7253418 C-16.42960106 184.77373917 -21.25564216 184.79187071 -26.08165741 184.81515503 C-33.38818207 184.85375579 -40.69340976 184.93046861 -48 185 Z M-48 271 C-48 282.55 -48 294.1 -48 306 C-24.735 306.495 -24.735 306.495 -1 307 C-1 325.15 -1 343.3 -1 362 C-52.15 362.33 -103.3 362.66 -156 363 C-152.41602198 369.38235353 -152.41602198 369.38235353 -148 375 C-147.34 375 -146.68 375 -146 375 C-145.7525 375.5775 -145.505 376.155 -145.25 376.75 C-143.69183082 379.55470452 -142.66817015 381.15280528 -140 383 C-131.9772859 382.52995022 -124.30766099 380.56270074 -116.52734375 378.640625 C-110.59134092 377.2653061 -104.94434857 376.11108517 -99 378 C-94.42721061 381.32013698 -93.19198295 384.45376987 -92 389.875 C-91.83886719 390.54901855 -91.67773438 391.22303711 -91.51171875 391.91748047 C-90.50275741 396.23926238 -89.74060774 400.56784149 -89.0625 404.953125 C-87.68972754 415.55295963 -87.68972754 415.55295963 -82.64453125 424.58984375 C-79.46071618 426.24542759 -76.47910902 427.12265946 -73 428 C-71.69196756 428.47345959 -70.39000799 428.96394503 -69.09375 429.46875 C-52.44271192 435.7916835 -33.80998393 439.73073458 -16 440 C-14.8248584 440.02852051 -14.8248584 440.02852051 -13.62597656 440.05761719 C12.72354734 440.65714011 38.38929769 437.8300358 62.98431396 427.81646729 C64.3200623 427.27541337 65.66812541 426.76375787 67.02685547 426.2833252 C70.05121039 425.05407242 72.39021949 424.09964281 74.01542664 421.1688385 C74.70717594 418.87202352 75.16927818 416.61817555 75.57421875 414.25390625 C75.75080521 413.40577866 75.92739166 412.55765106 76.10932922 411.68382263 C76.66796718 408.98207486 77.18077624 406.27442386 77.6875 403.5625 C78.21014683 400.85577255 78.74275607 398.15216485 79.29780579 395.45188904 C79.6408302 393.77526637 79.96473381 392.09458238 80.26652527 390.41004944 C81.30815478 385.21825131 82.68210253 382.39738502 87 379 C92.64720111 377.11759963 97.94165784 378.01972016 103.6328125 379.34765625 C105.46005859 379.76047852 105.46005859 379.76047852 107.32421875 380.18164062 C109.86634712 380.77079782 112.40801233 381.36195691 114.94921875 381.95507812 C116.16480469 382.22900391 117.38039063 382.50292969 118.6328125 382.78515625 C119.73512207 383.04176025 120.83743164 383.29836426 121.97314453 383.56274414 C125.80267505 384.11595346 128.64986408 384.00454798 131.80078125 381.66015625 C132.29964844 381.13292969 132.79851562 380.60570312 133.3125 380.0625 C133.82425781 379.53785156 134.33601563 379.01320313 134.86328125 378.47265625 C136.20367636 377.04618644 136.20367636 377.04618644 136 375 C136.66 375 137.32 375 138 375 C139.44300327 373.24115867 140.80691214 371.41679923 142.125 369.5625 C142.84945313 368.55316406 143.57390625 367.54382813 144.3203125 366.50390625 C146.09284828 364.36410984 146.09284828 364.36410984 146 363 C144.99490387 362.99857498 143.98980774 362.99714996 142.95425415 362.99568176 C133.45052061 362.97896281 123.94721258 362.93604015 114.44370461 362.86790943 C109.55859953 362.83371812 104.67380458 362.80854171 99.78857422 362.80444336 C95.06797609 362.80014351 90.34807662 362.77154172 85.62769699 362.72656822 C83.83296158 362.71364692 82.03814232 362.70926638 80.24336624 362.71384621 C69.13507063 362.73557621 60.04767944 362.59387194 51.44921875 354.640625 C50.86785156 353.85171875 50.28648437 353.0628125 49.6875 352.25 C49.09324219 351.47140625 48.49898437 350.6928125 47.88671875 349.890625 C42.73297326 341.99461742 39.92581419 335.01487687 38 325.75 C37.48973859 323.44267399 36.97931966 321.13538282 36.46875 318.828125 C35.75446913 315.52271589 35.04589194 312.21621111 34.34375 308.90820312 C30.2626631 289.33319649 30.2626631 289.33319649 17 275 C9.77243818 270.67415291 3.1410046 270.464499 -5.12890625 270.609375 C-6.35915024 270.61503479 -7.58939423 270.62069458 -8.85691833 270.62652588 C-12.75918645 270.6487908 -16.66051268 270.6989716 -20.5625 270.75 C-23.2193876 270.77234924 -25.87626635 270.78832604 -28.53320312 270.8046875 C-35.02278404 270.84520939 -41.51034647 270.92352618 -48 271 Z M-131 400 C-133.87452343 404.07996875 -134.60051741 407.78776931 -134.41015625 412.6875 C-133.67445009 416.83548138 -131.8561287 419.93523721 -129 423 C-124.28810445 425.7922344 -120.43273514 426.667178 -115 426 C-110.57512661 424.60267156 -107.09047963 422.74856446 -104.5 418.8125 C-102.20103967 414.01957823 -101.93931545 409.03308112 -103.6953125 404.01171875 C-105.93613623 399.61480832 -108.54992604 397.02276089 -113 395 C-120.22271806 393.84349227 -125.89920055 394.50683136 -131 400 Z M94.390625 400.76953125 C91.00310245 405.59389624 90.16853442 409.17974093 91 415 C93.47903059 421.09428353 96.92087044 424.41264919 103 427 C108.07094391 427.81497313 111.7888322 426.75769701 116.203125 424.328125 C120.30593774 421.29561123 121.61574985 417.32085988 123 412.5625 C123 406.37377658 120.41215433 402.54351752 116.3125 398.0625 C108.68319771 393.3121797 100.5634469 393.98242367 94.390625 400.76953125 Z " fill="#FEFEFE" transform="translate(261,2)"/>
</svg>
