<?xml version="1.0" encoding="UTF-8" standalone="no"?>
<!-- Created with Inkscape (http://www.inkscape.org/) -->

<svg
   width="427.60098mm"
   height="427.60098mm"
   viewBox="0 0 427.60097 427.60098"
   version="1.1"
   id="svg1"
   xml:space="preserve"
   inkscape:version="1.4 (e7c3feb100, 2024-10-09)"
   sodipodi:docname="tauri.svg"
   xmlns:inkscape="http://www.inkscape.org/namespaces/inkscape"
   xmlns:sodipodi="http://sodipodi.sourceforge.net/DTD/sodipodi-0.dtd"
   xmlns="http://www.w3.org/2000/svg"
   xmlns:svg="http://www.w3.org/2000/svg"><sodipodi:namedview
     id="namedview1"
     pagecolor="#505050"
     bordercolor="#eeeeee"
     borderopacity="1"
     inkscape:showpageshadow="0"
     inkscape:pageopacity="0"
     inkscape:pagecheckerboard="0"
     inkscape:deskcolor="#505050"
     inkscape:document-units="mm"
     inkscape:zoom="0.27370379"
     inkscape:cx="710.62223"
     inkscape:cy="1072.3271"
     inkscape:window-width="1876"
     inkscape:window-height="986"
     inkscape:window-x="0"
     inkscape:window-y="0"
     inkscape:window-maximized="1"
     inkscape:current-layer="layer1"
     showguides="true"><sodipodi:guide
       position="-539.32517,652.94067"
       orientation="1,0"
       id="guide25"
       inkscape:locked="false" /></sodipodi:namedview><defs
     id="defs1" /><g
     inkscape:label="Layer 1"
     inkscape:groupmode="layer"
     id="layer1"
     transform="translate(-65.610893,55.316372)"><a
       id="a48"
       transform="matrix(1.3671008,0,0,1.3671008,-104.22622,-57.802137)"><path
         style="fill:#000000;fill-opacity:0"
         d="m 244.6688,312.95755 c -0.64307,-0.076 -2.6725,-0.29884 -4.50985,-0.49512 -3.96783,-0.42387 -9.77851,-1.60749 -15.53394,-3.16421 -19.6022,-5.30199 -39.34873,-17.385 -52.81925,-32.32041 -11.24099,-12.46343 -18.56235,-24.97892 -24.17447,-41.32508 -2.17363,-6.33101 -4.03164,-14.62649 -4.90091,-21.88114 -0.68821,-5.74351 -0.59293,-21.97931 0.16075,-27.39319 2.82634,-20.30226 10.63373,-38.72231 23.50457,-55.4545 2.40069,-3.12092 9.20003,-10.33185 13.13077,-13.92564 12.97669,-11.86431 29.65014,-20.785424 47.6917,-25.517413 3.32612,-0.872382 4.60076,-0.999321 4.91582,-0.489557 0.21764,0.35216 -0.43285,3.118708 -1.65233,7.027378 -1.57127,5.036212 -2.68693,15.762142 -2.36413,22.728652 0.2463,5.31563 0.16741,5.58264 -1.8222,6.16709 -1.73734,0.51034 -10.98396,5.13878 -13.98395,6.99973 -8.76511,5.43717 -17.18504,13.67855 -23.34046,22.84551 -3.00967,4.48216 -7.44449,13.66684 -9.24134,19.13918 -2.66164,8.10607 -3.5035,12.99301 -3.76665,21.86488 -0.42759,14.41643 2.04389,26.00086 8.226,38.55715 3.5933,7.29825 7.61804,12.92838 13.69347,19.15555 8.13354,8.33668 15.77865,13.62166 26.07448,18.025 5.39021,2.3053 13.42853,4.67459 17.87239,5.26789 1.46988,0.19624 3.64964,0.49206 4.84391,0.65737 2.84747,0.39413 13.2255,0.38713 16.20207,-0.0109 1.28615,-0.172 3.54107,-0.4681 5.01095,-0.65798 4.71871,-0.6096 13.67161,-3.39239 19.88139,-6.17965 10.9113,-4.89755 21.61884,-13.37641 29.1677,-23.09671 1.83238,-2.35946 2.39888,-2.67528 5.66753,-3.15961 6.59997,-0.97794 11.27473,-1.9817 18.10917,-3.8884 5.50482,-1.53575 8.21518,-2.52646 16.6179,-6.07428 3.4894,-1.47331 4.18752,-1.62076 4.44889,-0.93967 0.20022,0.52179 -1.64264,5.70722 -3.34783,9.42004 -6.99241,15.22516 -13.72923,25.08095 -24.55837,35.92828 -16.8289,16.85717 -39.73651,28.20133 -63.76653,31.57807 -3.4046,0.47841 -22.6505,0.94126 -25.43725,0.61173 z m 20.37786,-0.83187 c 9.39423,-0.69799 20.80424,-3.41414 30.68314,-7.30409 4.39603,-1.73101 13.25949,-6.15626 16.75385,-8.36469 0.2756,-0.17418 1.26922,-0.7716 2.20805,-1.32759 5.2676,-3.11959 12.02674,-8.56429 18.45245,-14.86402 10.04054,-9.84372 16.21267,-18.48988 22.59139,-31.64695 2.74141,-5.65458 5.64939,-12.61486 5.3821,-12.88214 -0.0738,-0.0738 -1.16257,0.30781 -2.41945,0.84807 -9.19548,3.95262 -11.1286,4.67116 -17.15104,6.375 -7.00254,1.98114 -11.84493,3.02847 -18.70691,4.04602 -2.85896,0.42395 -3.5156,0.7748 -5.06754,2.70764 -8.87555,11.05392 -19.12276,19.02721 -31.01192,24.13016 -4.48663,1.92571 -8.6725,3.43453 -10.84364,3.90866 -0.74232,0.16211 -2.5523,0.58601 -4.02218,0.942 -4.73705,1.14727 -9.34764,1.55643 -17.53832,1.55643 -10.44528,0 -14.36368,-0.59161 -24.38662,-3.68196 -16.31627,-5.03074 -32.49687,-17.30967 -41.81068,-31.72875 -6.54149,-10.12712 -10.3946,-20.32362 -12.3713,-32.7382 -0.65998,-4.145 -0.55462,-20.22385 0.15762,-24.05255 1.94287,-10.44412 4.14849,-16.9337 8.66879,-25.50613 6.21195,-11.78052 16.52978,-22.74152 27.98428,-29.72871 2.39832,-1.46297 9.64082,-5.07473 12.19331,-6.08068 3.06456,-1.20777 2.90045,-0.84789 2.64557,-5.80146 -0.34255,-6.6575 0.89484,-19.00572 2.33304,-23.282034 0.27162,-0.807612 0.79384,-2.558267 1.16049,-3.890345 0.78667,-2.858066 0.98778,-2.763537 -3.39724,-1.596794 -7.68655,2.045195 -18.03493,5.994023 -24.28894,9.268393 -6.31453,3.30606 -13.95721,8.37613 -19.87676,13.18604 -5.30991,4.31454 -14.36798,13.96105 -18.76272,19.9816 -1.74442,2.38974 -5.82365,8.6177 -6.23601,9.5208 -0.12584,0.2756 -0.54618,1.02724 -0.93409,1.67032 -0.38791,0.64307 -1.72676,3.19869 -2.97522,5.67916 -5.43366,10.79567 -9.17688,22.8925 -10.9057,35.24359 -0.84575,6.04218 -0.83911,21.84236 0.0117,27.86493 1.1429,8.09008 2.70478,14.85385 4.9069,21.24945 7.00294,20.33864 18.40287,37.12554 34.22699,50.40074 12.11814,10.16618 24.32937,16.7941 40.25462,21.8491 5.65184,1.79401 14.84249,3.57123 21.04599,4.06972 8.1122,0.65187 12.04573,0.64799 21.04598,-0.0207 z m -16.53613,-82.46151 c -10.93667,-2.55734 -19.54899,-10.86233 -22.37674,-21.57823 -0.55451,-2.10134 -0.75192,-9.34515 -0.33811,-12.40648 0.46429,-3.43478 2.62233,-8.73409 4.92083,-12.08366 4.3924,-6.40097 12.57832,-11.21165 20.63067,-12.12416 12.79579,-1.45006 24.6447,4.95146 30.06508,16.24302 2.1932,4.5688 3.0103,8.12581 3.00923,13.09989 -0.003,13.55411 -8.85449,24.99133 -22.04733,28.48756 -3.99057,1.05754 -10.19625,1.2196 -13.86363,0.36206 z m 11.2528,-0.53279 c 5.47358,-1.13829 9.78492,-3.12612 13.48687,-6.21842 12.32548,-10.29566 14.04359,-28.08752 3.9086,-40.4755 -4.62857,-5.6575 -11.36733,-9.34029 -18.84573,-10.29935 -7.15135,-0.91713 -15.28397,1.33276 -20.89248,5.77988 -6.55587,5.19831 -10.26544,11.82002 -11.10556,19.82385 -0.45009,4.28797 -0.11072,8.27476 0.97997,11.51245 2.78593,8.26987 8.42051,14.5039 16.20458,17.92851 2.16208,0.95121 3.48756,1.34868 7.01533,2.1037 2.17284,0.46503 6.62549,0.39035 9.24842,-0.15512 z m 67.29301,-3.01322 c -0.12167,-0.31706 0.1424,-1.79662 0.58682,-3.28792 0.89882,-3.01607 1.21976,-4.37666 2.29438,-9.72678 0.65071,-3.23958 0.73964,-4.75185 0.7511,-12.77176 0.0146,-10.22532 -0.14393,-9.59694 2.67396,-10.59799 2.77334,-0.98523 11.70987,-5.72144 14.80347,-7.8456 17.44959,-11.98137 29.18009,-29.17817 33.30742,-48.82834 1.13668,-5.41173 1.82427,-11.55717 1.82749,-16.33356 0.003,-3.78586 -0.74004,-12.25827 -1.30297,-14.86581 -0.15866,-0.73494 -0.4688,-2.163064 -0.6892,-3.173606 -2.62446,-12.033316 -7.92686,-22.736069 -16.31743,-32.936268 -6.93892,-8.435483 -15.06067,-14.86464 -25.15472,-19.912433 -11.53354,-5.767651 -22.20714,-8.285593 -35.11639,-8.284087 -7.64331,8.92e-4 -13.09815,0.640988 -19.73427,2.315712 -15.68443,3.958195 -30.31795,13.123778 -40.52782,25.384266 -2.04506,2.455801 -3.95675,4.598546 -4.24822,4.761657 -0.29146,0.16311 -3.42874,0.811871 -6.97173,1.441691 -3.543,0.629821 -8.02026,1.521563 -9.94947,1.981649 -5.76698,1.375331 -14.94893,4.519704 -21.94635,7.515559 -1.32201,0.566 -2.72834,1.029091 -3.12518,1.029091 -0.63936,0 -0.70339,-0.142658 -0.5623,-1.252737 0.77052,-6.062385 10.58235,-24.605509 17.99766,-34.013304 8.77354,-11.130981 19.11335,-20.213722 31.31431,-27.507247 13.39017,-8.004415 27.7525,-12.8448825 44.30373,-14.9314683 6.4248,-0.8099634 20.95585,-0.8083695 26.89209,0.00295 9.42094,1.2875795 18.66391,3.5303539 26.05694,6.3226233 23.55692,8.89721 43.58721,25.533044 56.78226,47.159596 5.64348,9.249611 10.68707,21.464389 13.17305,31.903042 5.31206,22.305364 3.94602,44.670414 -4.04005,66.144524 -7.9146,21.28192 -22.62317,40.14062 -41.52864,53.24628 -11.12467,7.71184 -21.97621,12.68377 -36.4129,16.68355 -1.01054,0.27998 -2.53001,0.60898 -3.37659,0.73112 -1.27814,0.18439 -1.57676,0.12428 -1.76045,-0.3544 z m 4.30188,-0.83567 c 7.45721,-1.87554 15.91736,-5.03702 23.309,-8.71037 18.60656,-9.24672 34.82973,-24.24244 45.85656,-42.38703 2.02555,-3.33304 6.16987,-11.43806 7.61572,-14.89403 3.25304,-7.77566 6.34939,-19.31895 7.78836,-29.03529 0.85589,-5.77921 0.86274,-21.61544 0.012,-27.72725 -1.3355,-9.594223 -4.00802,-20.030917 -6.92902,-27.059123 C 402.53255,59.882066 394.88671,48.17121 384.14022,37.375991 373.80509,26.994004 362.75803,19.366764 349.76232,13.640397 338.92298,8.8642064 328.18266,6.0326536 314.98912,4.4728767 310.49069,3.9410591 295.48831,4.2132768 290.6025,4.9153711 c -8.82681,1.2684211 -20.20902,4.0630323 -25.3888,6.2335729 -0.36747,0.153985 -2.02109,0.839509 -3.6747,1.523386 -22.82303,9.438825 -42.34048,26.679149 -54.42777,48.077622 -2.41192,4.269904 -5.95409,11.593917 -7.03808,14.552414 -0.50491,1.378011 -1.22008,3.300101 -1.58928,4.271312 -0.3692,0.97121 -0.60177,1.835336 -0.51682,1.92028 0.0849,0.08494 1.57029,-0.464202 3.30078,-1.220323 11.38281,-4.973605 20.48444,-7.568635 35.04939,-9.993183 1.19428,-0.198805 2.47803,-0.422922 2.85278,-0.498039 0.37475,-0.07512 1.9532,-1.665383 3.50766,-3.533926 4.41965,-5.312632 5.27557,-6.212356 8.83944,-9.291802 5.87174,-5.073611 7.98844,-6.57054 14.53175,-10.276854 7.87757,-4.462068 17.87805,-7.795 27.56022,-9.185188 4.14132,-0.594619 18.14302,-0.581129 22.04818,0.02124 15.34161,2.366449 28.43081,8.20301 39.96819,17.822077 12.75873,10.637338 22.20923,25.771328 25.81777,41.344452 0.48961,2.11295 1.02443,4.367878 1.1885,5.010948 1.15505,4.52733 1.57497,18.95275 0.7243,24.88164 -3.20747,22.35503 -14.54673,41.24199 -32.62212,54.33622 -1.65361,1.19791 -4.29858,2.93914 -5.8777,3.8694 -3.03529,1.78808 -9.92354,5.18046 -11.3284,5.5791 -0.45832,0.13006 -1.16936,0.40158 -1.58009,0.60338 -0.7456,0.36633 -0.74674,0.38077 -0.72019,9.08223 0.0228,7.45646 -0.0765,9.31847 -0.68689,12.8911 -0.81127,4.74816 -1.48222,7.67223 -2.39299,10.42894 -0.34712,1.05068 -0.63113,2.0654 -0.63113,2.25493 0,0.49486 0.81645,0.42306 3.84172,-0.33781 z M 299.62221,145.6188 c -4.72342,-0.75711 -9.65099,-2.9206 -13.36253,-5.86691 -5.51238,-4.37587 -8.9058,-9.62176 -10.76726,-16.64518 -0.87047,-3.28434 -0.78938,-11.0608 0.1484,-14.23099 2.04444,-6.91122 5.1838,-11.739673 10.2244,-15.725466 3.56357,-2.81785 6.32376,-4.226025 10.76353,-5.491267 14.08418,-4.013698 28.79932,2.900434 35.06446,16.475563 1.91262,4.14424 2.29117,6.12691 2.30842,12.09057 0.0142,4.90669 -0.0585,5.57786 -0.8863,8.18455 -1.98484,6.24995 -5.62128,11.73694 -9.93046,14.98401 -5.11097,3.85123 -8.84212,5.45347 -14.54295,6.24506 -3.97587,0.55208 -5.47174,0.54877 -9.01971,-0.0199 z m 8.19469,-0.47503 c 7.27706,-0.76611 14.66462,-4.81891 19.25206,-10.56163 2.30093,-2.88038 4.85591,-8.09225 5.80562,-11.84279 1.43152,-5.65325 0.81881,-12.3931 -1.62474,-17.87239 -1.75311,-3.93107 -3.19213,-6.048015 -6.03496,-8.87806 -3.89681,-3.879277 -7.19,-5.939731 -11.91667,-7.455919 -9.09755,-2.918247 -18.63454,-1.207158 -26.45569,4.746579 -3.80378,2.895569 -6.73617,6.481405 -8.60085,10.51745 -3.67617,7.95697 -3.82893,15.73959 -0.46743,23.81427 1.77502,4.26379 4.3231,7.67624 8.20529,10.9887 2.84127,2.42431 5.83603,4.07868 9.63392,5.322 4.34504,1.42243 7.39611,1.7279 12.20345,1.22179 z"
         id="path43" /><path
         style="fill:#23c8db;fill-opacity:1;stroke-width:3.65358"
         d="m 683.22034,1388.0255 c -71.11652,-9.5548 -112.2327,-21.4608 -160.62441,-46.5117 -56.95797,-29.4853 -120.43055,-85.5869 -155.20598,-137.1821 -23.42859,-34.7602 -50.38527,-93.9084 -61.26444,-134.4261 -8.71868,-32.4713 -9.6589,-42.2901 -9.73909,-101.70565 -0.0812,-60.16113 0.7521,-68.87752 9.78011,-102.30037 11.87483,-43.96217 46.00287,-115.00885 71.07907,-147.97018 40.323,-53.00244 93.20345,-97.49045 149.16214,-125.48922 27.94962,-13.98453 92.07673,-37.28451 94.88548,-34.47577 0.98278,0.98279 -0.65499,12.31604 -3.6395,25.185 -2.98451,12.86896 -6.30635,40.64949 -7.38187,61.73452 -1.32369,25.95014 -3.43017,38.82306 -6.51973,39.84261 -2.51032,0.82841 -16.33247,7.58772 -30.71588,15.02068 -72.91644,37.68129 -125.43433,102.693 -149.19584,184.68899 -12.07381,41.66422 -13.08328,116.57259 -2.14718,159.33239 26.22905,102.5546 102.85729,182.1588 206.72335,214.7518 35.99603,11.2954 106.64956,14.2122 146.86724,6.0631 61.45351,-12.4521 112.34163,-40.866 159.69391,-89.1669 28.22278,-28.7881 29.44395,-29.5618 52.97698,-33.5642 31.9371,-5.4317 70.7807,-16.3334 98.8814,-27.7517 12.568,-5.1068 23.5647,-8.5713 24.4372,-7.6989 0.8724,0.8724 -5.0643,15.9812 -13.1926,33.575 -57.7241,124.9435 -173.10631,216.161 -304.93287,241.07 -27.98715,5.2882 -92.17837,9.3634 -109.92749,6.9787 z"
         id="path44"
         transform="matrix(0.26458333,0,0,0.26458333,65.610893,-55.316372)" /><path
         style="fill:#23c8db;fill-opacity:1;stroke-width:3.65358"
         d="m 682.55922,1069.4191 c -25.43112,-9.0808 -48.38972,-28.6216 -61.55542,-52.3918 -9.57363,-17.28492 -10.83263,-23.04932 -10.6644,-48.82735 0.14858,-22.76793 1.97062,-32.63849 8.24299,-44.65483 20.91461,-40.0673 54.85195,-61.36519 97.52022,-61.20028 94.91753,0.36687 141.40896,113.81912 73.77278,180.02646 -29.60648,28.981 -71.98745,39.6626 -107.31617,27.0478 z"
         id="path45"
         transform="matrix(0.26458333,0,0,0.26458333,65.610893,-55.316372)" /><path
         style="fill:#ffc032;fill-opacity:1;stroke-width:2.58347"
         d="m 996.14908,1043.5928 c 5.81912,-20.9856 10.10672,-58.30863 10.13802,-88.25128 l 0.024,-22.70721 21.9193,-10.02272 c 34.4277,-15.74225 59.6175,-33.70626 89.1225,-63.55748 39.4659,-39.92889 62.3414,-79.79648 78.1041,-136.11999 4.9636,-17.73625 5.6734,-26.75537 5.76,-73.19028 0.093,-49.98682 -0.298,-54.38092 -6.9683,-78.23988 -9.9127,-35.45676 -20.2512,-59.01051 -37.8395,-86.2078 -84.542,-130.72957 -254.81581,-175.71369 -393.08988,-103.84924 -37.64109,19.563 -61.11243,38.73222 -98.4146,80.37593 -8.25868,9.21989 -10.15837,9.9739 -37.29038,14.80087 -34.66446,6.16706 -66.32687,15.14681 -100.03601,28.37115 -29.50335,11.57435 -28.65515,13.71442 -10.68189,-26.95092 21.79972,-49.32288 47.86545,-87.14841 87.49009,-126.96204 79.04172,-79.41871 174.27902,-120.47426 288.20412,-124.24102 47.32956,-1.56488 82.43723,2.83497 127.88195,16.02674 153.4189,44.53467 266.7157,170.36764 298.3496,331.36156 5.1214,26.06411 5.5981,34.8651 4.5484,83.96293 -1.083,50.65054 -1.7801,57.21876 -9.1114,85.84855 -10.7298,41.90127 -19.1587,64.71208 -35.7986,96.88029 -41.7148,80.64287 -108.1288,146.01266 -189.1949,186.22004 -25.9748,12.883 -82.4415,33.2683 -92.34329,33.3372 l -5.46591,0.038 z"
         id="path47"
         transform="matrix(0.26458333,0,0,0.26458333,65.610893,-55.316372)" /><path
         style="fill:#ffc032;fill-opacity:1;stroke-width:2.58347"
         d="m 884.09479,755.35149 c -54.4846,-10.66586 -93.02872,-60.809 -88.88263,-115.62993 4.61135,-60.9726 64.9258,-108.90118 123.8589,-98.42387 22.69855,4.03542 39.60568,12.41945 56.81273,28.17272 51.68151,47.31509 45.44841,128.41556 -12.95812,168.60028 -21.80003,14.99882 -54.20286,22.10196 -78.83088,17.2808 z"
         id="path48"
         transform="matrix(0.26458333,0,0,0.26458333,65.610893,-55.316372)" /></a></g></svg>
