<?xml version="1.0" encoding="UTF-8"?>
<svg version="1.1" xmlns="http://www.w3.org/2000/svg" width="512" height="512">
<path d="M0 0 C168.96 0 337.92 0 512 0 C512 168.96 512 337.92 512 512 C343.04 512 174.08 512 0 512 C0 343.04 0 174.08 0 0 Z " fill="#007ACC" transform="translate(0,0)"/>
<path d="M0 0 C4.59035685 4.05906555 8.61835252 8.53156436 12.53125 13.23828125 C13.11519531 13.93695313 13.69914063 14.635625 14.30078125 15.35546875 C17.54049942 19.51444579 17.54049942 19.51444579 17.5065918 22.16796875 C16.01003215 25.34464605 13.65702507 26.5267926 10.73828125 28.42578125 C10.15463303 28.81016357 9.5709848 29.1945459 8.96965027 29.59057617 C7.10130063 30.81751022 5.22293129 32.02801822 3.34375 33.23828125 C2.09760664 34.05231384 0.8521555 34.86740717 -0.39257812 35.68359375 C-2.69921053 37.19419116 -5.01021228 38.69706871 -7.32495117 40.1953125 C-10.38920181 42.18658759 -13.43211265 44.20529038 -16.46875 46.23828125 C-20.25482537 44.7406781 -21.95097404 42.60169691 -24.34375 39.36328125 C-28.67636806 33.78473407 -32.66075382 30.43978001 -39.46875 28.23828125 C-42.4098583 27.90274068 -45.32320623 27.86816654 -48.28125 27.86328125 C-49.43463867 27.82654297 -49.43463867 27.82654297 -50.61132812 27.7890625 C-57.19598557 27.75572246 -62.39778524 29.48081081 -67.34375 33.921875 C-71.28133235 40.06067526 -71.39671475 46.11793637 -70.46875 53.23828125 C-68.66311773 60.437052 -63.62482606 64.5209584 -57.46875 68.23828125 C-49.61507488 72.4029303 -41.43449539 75.92166849 -33.31640625 79.53125 C14.89889503 100.97357131 14.89889503 100.97357131 26.53125 124.23828125 C28.14282504 128.51223888 29.405181 132.81405754 30.53125 137.23828125 C30.88832031 138.49125 31.24539063 139.74421875 31.61328125 141.03515625 C35.5738005 157.08950638 32.12998679 174.99445912 24.40234375 189.33203125 C12.87825851 207.23165425 -4.93968396 216.12961455 -25.30078125 220.66015625 C-53.62541048 225.82913914 -82.36719221 221.17015911 -106.46875 205.23828125 C-114.48002091 199.62037752 -120.64372139 193.06883228 -126.46875 185.23828125 C-127.42201172 183.97177734 -127.42201172 183.97177734 -128.39453125 182.6796875 C-132.54687893 176.86640075 -132.54687893 176.86640075 -132.22167969 174.25195312 C-130.89660868 170.70811859 -127.26293966 169.4184671 -124.09375 167.67578125 C-123.34875244 167.25248535 -122.60375488 166.82918945 -121.83618164 166.39306641 C-120.23382018 165.48269792 -118.62863956 164.57727757 -117.02099609 163.67626953 C-113.48861238 161.68605143 -109.98503714 159.64746546 -106.47998047 157.60961914 C-102.81396015 155.47823624 -99.14135774 153.35828631 -95.46875 151.23828125 C-92.20795435 154.44759065 -89.10639149 157.73353926 -86.09375 161.17578125 C-76.47690538 171.87352742 -66.50895008 178.24871688 -51.8515625 179.5625 C-41.20126076 179.87830649 -30.88168055 178.17894896 -22.46875 171.23828125 C-17.11090925 165.43395377 -15.86207387 160.06412596 -16.04296875 152.3046875 C-16.89172163 146.19210938 -19.91531361 142.3661449 -24.578125 138.48046875 C-36.11568599 130.58054642 -49.73050684 125.31942594 -62.46679688 119.68725586 C-86.55753498 109.01109574 -104.47558115 96.69499397 -115.46875 72.23828125 C-115.85289062 71.3978125 -116.23703125 70.55734375 -116.6328125 69.69140625 C-120.81276042 57.42501703 -120.77806369 37.63016646 -115.72265625 25.72265625 C-115.30886719 24.9028125 -114.89507812 24.08296875 -114.46875 23.23828125 C-114.04464844 22.3153125 -113.62054688 21.39234375 -113.18359375 20.44140625 C-105.31622828 4.57518731 -91.69004988 -5.42712354 -75.46875 -11.76171875 C-74.59476562 -12.10332031 -73.72078125 -12.44492188 -72.8203125 -12.796875 C-49.3449233 -20.19747423 -19.33599339 -14.99704307 0 0 Z " fill="#FDFEFE" transform="translate(439.46875,248.76171875)"/>
<path d="M0 0 C23.45181519 -0.02254482 46.90362165 -0.04097788 70.35544491 -0.05181217 C81.24372177 -0.05697569 92.13199143 -0.06401944 103.02026367 -0.07543945 C112.50683569 -0.0853846 121.99340249 -0.09185302 131.47997957 -0.09408849 C136.50632755 -0.09539589 141.53266062 -0.09848356 146.55900383 -0.10573006 C151.28421897 -0.11248761 156.00941298 -0.11461751 160.73463249 -0.11310768 C162.47416295 -0.11338413 164.21369407 -0.11539082 165.95322037 -0.11920547 C168.31758985 -0.12413859 170.68187825 -0.12299972 173.04624939 -0.12025452 C173.74370724 -0.12316736 174.44116509 -0.1260802 175.15975803 -0.12908131 C179.88587879 -0.11412121 179.88587879 -0.11412121 181 1 C181.08870641 4.02956243 181.11526582 7.0368671 181.09765625 10.06640625 C181.09664917 10.8713855 181.09564209 11.67636475 181.09460449 12.5057373 C181.08935614 15.52467261 181.075395 18.54358767 181.0625 21.5625 C181.041875 28.306875 181.02125 35.05125 181 42 C158.89 42 136.78 42 114 42 C114 104.37 114 166.74 114 231 C98.49 231 82.98 231 67 231 C67 168.63 67 106.26 67 42 C44.89 42 22.78 42 0 42 C0 28.14 0 14.28 0 0 Z " fill="#FDFEFE" transform="translate(113,237)"/>
</svg>
